<svg xmlns="http://www.w3.org/2000/svg" viewBox="0 0 105.25 105.25" fill="currentColor"><path fill-rule="nonzero" d="M 47.22 45.16 C 46.82 45.45 46.45 45.77 46.11 46.11 C 45.78 46.44 45.47 46.79 45.2 47.16 L 31.45 33.41 C 31.21 33.16 30.95 32.9 30.7 32.66 C 29.09 31.13 27.27 29.84 25.27 28.84 C 24.49 28.45 23.68 28.11 22.85 27.81 C 20.5 26.96 17.97 26.51 15.33 26.51 C 14.43 26.51 13.55 26.56 12.68 26.66 C 12.67 26.66 12.66 26.66 12.64 26.67 C 12.52 26.66 12.42 26.56 12.41 26.43 L 12.41 26.42 C 12.57 24.11 14.21 22.2 16.38 21.66 C 14.49 19.77 13.15 17.33 12.64 14.6 C 12.52 13.99 12.44 13.35 12.42 12.7 C 12.41 12.7 12.41 12.7 12.42 12.7 L 12.42 12.69 C 12.41 12.67 12.41 12.65 12.41 12.62 L 12.41 12.62 C 12.42 12.56 12.44 12.52 12.48 12.48 C 12.52 12.44 12.58 12.41 12.64 12.41 L 12.65 12.41 C 12.66 12.41 12.66 12.41 12.66 12.41 C 13.36 12.44 14.04 12.52 14.71 12.66 C 16.79 13.06 18.69 13.95 20.3 15.18 L 20.3 15.19 C 20.78 15.55 21.23 15.95 21.65 16.37 C 21.88 15.47 22.33 14.68 22.95 14.04 C 23.84 13.11 25.06 12.52 26.42 12.43 C 26.43 12.43 26.45 12.43 26.45 12.43 C 26.46 12.43 26.47 12.43 26.48 12.43 C 26.6 12.44 26.7 12.54 26.7 12.66 L 26.7 12.67 C 26.7 12.7 26.7 12.71 26.69 12.73 C 26.59 13.57 26.54 14.43 26.54 15.29 C 26.54 16.12 26.59 16.95 26.68 17.76 C 26.87 19.53 27.27 21.23 27.86 22.85 C 28.16 23.68 28.5 24.47 28.89 25.25 C 29.72 26.91 30.75 28.45 31.96 29.84 C 31.93 29.84 31.89 29.82 31.87 29.82 L 32.45 30.4 C 32.86 30.83 33.27 31.25 33.71 31.66 ZM 47.22 45.16 "/><path fill-rule="nonzero" d="M 57.63 52.62 C 57.63 55.39 55.39 57.63 52.62 57.63 C 49.86 57.63 47.62 55.39 47.62 52.62 C 47.62 49.86 49.86 47.62 52.62 47.62 C 55.39 47.62 57.63 49.86 57.63 52.62 "/><path fill-rule="nonzero" d="M 73.48 14.26 C 73.48 15.04 73.44 15.8 73.35 16.55 C 73.28 16.86 73.24 17.17 73.23 17.5 C 72.92 19.46 72.34 21.34 71.52 23.09 C 70.48 25.27 69.09 27.25 67.4 28.93 L 63.88 32.46 L 59.26 37.07 L 58.44 37.89 C 58.2 38.11 57.94 38.31 57.68 38.5 L 57.67 38.5 C 56.25 39.49 54.52 40.08 52.64 40.08 L 52.61 40.08 C 50.74 40.08 49.01 39.49 47.58 38.5 L 47.58 38.5 C 47.31 38.31 47.05 38.11 46.82 37.89 L 45.99 37.07 L 41.38 32.46 L 37.85 28.93 C 36.17 27.25 34.77 25.27 33.73 23.09 C 32.92 21.34 32.33 19.46 32.03 17.5 C 32.02 17.17 31.97 16.86 31.9 16.55 C 31.82 15.8 31.77 15.04 31.77 14.26 C 31.77 10.38 32.84 6.74 34.71 3.63 C 34.71 3.62 34.71 3.62 34.71 3.62 C 34.94 3.23 35.18 2.86 35.44 2.5 C 35.48 2.42 35.53 2.35 35.58 2.29 C 36.76 0.89 38.52 0.0 40.49 0.0 C 42.95 0.0 45.09 1.39 46.16 3.44 C 46.63 4.32 46.9 5.34 46.9 6.41 C 46.9 6.52 46.89 6.63 46.89 6.74 L 46.89 6.75 C 46.89 6.88 46.78 6.99 46.64 6.99 C 46.61 6.99 46.57 6.99 46.55 6.97 C 45.65 6.44 44.59 6.14 43.47 6.14 C 41.69 6.14 40.1 6.9 38.98 8.11 C 38.94 8.17 38.91 8.22 38.88 8.28 C 38.19 9.42 37.71 10.71 37.52 12.09 C 37.47 12.37 37.44 12.66 37.43 12.95 C 37.41 13.15 37.4 13.36 37.4 13.57 C 37.4 14.58 37.55 15.55 37.82 16.47 C 38.05 16.22 38.3 16.0 38.56 15.8 C 38.69 15.7 38.83 15.61 38.97 15.52 C 39.84 14.97 40.88 14.66 41.98 14.66 C 42.8 14.66 43.58 14.83 44.29 15.14 C 44.38 15.18 44.44 15.27 44.44 15.37 C 44.44 15.44 44.41 15.5 44.36 15.54 C 43.66 16.34 43.07 17.25 42.65 18.24 C 42.14 19.39 41.85 20.66 41.81 22.0 C 41.8 22.1 41.8 22.21 41.8 22.32 C 41.8 23.6 42.04 24.83 42.47 25.96 C 42.5 26.03 42.52 26.09 42.54 26.14 C 42.59 26.07 42.64 26.01 42.69 25.94 C 43.39 24.96 44.32 24.14 45.39 23.57 C 45.88 23.3 46.4 23.09 46.95 22.92 C 46.97 22.92 47.0 22.91 47.02 22.9 C 47.04 22.89 47.04 22.89 47.06 22.89 C 47.2 22.89 47.3 23.0 47.3 23.14 C 47.3 23.17 47.3 23.21 47.29 23.23 C 47.27 23.26 47.25 23.29 47.23 23.32 C 47.12 23.46 47.02 23.62 46.92 23.79 C 46.67 24.21 46.46 24.66 46.3 25.14 C 46.07 25.83 45.95 26.57 45.95 27.34 C 45.95 27.41 45.95 27.49 45.95 27.57 C 46.0 28.97 46.46 30.28 47.22 31.35 C 48.43 33.07 50.39 34.21 52.62 34.3 C 54.86 34.21 56.82 33.07 58.03 31.35 C 58.79 30.28 59.26 28.97 59.3 27.57 C 59.3 27.49 59.3 27.41 59.3 27.34 C 59.3 26.57 59.18 25.83 58.95 25.14 C 58.79 24.66 58.59 24.21 58.34 23.79 C 58.24 23.62 58.14 23.46 58.03 23.32 C 58.0 23.29 57.98 23.26 57.97 23.23 C 57.95 23.21 57.95 23.17 57.95 23.14 C 57.95 23.0 58.06 22.89 58.19 22.89 C 58.21 22.89 58.22 22.89 58.23 22.9 C 58.26 22.91 58.28 22.92 58.31 22.92 C 58.85 23.09 59.37 23.3 59.86 23.57 C 60.93 24.14 61.86 24.96 62.57 25.94 C 62.62 26.01 62.66 26.07 62.71 26.14 C 62.74 26.09 62.76 26.03 62.79 25.96 C 63.22 24.83 63.45 23.6 63.45 22.32 C 63.45 22.21 63.45 22.1 63.44 22.0 C 63.41 20.66 63.11 19.39 62.61 18.24 C 62.18 17.25 61.59 16.34 60.89 15.54 C 60.84 15.5 60.82 15.44 60.82 15.37 C 60.82 15.27 60.88 15.18 60.97 15.14 C 61.67 14.83 62.45 14.66 63.27 14.66 C 64.38 14.66 65.41 14.97 66.28 15.52 C 66.43 15.61 66.56 15.7 66.7 15.8 C 66.96 16.0 67.21 16.22 67.43 16.47 C 67.7 15.55 67.85 14.58 67.85 13.57 C 67.85 13.36 67.84 13.15 67.83 12.95 C 67.81 12.66 67.78 12.37 67.74 12.09 C 67.54 10.71 67.07 9.42 66.38 8.28 C 66.35 8.22 66.31 8.17 66.27 8.11 C 65.16 6.9 63.56 6.14 61.78 6.14 C 60.66 6.14 59.61 6.44 58.7 6.97 C 58.68 6.99 58.64 6.99 58.61 6.99 C 58.48 6.99 58.36 6.88 58.36 6.75 L 58.36 6.74 C 58.36 6.63 58.36 6.52 58.36 6.41 C 58.36 5.34 58.62 4.32 59.09 3.44 C 60.16 1.39 62.3 0.0 64.77 0.0 C 66.74 0.0 68.5 0.89 69.67 2.29 C 69.72 2.35 69.77 2.42 69.82 2.5 C 70.07 2.86 70.31 3.23 70.54 3.62 C 70.55 3.62 70.55 3.62 70.55 3.63 C 72.41 6.74 73.48 10.38 73.48 14.26 "/><path fill-rule="nonzero" d="M 58.04 45.16 C 58.43 45.45 58.8 45.77 59.14 46.11 C 59.47 46.44 59.78 46.79 60.05 47.16 L 73.8 33.41 C 74.04 33.16 74.3 32.9 74.55 32.66 C 76.16 31.13 77.98 29.84 79.98 28.84 C 80.77 28.45 81.57 28.11 82.4 27.81 C 84.75 26.96 87.29 26.51 89.93 26.51 C 90.82 26.51 91.7 26.56 92.57 26.66 C 92.58 26.66 92.59 26.66 92.61 26.67 C 92.73 26.66 92.84 26.56 92.84 26.43 L 92.84 26.42 C 92.68 24.11 91.05 22.2 88.87 21.66 C 90.76 19.77 92.1 17.33 92.61 14.6 C 92.73 13.99 92.81 13.35 92.84 12.7 C 92.84 12.7 92.84 12.7 92.84 12.7 L 92.84 12.69 C 92.84 12.67 92.84 12.65 92.84 12.62 L 92.84 12.62 C 92.84 12.56 92.81 12.52 92.77 12.48 C 92.73 12.44 92.68 12.41 92.61 12.41 L 92.6 12.41 C 92.59 12.41 92.59 12.41 92.59 12.41 C 91.89 12.44 91.21 12.52 90.54 12.66 C 88.46 13.06 86.56 13.95 84.95 15.18 L 84.95 15.19 C 84.47 15.55 84.02 15.95 83.6 16.37 C 83.38 15.47 82.92 14.68 82.3 14.04 C 81.41 13.11 80.19 12.52 78.83 12.43 C 78.82 12.43 78.81 12.43 78.8 12.43 C 78.79 12.43 78.78 12.43 78.78 12.43 C 78.65 12.44 78.56 12.54 78.55 12.66 L 78.55 12.67 C 78.55 12.7 78.56 12.71 78.56 12.73 C 78.66 13.57 78.71 14.43 78.71 15.29 C 78.71 16.12 78.66 16.95 78.57 17.76 C 78.38 19.53 77.98 21.23 77.39 22.85 C 77.1 23.68 76.75 24.47 76.36 25.25 C 75.53 26.91 74.5 28.45 73.29 29.84 C 73.32 29.84 73.36 29.82 73.38 29.82 L 72.8 30.4 C 72.39 30.83 71.98 31.25 71.54 31.66 ZM 58.04 45.16 "/><path fill-rule="nonzero" d="M 47.22 60.09 C 46.82 59.8 46.45 59.48 46.11 59.14 C 45.78 58.81 45.47 58.46 45.2 58.08 L 31.45 71.84 C 31.21 72.09 30.95 72.35 30.7 72.59 C 29.09 74.11 27.27 75.41 25.27 76.41 C 24.49 76.8 23.68 77.14 22.85 77.44 C 20.5 78.28 17.97 78.74 15.33 78.74 C 14.43 78.74 13.55 78.69 12.68 78.59 C 12.67 78.59 12.66 78.59 12.64 78.58 C 12.52 78.59 12.42 78.69 12.41 78.82 L 12.41 78.83 C 12.57 81.14 14.21 83.05 16.38 83.59 C 14.49 85.48 13.15 87.92 12.64 90.65 C 12.52 91.26 12.44 91.9 12.42 92.55 C 12.41 92.55 12.41 92.55 12.42 92.55 L 12.42 92.56 C 12.41 92.58 12.41 92.6 12.41 92.62 L 12.41 92.63 C 12.42 92.69 12.44 92.73 12.48 92.77 C 12.52 92.81 12.58 92.84 12.64 92.84 L 12.65 92.84 C 12.66 92.84 12.66 92.84 12.66 92.84 C 13.36 92.81 14.04 92.73 14.71 92.59 C 16.79 92.19 18.69 91.3 20.3 90.07 L 20.3 90.06 C 20.78 89.7 21.23 89.3 21.65 88.88 C 21.88 89.78 22.33 90.57 22.95 91.21 C 23.84 92.14 25.06 92.73 26.42 92.82 C 26.43 92.82 26.45 92.82 26.45 92.82 C 26.46 92.82 26.47 92.82 26.48 92.82 C 26.6 92.81 26.7 92.71 26.7 92.59 L 26.7 92.58 C 26.7 92.55 26.7 92.54 26.69 92.52 C 26.59 91.68 26.54 90.82 26.54 89.96 C 26.54 89.12 26.59 88.3 26.68 87.49 C 26.87 85.72 27.27 84.02 27.86 82.4 C 28.16 81.57 28.5 80.78 28.89 80.0 C 29.72 78.34 30.75 76.8 31.96 75.41 C 31.93 75.41 31.89 75.42 31.87 75.43 L 32.45 74.85 C 32.86 74.42 33.27 74.0 33.71 73.59 ZM 47.22 60.09 "/><path fill-rule="nonzero" d="M 58.04 60.09 C 58.43 59.8 58.8 59.48 59.14 59.14 C 59.47 58.81 59.78 58.46 60.05 58.08 L 73.8 71.84 C 74.04 72.09 74.3 72.35 74.55 72.59 C 76.16 74.11 77.98 75.41 79.98 76.41 C 80.77 76.8 81.57 77.14 82.4 77.44 C 84.75 78.28 87.29 78.74 89.93 78.74 C 90.82 78.74 91.7 78.69 92.57 78.59 C 92.58 78.59 92.59 78.59 92.61 78.58 C 92.73 78.59 92.84 78.69 92.84 78.82 L 92.84 78.83 C 92.68 81.14 91.05 83.05 88.87 83.59 C 90.76 85.48 92.1 87.92 92.61 90.65 C 92.73 91.26 92.81 91.9 92.84 92.55 C 92.84 92.55 92.84 92.55 92.84 92.55 L 92.84 92.56 C 92.84 92.58 92.84 92.6 92.84 92.62 L 92.84 92.63 C 92.84 92.69 92.81 92.73 92.77 92.77 C 92.73 92.81 92.68 92.84 92.61 92.84 L 92.6 92.84 C 92.59 92.84 92.59 92.84 92.59 92.84 C 91.89 92.81 91.21 92.73 90.54 92.59 C 88.46 92.19 86.56 91.3 84.95 90.07 L 84.95 90.06 C 84.47 89.7 84.02 89.3 83.6 88.88 C 83.38 89.78 82.92 90.57 82.3 91.21 C 81.41 92.14 80.19 92.73 78.83 92.82 C 78.82 92.82 78.81 92.82 78.8 92.82 C 78.79 92.82 78.78 92.82 78.78 92.82 C 78.65 92.81 78.56 92.71 78.55 92.59 L 78.55 92.58 C 78.55 92.55 78.56 92.54 78.56 92.52 C 78.66 91.68 78.71 90.82 78.71 89.96 C 78.71 89.12 78.66 88.3 78.57 87.49 C 78.38 85.72 77.98 84.02 77.39 82.4 C 77.1 81.57 76.75 80.78 76.36 80.0 C 75.53 78.34 74.5 76.8 73.29 75.41 C 73.32 75.41 73.36 75.42 73.38 75.43 L 72.8 74.85 C 72.39 74.42 71.98 74.0 71.54 73.59 ZM 58.04 60.09 "/><path fill-rule="nonzero" d="M 73.48 90.99 C 73.48 94.87 72.41 98.51 70.55 101.62 C 70.55 101.62 70.55 101.62 70.54 101.63 C 70.31 102.02 70.07 102.39 69.82 102.75 C 69.77 102.83 69.72 102.9 69.67 102.96 C 68.5 104.36 66.74 105.25 64.77 105.25 C 62.3 105.25 60.16 103.86 59.09 101.81 C 58.62 100.93 58.36 99.91 58.36 98.84 C 58.36 98.73 58.36 98.62 58.36 98.51 L 58.36 98.5 C 58.36 98.37 58.48 98.26 58.61 98.26 C 58.64 98.26 58.68 98.27 58.7 98.28 C 59.61 98.81 60.66 99.11 61.78 99.11 C 63.56 99.11 65.16 98.35 66.27 97.14 C 66.31 97.08 66.35 97.03 66.38 96.97 C 67.07 95.83 67.54 94.54 67.74 93.16 C 67.78 92.88 67.81 92.59 67.83 92.31 C 67.84 92.1 67.85 91.89 67.85 91.68 C 67.85 90.68 67.7 89.7 67.43 88.78 C 67.21 89.02 66.96 89.25 66.7 89.45 C 66.56 89.55 66.43 89.64 66.28 89.73 C 65.41 90.28 64.38 90.6 63.27 90.6 C 62.45 90.6 61.67 90.42 60.97 90.11 C 60.88 90.07 60.82 89.98 60.82 89.88 C 60.82 89.81 60.84 89.75 60.89 89.71 C 61.59 88.91 62.18 88.0 62.61 87.01 C 63.11 85.85 63.41 84.59 63.44 83.25 C 63.45 83.15 63.45 83.04 63.45 82.93 C 63.45 81.65 63.22 80.42 62.79 79.29 C 62.76 79.22 62.74 79.16 62.71 79.11 C 62.66 79.18 62.62 79.24 62.57 79.31 C 61.86 80.29 60.93 81.11 59.86 81.68 C 59.37 81.95 58.85 82.16 58.31 82.33 C 58.28 82.33 58.26 82.34 58.23 82.35 C 58.22 82.36 58.21 82.36 58.19 82.36 C 58.06 82.36 57.95 82.25 57.95 82.11 C 57.95 82.08 57.95 82.04 57.97 82.02 C 57.98 81.99 58.0 81.96 58.03 81.94 C 58.14 81.79 58.24 81.63 58.34 81.46 C 58.59 81.04 58.79 80.59 58.95 80.11 C 59.18 79.42 59.3 78.68 59.3 77.91 C 59.3 77.84 59.3 77.76 59.3 77.68 C 59.26 76.28 58.79 74.97 58.03 73.9 C 56.82 72.19 54.86 71.04 52.62 70.95 C 50.39 71.04 48.43 72.19 47.22 73.9 C 46.46 74.97 46.0 76.28 45.95 77.68 C 45.95 77.76 45.95 77.84 45.95 77.91 C 45.95 78.68 46.07 79.42 46.3 80.11 C 46.46 80.59 46.67 81.04 46.92 81.46 C 47.02 81.63 47.12 81.79 47.23 81.94 C 47.25 81.96 47.27 81.99 47.29 82.02 C 47.3 82.04 47.3 82.08 47.3 82.11 C 47.3 82.25 47.2 82.36 47.06 82.36 C 47.04 82.36 47.04 82.36 47.02 82.35 C 47.0 82.34 46.97 82.33 46.95 82.33 C 46.4 82.16 45.88 81.95 45.39 81.68 C 44.32 81.11 43.39 80.29 42.69 79.31 C 42.64 79.24 42.59 79.18 42.54 79.11 C 42.52 79.16 42.5 79.22 42.47 79.29 C 42.04 80.42 41.8 81.65 41.8 82.93 C 41.8 83.04 41.8 83.15 41.81 83.25 C 41.85 84.59 42.14 85.85 42.65 87.01 C 43.07 88.0 43.66 88.91 44.36 89.71 C 44.41 89.75 44.44 89.81 44.44 89.88 C 44.44 89.98 44.38 90.07 44.29 90.11 C 43.58 90.42 42.8 90.6 41.98 90.6 C 40.88 90.6 39.84 90.28 38.97 89.73 C 38.83 89.64 38.69 89.55 38.56 89.45 C 38.3 89.25 38.05 89.02 37.82 88.78 C 37.55 89.7 37.4 90.68 37.4 91.68 C 37.4 91.89 37.41 92.1 37.43 92.31 C 37.44 92.59 37.47 92.88 37.52 93.16 C 37.71 94.54 38.19 95.83 38.88 96.97 C 38.91 97.03 38.94 97.08 38.98 97.14 C 40.1 98.35 41.69 99.11 43.47 99.11 C 44.59 99.11 45.65 98.81 46.55 98.28 C 46.57 98.27 46.61 98.26 46.64 98.26 C 46.78 98.26 46.89 98.37 46.89 98.5 L 46.89 98.51 C 46.89 98.62 46.9 98.73 46.9 98.84 C 46.9 99.91 46.63 100.93 46.16 101.81 C 45.09 103.86 42.95 105.25 40.49 105.25 C 38.52 105.25 36.76 104.36 35.58 102.96 C 35.53 102.9 35.48 102.83 35.44 102.75 C 35.18 102.39 34.94 102.02 34.71 101.63 C 34.71 101.62 34.71 101.62 34.71 101.62 C 32.84 98.51 31.77 94.87 31.77 90.99 C 31.77 90.21 31.82 89.45 31.9 88.7 C 31.97 88.39 32.02 88.08 32.03 87.75 C 32.33 85.79 32.92 83.91 33.73 82.16 C 34.77 79.98 36.17 78.0 37.85 76.32 L 41.38 72.79 L 46.35 67.82 L 46.82 67.36 C 47.05 67.14 47.31 66.94 47.58 66.75 L 47.58 66.75 C 49.01 65.76 50.74 65.18 52.61 65.18 L 52.64 65.18 C 54.52 65.18 56.25 65.76 57.67 66.75 L 57.68 66.75 C 57.94 66.94 58.2 67.14 58.44 67.36 L 58.91 67.82 L 63.88 72.79 L 67.4 76.32 C 69.09 78.0 70.48 79.98 71.52 82.16 C 72.34 83.91 72.92 85.79 73.23 87.75 C 73.24 88.08 73.28 88.39 73.35 88.7 C 73.44 89.45 73.48 90.21 73.48 90.99 "/><path fill-rule="nonzero" d="M 40.07 52.61 L 40.07 52.64 C 40.07 54.51 39.49 56.24 38.5 57.67 L 38.5 57.67 C 38.31 57.94 38.11 58.2 37.89 58.43 L 28.93 67.39 C 27.25 69.08 25.27 70.48 23.08 71.51 C 21.34 72.33 19.46 72.91 17.5 73.22 C 17.17 73.23 16.86 73.28 16.55 73.35 C 15.8 73.43 15.04 73.47 14.26 73.47 C 10.38 73.47 6.74 72.4 3.63 70.54 C 3.62 70.54 3.62 70.54 3.62 70.54 C 3.23 70.31 2.86 70.07 2.49 69.81 C 2.42 69.77 2.35 69.72 2.29 69.66 C 0.89 68.49 0.0 66.73 0.0 64.76 C 0.0 62.29 1.39 60.16 3.44 59.09 C 4.32 58.62 5.34 58.35 6.41 58.35 C 6.52 58.35 6.63 58.36 6.74 58.36 L 6.75 58.36 C 6.88 58.36 6.99 58.47 6.99 58.61 C 6.99 58.64 6.98 58.68 6.97 58.7 C 6.44 59.6 6.13 60.66 6.13 61.78 C 6.13 63.56 6.9 65.15 8.11 66.27 C 8.17 66.3 8.22 66.34 8.28 66.37 C 9.42 67.06 10.71 67.54 12.09 67.73 C 12.37 67.78 12.66 67.81 12.94 67.82 C 13.15 67.84 13.36 67.84 13.57 67.84 C 14.57 67.84 15.55 67.7 16.47 67.43 C 16.22 67.2 16.0 66.95 15.8 66.69 C 15.7 66.56 15.6 66.42 15.52 66.27 C 14.96 65.4 14.65 64.37 14.65 63.27 C 14.65 62.45 14.82 61.67 15.14 60.96 C 15.18 60.87 15.26 60.81 15.37 60.81 C 15.44 60.81 15.5 60.84 15.54 60.89 C 16.34 61.59 17.25 62.18 18.24 62.6 C 19.39 63.1 20.66 63.4 21.99 63.44 C 22.1 63.45 22.21 63.45 22.32 63.45 C 23.6 63.45 24.83 63.21 25.96 62.78 C 26.03 62.75 26.08 62.73 26.14 62.71 C 26.07 62.66 26.0 62.61 25.94 62.56 C 24.96 61.86 24.14 60.93 23.56 59.86 C 23.3 59.37 23.08 58.85 22.92 58.3 C 22.92 58.28 22.91 58.25 22.9 58.23 C 22.89 58.21 22.89 58.2 22.89 58.19 C 22.89 58.05 23.0 57.94 23.14 57.94 C 23.17 57.94 23.2 57.95 23.23 57.96 C 23.26 57.98 23.29 58.0 23.31 58.02 C 23.46 58.13 23.62 58.23 23.78 58.33 C 24.21 58.58 24.66 58.79 25.14 58.95 C 25.83 59.18 26.57 59.3 27.34 59.3 C 27.41 59.3 27.49 59.3 27.57 59.3 C 28.97 59.25 30.28 58.79 31.35 58.03 C 33.06 56.82 34.21 54.86 34.29 52.63 L 34.29 52.62 C 34.21 50.39 33.06 48.43 31.35 47.22 C 30.28 46.46 28.97 46.0 27.57 45.96 C 27.49 45.95 27.41 45.95 27.34 45.95 C 26.57 45.95 25.83 46.07 25.14 46.3 C 24.66 46.46 24.21 46.67 23.78 46.92 C 23.62 47.02 23.46 47.12 23.31 47.23 C 23.29 47.25 23.26 47.27 23.23 47.29 C 23.2 47.3 23.17 47.3 23.14 47.3 C 23.0 47.3 22.89 47.2 22.89 47.06 C 22.89 47.05 22.89 47.04 22.9 47.02 C 22.91 47.0 22.92 46.97 22.92 46.95 C 23.08 46.4 23.3 45.88 23.56 45.39 C 24.14 44.32 24.96 43.39 25.94 42.69 C 26.0 42.64 26.07 42.59 26.14 42.54 C 26.08 42.52 26.03 42.5 25.96 42.47 C 24.83 42.04 23.6 41.8 22.32 41.8 C 22.21 41.8 22.1 41.8 21.99 41.81 C 20.66 41.85 19.39 42.15 18.24 42.65 C 17.25 43.07 16.34 43.66 15.54 44.36 C 15.5 44.41 15.44 44.44 15.37 44.44 C 15.26 44.44 15.18 44.37 15.14 44.29 C 14.82 43.58 14.65 42.8 14.65 41.98 C 14.65 40.87 14.96 39.85 15.52 38.98 C 15.6 38.83 15.7 38.7 15.8 38.56 C 16.0 38.3 16.22 38.05 16.47 37.82 C 15.55 37.55 14.57 37.41 13.57 37.41 C 13.36 37.41 13.15 37.41 12.94 37.43 C 12.66 37.44 12.37 37.47 12.09 37.52 C 10.71 37.71 9.42 38.19 8.28 38.87 C 8.22 38.91 8.17 38.95 8.11 38.98 C 6.9 40.1 6.13 41.69 6.13 43.47 C 6.13 44.59 6.44 45.65 6.97 46.55 C 6.98 46.57 6.99 46.61 6.99 46.64 C 6.99 46.78 6.88 46.89 6.75 46.89 L 6.74 46.89 C 6.63 46.89 6.52 46.9 6.41 46.9 C 5.34 46.9 4.32 46.63 3.44 46.16 C 1.39 45.09 0.0 42.96 0.0 40.49 C 0.0 38.52 0.89 36.76 2.29 35.59 C 2.35 35.53 2.42 35.48 2.49 35.44 C 2.86 35.18 3.23 34.94 3.62 34.71 C 3.62 34.71 3.62 34.71 3.63 34.71 C 6.74 32.85 10.38 31.78 14.26 31.78 C 15.04 31.78 15.8 31.82 16.55 31.9 C 16.86 31.97 17.17 32.02 17.5 32.03 C 19.46 32.34 21.34 32.92 23.08 33.74 C 25.27 34.77 27.25 36.17 28.93 37.86 L 37.89 46.82 C 38.11 47.05 38.31 47.31 38.5 47.58 L 38.5 47.58 C 39.49 49.01 40.07 50.74 40.07 52.61 "/><path fill-rule="nonzero" d="M 105.25 64.76 C 105.25 66.73 104.36 68.49 102.96 69.66 C 102.89 69.72 102.83 69.77 102.75 69.81 C 102.39 70.07 102.02 70.31 101.63 70.54 C 101.62 70.54 101.62 70.54 101.62 70.54 C 98.51 72.41 94.87 73.47 90.98 73.47 C 90.21 73.47 89.45 73.43 88.7 73.35 C 88.39 73.28 88.08 73.23 87.75 73.22 C 85.79 72.91 83.91 72.33 82.16 71.51 C 79.98 70.48 78.0 69.08 76.32 67.4 L 68.18 59.26 L 67.82 58.9 L 67.36 58.43 C 67.14 58.2 66.94 57.94 66.75 57.67 L 66.75 57.67 C 65.76 56.24 65.17 54.51 65.17 52.64 L 65.17 52.61 C 65.17 50.74 65.76 49.01 66.75 47.58 L 66.75 47.58 C 66.94 47.31 67.14 47.05 67.36 46.82 L 67.82 46.35 L 68.18 45.99 L 72.79 41.38 L 76.32 37.86 C 78.0 36.17 79.98 34.77 82.16 33.74 C 83.91 32.92 85.79 32.34 87.75 32.03 C 88.08 32.02 88.39 31.97 88.7 31.9 C 89.45 31.82 90.21 31.78 90.98 31.78 C 94.87 31.78 98.51 32.85 101.62 34.71 C 101.62 34.71 101.62 34.71 101.63 34.71 C 102.02 34.94 102.39 35.18 102.75 35.44 C 102.83 35.48 102.89 35.53 102.96 35.58 C 104.36 36.76 105.25 38.52 105.25 40.49 C 105.25 42.96 103.86 45.09 101.81 46.16 C 100.92 46.63 99.91 46.9 98.84 46.9 C 98.73 46.9 98.62 46.89 98.51 46.89 L 98.5 46.89 C 98.37 46.89 98.26 46.78 98.26 46.64 C 98.26 46.61 98.26 46.57 98.28 46.55 C 98.81 45.65 99.11 44.59 99.11 43.47 C 99.11 41.7 98.35 40.1 97.14 38.98 C 97.08 38.95 97.03 38.91 96.97 38.87 C 95.83 38.19 94.54 37.71 93.16 37.52 C 92.88 37.47 92.59 37.44 92.3 37.43 C 92.1 37.41 91.89 37.41 91.68 37.41 C 90.67 37.41 89.7 37.55 88.78 37.82 C 89.02 38.05 89.24 38.3 89.45 38.56 C 89.55 38.7 89.64 38.83 89.73 38.98 C 90.28 39.85 90.59 40.87 90.59 41.98 C 90.59 42.8 90.42 43.58 90.11 44.29 C 90.07 44.37 89.98 44.44 89.88 44.44 C 89.81 44.44 89.75 44.41 89.71 44.36 C 88.91 43.66 88.0 43.07 87.0 42.65 C 85.85 42.15 84.59 41.85 83.25 41.81 C 83.15 41.8 83.04 41.8 82.93 41.8 C 81.65 41.8 80.42 42.04 79.29 42.47 C 79.22 42.5 79.16 42.52 79.11 42.54 C 79.18 42.59 79.24 42.64 79.31 42.69 C 80.29 43.39 81.11 44.32 81.68 45.39 C 81.95 45.88 82.16 46.4 82.33 46.95 C 82.33 46.97 82.34 47.0 82.35 47.02 C 82.36 47.04 82.36 47.05 82.36 47.06 C 82.36 47.2 82.25 47.31 82.11 47.31 C 82.07 47.31 82.04 47.3 82.02 47.29 C 81.99 47.27 81.96 47.25 81.93 47.23 C 81.79 47.12 81.62 47.02 81.46 46.92 C 81.04 46.67 80.58 46.46 80.11 46.3 C 79.42 46.07 78.68 45.95 77.91 45.95 C 77.84 45.95 77.76 45.95 77.68 45.95 C 76.27 46.0 74.97 46.46 73.89 47.22 C 72.18 48.43 71.04 50.39 70.95 52.62 L 70.95 52.63 C 71.04 54.86 72.18 56.82 73.89 58.03 C 74.97 58.79 76.27 59.25 77.68 59.29 C 77.76 59.3 77.84 59.3 77.91 59.3 C 78.68 59.3 79.42 59.18 80.11 58.95 C 80.58 58.79 81.04 58.58 81.46 58.33 C 81.62 58.23 81.79 58.13 81.93 58.02 C 81.96 58.0 81.99 57.98 82.02 57.96 C 82.04 57.95 82.07 57.95 82.11 57.95 C 82.25 57.95 82.36 58.05 82.36 58.19 C 82.36 58.2 82.36 58.21 82.35 58.23 C 82.34 58.25 82.33 58.28 82.33 58.3 C 82.16 58.85 81.95 59.37 81.68 59.86 C 81.11 60.93 80.29 61.86 79.31 62.56 C 79.24 62.61 79.18 62.66 79.11 62.71 C 79.16 62.73 79.22 62.75 79.29 62.78 C 80.42 63.21 81.65 63.45 82.93 63.45 C 83.04 63.45 83.15 63.45 83.25 63.44 C 84.59 63.4 85.85 63.1 87.0 62.6 C 88.0 62.18 88.91 61.59 89.71 60.89 C 89.75 60.84 89.81 60.81 89.88 60.81 C 89.98 60.81 90.07 60.87 90.11 60.96 C 90.42 61.67 90.59 62.45 90.59 63.27 C 90.59 64.37 90.28 65.4 89.73 66.27 C 89.64 66.42 89.55 66.56 89.45 66.69 C 89.24 66.95 89.02 67.2 88.78 67.43 C 89.7 67.7 90.67 67.84 91.68 67.84 C 91.89 67.84 92.1 67.84 92.3 67.82 C 92.59 67.81 92.88 67.78 93.16 67.73 C 94.54 67.54 95.83 67.06 96.97 66.37 C 97.03 66.34 97.08 66.3 97.14 66.27 C 98.35 65.15 99.11 63.56 99.11 61.78 C 99.11 60.66 98.81 59.6 98.28 58.7 C 98.26 58.68 98.26 58.64 98.26 58.61 C 98.26 58.47 98.37 58.36 98.5 58.36 L 98.51 58.36 C 98.62 58.36 98.73 58.35 98.84 58.35 C 99.91 58.35 100.92 58.62 101.81 59.09 C 103.86 60.16 105.25 62.29 105.25 64.76 "/></svg>