<svg xmlns="http://www.w3.org/2000/svg" viewBox="0 0 1563 1563"><g fill="none" stroke="gray" stroke-width="2"><path d="M643.79 613.81q-21.14-22.23-35.82-49.48c-10.53-19.54-15.84-38.49-19.09-60.66-4.85-33.03 7.13-65.33 30.86-88.43 10.46-10.19 26.21-17.77 40.76-17.36q7.92.22 12.85 3.36 6.91 4.4 10.94 12.41 3.53 7 1.48 16.18c-.8 3.59-3.73 7.69-5.82 11.65q-1.02 1.93.91 3.68c6.34 5.79 16.1 7.74 23.61 3.03 7.61-4.76 11.09-13.46 11.7-22.22.9-12.98-8.51-29.8-20.57-35.55a.68.68 0 0 1-.21-1.06q.05-.05.27-.07a.69.66 46.4 0 1 .2.01q2.81.59 7.86 3.48c16.5 9.45 24.69 25.57 19.68 44.34q-3.2 12-13.52 16.95-2.39 1.15-8.88 3.76-4.6 1.85-3.26 7.44 1.89 7.9 8.1 11.86c12.18 7.77 29.39 3.17 39.15-6 12.88-12.11 17.4-34.64 14.23-51.63q-4.87-26.11-26.68-45.52c-20.4-18.17-47.11-24.75-73.75-18.42-18.81 4.48-33.99 12.45-48.74 23.97-19.62 15.34-33.93 37.97-40.16 61.59q-3 11.36-4.2 19.11-2.15 13.78-.69 28.29c2.97 29.59 13.76 59.44 29.4 84.84 2.76 4.48 6.71 11.08 10.44 16.04 3.55 4.7 6.77 9.79 10.96 14.82q15.28 18.34 33.11 35.4 16.8 16.08 38.12 27.72c14.88 8.13 31.75 13.71 47.97 17.43 17.54 4.03 35.52 3.64 53.74 3.25 30.59-.67 61.46-13.32 86.55-30.43q11.58-7.9 25.18-21.11 14.12-13.71 22.82-23.7 16.13-18.51 30.36-40.87 15.6-24.51 24.65-52.55c5.55-17.17 8.86-31.71 8.44-48.86-.83-33.69-13.79-65.47-37.86-89.15q-24.48-24.08-57.37-30.09c-23.6-4.32-47.17 2.44-67.07 15.45-9.74 6.37-18.49 15.75-24.01 25.94q-7.39 13.66-9.76 24.79c-4.17 19.62 1.03 45.55 19.66 57.27 9.51 5.98 20.68 8.76 30.24 2.58 4.85-3.13 10.81-9.17 10.37-15.84-.29-4.3-4.87-5.41-8.58-7.3-5.96-3.04-10.95-8.25-13.71-14.07q-9.43-19.93 3.69-38.09 8.91-12.33 23.87-16.1a.32.31 82.9 0 1 .39.31q0 .25-.26.43c-7.76 5.15-16.75 12.57-20.16 21.26-5.33 13.59-4.47 27.89 7.54 37.28q4.46 3.49 10.53 3.39c5.78-.1 13.34-3.09 15.71-8.85a1.43 1.42 48.3 0 0 .05-.94q-.33-1.11-1.36-2.68c-2.6-3.93-4.15-5.83-4.96-9.67q-2.29-10.82 3.83-19c5.62-7.5 16.01-11.89 25.25-11.69 20.8.44 39.08 15.76 51.26 31.67 15.18 19.83 21.05 48.09 17.05 72.96q-2 12.41-8.52 31.86-5.97 17.82-13.74 32.35-6.74 12.6-19.57 31.2c-2.83 4.1-5.46 6.77-9.3 10.77a.08.08 0 0 1-.12-.09c2.06-3.65 4.88-7.16 7.55-11.26 12-18.44 21.04-38.92 27.52-59.04q3.96-12.29 6.77-28.99 3.7-22.01-1.45-42.51c-4.77-18.94-12.65-35.91-28.13-48.18-14.23-11.27-30.64-14.89-45.55-2.81q-3.23 2.62-5.13 6.08c-1.68 3.07-4.33 11.46 1.71 11.38 9.69-.12 14.37-.67 22.46 2.46q4.87 1.88 9.74 6.36 14.26 13.1 18.35 32.63 3.03 14.53 1.95 28.89-.26 3.46-.99 13.01a.6.6 0 0 1-1.12.24q-6.51-11.92-14.59-20.1c-7.53-7.64-17.32-10.51-27.65-8.18-10.1 2.28-21.38 9.37-28.37 16.47-4.99 5.06-9.87 13.74-7.6 21.03 1.19 3.84 6.46 7.68 8.62 10.85 5.76 8.45 8.43 16.95 9.25 26.77q2.09 25.08-10.07 47.57c-8.06 14.91-18.59 27.05-33.09 37.15q-1.22.85-2.1.79a.5.5 0 0 1-.31-.86c16.97-16.37 27.97-38.62 26.46-62.61-.91-14.42-7.89-30.85-22.78-35.62q-10.37-3.32-18.03 4.54-4.23 4.34-1.11 9.41c3.99 6.48 6.11 9.76 7.75 17.02q5.26 23.33-3.7 44.51-4.45 10.51-10.53 17.23c-3.55 3.93-11.1 9.11-17.32 10q-5.6.81-6.83.63c-9.17-1.32-17.3-7.54-22.84-14.73-9.83-12.78-14.56-30.73-11.28-46.41 2.23-10.67 5.23-18.13 10.61-25.51 3.27-4.47 3.36-8.65-.23-12.65-6.73-7.49-15.79-6.77-24.23-1.92-13.74 7.89-19.64 25.13-19.09 40.44q1 27.63 18.8 47.99 2.9 3.32 7.22 7.77a.31.31 0 0 1-.38.49q-11.75-7.08-20.8-17.96-7.23-8.68-10.74-14.33c-13.8-22.17-17.87-52.72-3.89-75.8q2.47-4.06 5.21-6.33 4.3-3.56 4.8-4.04c6.85-6.57-1.15-19.03-6.27-24.28q-11.83-12.16-29.92-17.56-8.16-2.44-16.59.85c-12.13 4.73-19.98 13.82-25.2 25.21a.63.63 0 0 1-1.2-.21q-.57-7.12-.72-14.07c-.41-19.93 6.34-48.37 24.59-59.61 6.37-3.93 13.6-6.4 20.94-5.9q.6.04 6.14.45a1.4 1.39 10.3 0 0 1.44-.99c3.57-11.76-6.17-23.14-17.29-24.85q-6.65-1.02-15.97 2.7-14.91 5.94-25.38 18.69c-20.3 24.74-26.9 57.63-21.01 89q2.95 15.74 5.58 23.23 4.24 12.05 11.05 27.34c4.61 10.37 10.99 20.79 16.93 28.69q7.97 10.6 12.19 16.65a.12.12 0 0 1-.19.15" vector-effect="non-scaling-stroke"/><path d="M1104.12 507.4c2.85-2.54 5.54-4.75 6.93-7.38 9.84-18.75-5.14-40.73-21.17-49.82-13.14-7.45-26.6-7.92-36.43 4.42a.42.41 59.4 0 1-.73-.19q-1.46-8.65-6.81-16.84-9.88-15.15-28.88-13.71-10.83.82-16.65 11.28-.57 1.03-.01 3.01a1.62 1.61 12.8 0 0 .5.79q2.24 1.92 2.82 3.34 1.89 4.62 2.63 9.64c3.1 21.07-1.55 41.09-9.53 61.6-6.75 17.35-15.66 32.67-24.87 47.9q-12.64 20.9-29.36 41.36-19.8 24.22-40.16 43.35-15.26 14.33-25.42 23.57-13.98 12.71-28.09 21.85-3.38 2.19-2.54 6.02.38 1.75 3.32 3.97c4.45 3.38 8.47 8.27 11.71 11.5a2.8 2.8 0 0 0 3.64.28q1.54-1.12 4.11-4.21 1.2-1.44 12.8-16.45c9.8-12.68 24.54-27.67 33.11-36.64q19.52-20.44 45-41.18c20.71-16.86 43.46-30.97 67.16-43.41 20.1-10.56 43.84-18.17 66.8-19.08q7.52-.3 17.44 1.25 4.29.66 8.08 2.87a1.76 1.74-.5 0 1 .61.59l1.31 2.19a3.35 3.34 69.8 0 0 3.41 1.58q4.34-.72 7.11-4.43 9.26-12.39 3.34-27.04c-4.73-11.68-17.82-21.29-30.94-21.35a.36.36 0 0 1-.24-.63m-602.37-50.27a.32.32 0 0 1-.59.14c-8.55-13.66-22.44-12.96-35.55-5.62q-13.15 7.38-21.13 20.79c-4.15 6.98-6.57 12.55-5.89 20.31q.92 10.69 9.99 16.55a.5.49-31.6 0 1-.22.91q-13.45 1.41-22.16 11.21c-10.24 11.53-13.06 25.74-2.44 38.23q2.02 2.36 5.37 2.32a1.41 1.41 0 0 0 1.26-.85q1.69-3.98 6.27-5.22c9.5-2.56 19.24-3.19 29.51-2.19q22.84 2.23 44.04 11.6 46.35 20.46 84.99 52.23 13.14 10.82 32.74 29.79c20.28 19.63 39.73 40 54.91 63.81 1.21 1.92 4.65 5.9 7.34 4.93q1.79-.64 2.52-1.67 4.55-6.42 11.34-11.95 2.02-1.65 1.94-4.33-.06-1.66-2.77-3.74-4-3.06-13.99-10.62-43.24-32.73-77.47-73.24-30.28-35.85-50.64-78.37c-10.92-22.81-17.22-46.82-16.9-72.15q.06-5.07 1.33-10.95c1.12-5.18 3.2-7.11 6.91-10.27a2.65 2.65 0 0 0 .42-3.58c-7.48-10.28-18.63-11.86-30.09-6.95-11.41 4.89-19.94 16.04-21.04 28.88" vector-effect="non-scaling-stroke"/><path d="M948.78 917.84q.12 0 .26.12 5.32 4.18 17.94 13.12c9.21 6.52 18.82 11.6 27.99 15.96q33.11 15.75 69.78 16.64 13.62.33 27.94-3.71c19.77-5.58 35.38-14.32 48.46-29.35q6.11-7.02 9.69-18.71 5.56-18.16-8.41-28.41c-3.34-2.46-14.28-6.04-14.59 1.6q-.31 7.38-.74 10.47c-3.63 26.03-34.09 37.38-56.24 39.47-7.81.74-17.13-.1-24.71-1.04a.4.4 0 0 1-.11-.76c14.12-6.31 29.47-20.42 27.32-37.62q-2.64-21.08-18.64-35.06c-4.61-4.02-12.91-8.61-19.27-8.39a3.22 3.22 0 0 0-2.65 1.56q-2.24 3.72-5.11 6.43c-15.18 14.32-39.05 16.62-58.55 11.21q-15.31-4.24-27.56-12.43-17.16-11.48-30.16-30.6a.71.71 0 0 1 .02-.82l.01-.02a.4.39-47.6 0 1 .61-.03c14.05 15.52 32.87 26.61 53.73 28.44q16.7 1.45 31.62-7.32c11.68-6.88 21.5-22.33 11.98-34.43q-2.18-2.78-4.93-4.4-2.77-1.62-6.29.36c-2.82 1.59-6.13 4.49-9.26 6.1-20.41 10.53-44.04 9.56-63.15-3.24-9.31-6.23-16.3-16.59-17.39-27.63-.97-9.85 7.6-20.36 15.18-25.55 19.27-13.2 43.66-15.91 65.52-7.03 2.96 1.2 5.53 3.03 8.22 4.68 8.32 5.08 14.79-5.81 15.18-12.53.38-6.66-3.81-14.8-8.84-19.01-10.58-8.84-24.76-11.81-38.38-10.41-20.38 2.11-36.65 12.1-51.04 26.47a.46.46 0 0 1-.77-.46q.41-1.42 2-3.58c7.2-9.81 14.69-16.97 24.57-24.27q8.46-6.25 15.48-9.49 19.07-8.79 40.27-7.73 9.75.48 16.19 2.94c5.36 2.04 11.6 4.7 15.35 8.31 5.71 5.48 9.52 10.4 17.24 7.33 15.69-6.24 25.81-23.49 28.41-39.48q2.25-13.88-8.04-24.33-8.07-8.21-18.29-14.84-.3-.19-.27-.53.03-.5.54-.47c3.1.2 5.74.42 9.15-.02 5.29-.69 10.31-1.61 15.29-1.34q16.6.92 31.37 7.56c8.26 3.71 16.6 10.03 21.19 17.02 5.43 8.26 5.5 16.85 4.24 26.41-.6 4.59 3.33 5.46 6.91 5.23q6.12-.38 10.82-4.67c8.35-7.61 9.61-18 7.12-29.08-3.76-16.69-19.64-31.42-34.24-38.98q-13.76-7.13-30.8-10.06c-22.52-3.88-46.75 1.3-69.37 9.37q-24.56 8.76-41.08 18.16-3.9 2.22-22.65 14.6a.17.16-34.2 0 1-.22-.04.17.17 0 0 1 .02-.24q7.69-6.88 13-10.64c4.8-3.4 11.09-8.03 15.93-11.05 19.76-12.36 43.4-22.27 66.79-27.13q19.49-4.06 34.53-2.52 13.75 1.41 26.17 5.79c20.62 7.27 36.94 22.1 47.34 41.09 5.69 10.39 8.47 25.31 3.01 36.05-5.83 11.46-17.55 17.66-30.37 14.32a8.97 8.95 66.5 0 1-1.95-.77c-3.69-2-8.17-6.71-12.83-2.13-6.46 6.35-6.53 16.81-1.33 24q4.36 6.03 12.31 8.17c14.79 4 28.23-.63 38.99-10.98q4.94-4.74 7.26-9.95a.27.27 0 0 1 .52.12c-.16 5.98-5.39 12.94-9.71 18.01-9.49 11.13-22.22 15.55-36.84 11.86q-9.09-2.28-15.79-8.19c-4.23-3.73-5.94-8.91-8.3-13.68q-1.01-2.03-2.74-2.47c-9.23-2.35-16.63 6.64-20.01 14.33-4.49 10.22-.06 21.31 6.87 29.29 9.71 11.18 24.34 16.75 39.07 17.24q23.65.8 43.59-12.11c10.25-6.64 19.45-17.32 25.51-28.02 8.46-14.95 14.78-32.28 14.17-49.7-.9-25.42-10.61-46.56-27.52-65.26-27.36-30.24-66.96-45.21-107.31-41.19q-16.27 1.62-32.47 6.67c-11.61 3.62-24.97 8.56-36.04 14.57q-32.37 17.58-60.39 42.35-27.54 24.35-48.08 55.92c-16.03 24.63-25.87 53.36-26.31 83.21q-.27 17.85.46 26.52 2.79 33.29 17.35 63.67c8.98 18.73 22.96 36.91 37.95 51.62q18.59 18.25 31.02 27.95 10.98 8.56 16.18 12.07c27.61 18.61 58.74 31.9 91.86 36.03 11.16 1.39 23.76.54 33.92-.68 12.15-1.46 24.85-5.33 35.6-10.37q44.13-20.67 63.03-65.41c12.1-28.66 10.01-59.22-8.24-84.26-20.23-27.76-57.89-44.04-90.33-27.79q-14.52 7.28-19.82 21.62c-4.68 12.66-2.07 28.05 10.72 34.57q4.13 2.1 8.02-.14 1.64-.94 3.95-6.65 1.77-4.35 3.59-7.02c8.3-12.21 25.39-16.08 38.61-11.57 11.83 4.03 20.71 15.44 24.7 27.52a.44.44 0 0 1-.77.4q-.76-1.04-3.57-4.97-12.12-16.99-33.42-15.84c-9.86.53-18.85 5.3-21.95 14.7q-3.7 11.17 4.62 20.87c3.17 3.7 7.46-.93 10.25-2.86 10.85-7.52 23.77-1.42 31.42 7.66 4.13 4.91 5.75 13.44 4.84 19.34q-2.9 18.68-13.76 32.36c-8.79 11.07-23.09 21.98-36.49 27.88q-11.22 4.93-26.69 6.82-26.77 3.26-51.15-3.18c-21.07-5.57-41.81-15.32-59.49-28.47q-16.94-12.6-25.4-20.88a.09.09 0 0 1 .06-.16M593.25 644.55q-17.92-12.58-37.2-22.07c-46.14-22.7-105.61-27.15-143.88 12.91-5.85 6.13-9.96 12.9-12.18 20.59-2.01 6.99-2.78 14.79.51 21.23 3.36 6.56 9.85 11.22 17.27 11.85 3.68.31 6.01-.96 5.95-4.82-.1-5.97-.18-10.51 1.36-15.68q5.39-17.99 23.12-26.41c13.59-6.45 28.45-8.68 43.54-7.43q8.27.68 11.69.36a.44.44 0 0 1 .42.66q-.24.42-.56.56c-12.78 5.86-23.23 16.24-26.5 30.07-2.38 10.07 1.52 19.22 6.98 28.06 5.63 9.11 15.34 20.03 25.77 22.5 4.13.98 6.91-.28 9.92-3.7 4.67-5.29 8-9.65 13-11.8 37.94-16.28 75.39 3.13 100.48 32.13q2.84 3.28 4.75 7.65a.2.19 11.5 0 1-.32.21c-19.34-20.05-46.32-34.3-74.72-25.21-11.08 3.55-23.59 12.44-25.42 24.37-.94 6.2 2 15.2 8.22 18.1 4.69 2.18 8.18-.49 12.27-3.2q8.33-5.53 18.63-7.91 28.57-6.61 51.24 10.6 11.69 8.88 14.05 23.13c1.01 6.09-2.28 12.88-5.5 18.01q-3.52 5.62-8.76 9.45c-12.44 9.09-28.02 13.65-43.4 12.68q-8.19-.51-17.54-3.05-4.99-1.35-12.91-6.58c-3.24-2.14-6.33-3.05-9.23-.34q-3.4 3.2-5.24 7.26c-3.65 8.08 1.92 19.26 7.88 24.16 14.09 11.57 35.01 13.94 52.1 8.56q15.42-4.85 28.42-15.51 3.06-2.51 10.29-9.07a.37.37 0 0 1 .62.26q.01.38-.3.95-2.68 4.85-6.95 9.29-7.59 7.89-13.93 13.3-10.14 8.65-24.29 14.94-21.98 9.76-45.66 6.39c-8.88-1.26-19.34-5.36-25.89-12.61-2.79-3.09-4.72-6.25-8.23-6.27q-7.83-.05-14.49 4.77c-13.21 9.56-21.19 26.98-20.57 43.15.25 6.55 4.6 13.15 9.38 17.76q8.75 8.42 18.17 13.77a.43.43 0 0 1-.17.8c-14.78 1.35-28.67 1.42-43.51-2.05q-11.92-2.78-23.64-10.6c-10.22-6.82-15.49-16.27-15.08-28.22.23-6.35 1.99-15.03-7.37-13.29-22.39 4.16-20.62 31.6-11.08 45.87 15.63 23.42 42.33 35.57 70.08 36.22 32.08.75 64.9-9.43 93.23-24.5q9.48-5.04 18.6-11.52c1.78-1.27 4.72-2.91 6.44-3.86a.24.23-80.7 0 1 .27.38c-17.09 15.52-38.5 27.19-60.26 36.01q-21.75 8.82-50.17 11.68c-22.7 2.28-44.02-4.93-62.51-16.87q-16.49-10.64-27.12-28.33-7.91-13.15-5.15-29.54c1.17-7 5.61-14.5 11.06-18.69q9.18-7.06 19.99-3.64 2.04.64 7.41 4.41c1.58 1.12 3.12 1.75 4.88 1.08 9.16-3.49 10.8-14.88 6.97-22.82q-2.18-4.52-7.71-7.88-12.94-7.88-28-3.17c-11.11 3.47-18.61 11.31-24.98 20.57a.42.41 70.3 0 1-.74-.35c3.43-12.12 12.97-22.19 24.25-27.31 16.49-7.48 30.71-2.6 41.46 10.77 1.85 2.31 2.86 5.54 3.94 8.6.79 2.22 1.71 2.76 3.83 3.16 5.11.96 9.3-.84 13.06-4.76q10.54-10.96 5.29-26.59-2.77-8.22-8.15-13.71c-16.81-17.13-40.38-19.42-62.62-11.78q-26.48 9.1-41.03 32.44c-9.9 15.89-15.71 32.62-15.22 51.72.74 28.49 13.39 53.99 34.08 73.21 3.05 2.84 8.19 8.06 12.87 11.22q27.32 18.49 60.98 22.2c40.83 4.5 83.28-11.68 116.65-33.75q19.66-13 27.5-19.52 10.43-8.67 16.01-13.71 15.19-13.72 29.53-31c26.45-31.89 41.06-70.32 40.81-111.94q-.12-19.97-4.21-40.09-3.28-16.09-12.12-34.36-17.72-36.62-46.61-63.9-21.15-19.97-46.56-36.46c-23.98-15.55-48.14-26.23-76.54-32.2q-50.67-10.64-93.74 16c-22.81 14.12-38.19 33.7-48.6 58.43q-7.2 17.11-7.95 32.33c-1.29 26.13 9.02 49 28.27 66.5q14.84 13.48 33.83 17.97c27.28 6.46 65.02-4.11 64.59-38.44q-.17-13.03-10.65-20.04c-3.38-2.26-6.04-3.26-9.93-1.14q-1.53.84-2.36 3.81c-2.17 7.81-6.47 14.31-13.75 18.14q-12.75 6.72-26.31 3.47c-12.98-3.12-22.93-14.38-27.96-26.66q-.29-.69-.23-.92a.53.53 0 0 1 .93-.22c6.15 7.42 11.86 13.51 20.72 17.07 13.03 5.25 27.25 3.75 36.15-8.28 5.05-6.83 3.45-15.63-.44-22.54q-1.34-2.39-3.02-3.58a1.11 1.1-41.7 0 0-1.19-.06q-2.75 1.61-9.05 5.43c-8.38 5.08-19.41 1.16-26.78-4.87q-8.76-7.17-8.9-18.94c-.17-15.23 7.16-29.02 17.5-40.32 13.08-14.28 29.26-23.91 47.95-29.29q9.99-2.87 23.61-2.96c13.88-.09 26.16.99 39.48 4.71 20.22 5.67 39.8 14.11 56.79 26.15 7.57 5.36 13.97 9.55 20.27 16.02a.18.18 0 0 1-.23.28m131.14 86.5c-14.96 14.7-22.99 34.51-22.72 54.94q.41 31.28 19.95 51.17t50.8 20.86c20.42.63 40.37-7.05 55.34-21.74 14.96-14.7 22.99-34.51 22.72-54.94q-.41-31.28-19.95-51.17t-50.8-20.86c-20.42-.63-40.37 7.05-55.34 21.74" vector-effect="non-scaling-stroke"/><path d="M1050.5 1111.36q2.68 2.61 4.05 3.84c8.91 7.99 20.51 7.26 30.93 1.91q8.54-4.38 12.84-8.78c5.83-5.97 11.42-12.51 13.63-20.34 3.13-11.08.95-22.52-8.95-29.4a.37.36-30.2 0 1 .18-.66q12.9-1.32 21.8-10.71c10.78-11.37 12.73-27.88 1.08-39.52q-1.8-1.8-4.71-.65a1.99 1.77 9.1 0 0-.61.39c-2.58 2.49-4.7 4.76-8.67 5.9q-5.24 1.5-9.39 1.79c-26.05 1.83-50.7-5.05-74.06-16.03q-27.94-13.13-50.72-29.25-23.93-16.92-38.54-30.35c-21.57-19.83-42.1-40.74-60.18-64.17q-3.09-4.01-9.08-12.44-3.95-5.56-6.47-7.85-2.99-2.69-5.68.4c-3.37 3.87-6.46 6.96-10.16 9.85-3.22 2.52-6.9 6.49-1.77 9.77q21.57 13.82 38.5 29.5 17.75 16.43 40.23 40.44 18.98 20.26 31.19 37.56 14.43 20.43 27.25 44.53c14.01 26.35 25.06 53.06 22.93 83.68q-.66 9.45-3.9 15.36a3.74 3.72-5.9 0 1-.89 1.09l-3.35 2.82a1.31 1.3-24 0 0-.45 1.16c.65 4.76 6.69 8.17 10.95 9.8 6.13 2.33 14.61 1.19 20.46-1.55q17.71-8.27 20.93-27.88a.38.37-63.1 0 1 .63-.21m-603.77-50.43a.35.35 0 0 1 .2.61q-9 8.26-8.82 19.16c.35 20.32 22.97 42.64 43.62 41.77 6.29-.26 13.29-3.55 15.9-9.62a.46.46 0 0 1 .88.14c1.64 16.46 16.98 32.25 33.94 32.28q10.66.02 17.05-7.68 1.69-2.04 1.77-4.35c.08-2.11-1.77-3.8-2.72-5.29-2.86-4.5-3.59-13.02-3.73-17.96-.7-26.17 7.27-51.64 18.81-75.41q11.68-24.08 27.19-46.51 16.81-24.33 42.47-51.28 9.32-9.78 27.57-27.18 2.29-2.18 4.78-4.23c4.12-3.38 8.37-7.17 12.24-10.22q13.47-10.6 24.61-19.41c1.86-1.47 4.46-4.87 1.35-7.09-3.84-2.72-7.19-4.92-9.84-8.47q-.74-.98-3.8-4.75c-1.99-2.45-5.22-1.14-6.7 1.06q-19.99 29.6-43.46 52.53-20.07 19.6-34.27 31.98c-26.89 23.44-57.07 43.53-89.12 58.68q-27.55 13.02-58.4 14.95-7.07.44-16.67-.96-7.7-1.13-10.8-3.56c-3.07-2.41-5.48-2.62-7.87.06-8.69 9.76-9.07 25.55-1.45 36.08q9.35 12.93 25.27 14.67" vector-effect="non-scaling-stroke"/><path d="M913.69 962.31c7.3 8.64 12.9 16.7 20.2 28.08 11.99 18.68 20.21 40.11 25.18 61.41 9.62 41.27-3.34 86.15-39.1 110.42-9.92 6.73-23.69 12.03-35.45 8.94q-15.54-4.08-20.47-20c-1.68-5.45-.58-12.52 3.05-17.42q1.27-1.72 2.72-4.45 2.09-3.91-1.28-6.27-2.58-1.81-5.94-2.65-17.04-4.25-25.22 10.25c-7.75 13.74-2.85 30.78 8.23 41.03q4.39 4.06 9.14 8.36.37.34.14.74a.33.32 25.6 0 1-.41.14c-24.19-9.66-38.79-35.13-22.54-59.24 4.01-5.97 9.86-7.68 17.44-10.55a3.86 3.85-89.4 0 0 2.22-2.18c1.65-4.13 1.02-7.65-2.16-11.05q-5.33-5.69-10.2-7.33c-18.16-6.11-34.77 3.04-43.08 19.9-12.31 24.96-4.6 56.78 14 76.96q7.22 7.85 13.33 12.38c18.83 13.99 43.77 19.44 67.12 14.1 65.33-14.93 104.01-78.41 93.12-143.4q-4.2-25.06-12.79-44.26-15.03-33.61-38.74-63.2-10.13-12.65-18.64-21.59c-26.03-27.31-58.27-47.21-95.18-57.08q-17.17-4.59-35.88-4.81-22.49-.28-27.28.34-22.86 2.93-45.16 11.86c-12.96 5.19-26.7 13.7-37.59 21.22q-18.88 13.04-34.78 30.47-14.21 15.57-25.06 29.68c-17.27 22.45-31.37 47.75-40.11 75.46-13.69 43.43-8.54 88.8 18.92 125.44 5.23 6.98 12.89 14.87 18.72 19.8 15.21 12.89 33.78 20.65 53.61 23.63 12.25 1.84 23.46.36 35.5-2.96 24.04-6.62 43.39-22.07 53.87-44.88 5.73-12.46 8.65-26.65 7.05-40.43-1.86-16.06-11.57-31.61-26.82-37.79q-18.03-7.31-29.9 6.15-2.56 2.91-3.21 5.43c-.88 3.48-.51 9.19 3.86 10.52 11.36 3.48 18.47 12.02 21.14 23.74 4.59 20.1-9.81 38.98-28.56 44.74q-.52.16-1.2.15a.26.26 0 0 1-.13-.48q17.51-10.77 21.68-31.05c1.77-8.58-.49-17.68-6.16-24.46-6.79-8.13-18.64-8.28-26.89-2.22q-2.38 1.75-3.38 4.77a2.59 2.57 35.1 0 0 .43 2.4q2.28 2.89 4.28 6.05c6.17 9.71 2.29 22.3-6.48 28.99q-9.04 6.9-19.31 6.73c-12.04-.2-22.96-4.44-32.23-11.84-12.81-10.21-23.64-23.28-29.74-38.28-8.47-20.81-9.5-42.16-4.54-64.98q4.07-18.68 8.75-31.69 7.01-19.43 21.16-41.11 8.4-12.85 15.96-20.67a.23.23 0 0 1 .3-.02v.01a.24.24 0 0 1 .05.33q-11.83 16.74-15.4 23.28-19.17 35.11-24.4 74.12-1.31 9.78-.67 23.94c.57 12.83 4.05 25.52 9.37 37.09q5.34 11.59 16.47 23.05c9.67 9.94 22.4 16.61 36.41 15.75 11.59-.71 19.84-9.97 19-21.54a2.64 2.64 0 0 0-2.22-2.42q-4.24-.66-8.81-.64c-18.66.12-32.48-16.4-38.35-32.65-3.59-9.93-6.01-20.49-4.93-30.07q1.08-9.54 1.17-19.72a.45.45 0 0 1 .85-.21q5.11 9.44 13.04 17.43c6.12 6.17 13.7 10.42 22.7 10.75q6.64.24 15.03-3.99c11.52-5.81 20.99-12.29 26.86-23.62 1.79-3.45 2.62-9.05-.36-12.03-5.86-5.84-9.8-8.98-12.62-15.02q-4.3-9.23-5.07-19.5-1.95-26.06 11.8-50.27c7.89-13.88 19.49-28.13 33.28-36.83a.47.47 0 0 1 .6.72c-9.34 10.03-16.83 20.51-22.08 33.24q-3.43 8.32-4.11 20.4c-.94 16.99 2.66 34.7 18.31 43.1q11.88 6.38 21.93-2.41c5.26-4.6 1.45-9.15-1.22-13.56-3.99-6.57-6.12-13.95-7.07-22.72-2.01-18.6 2.65-35.33 13.46-49.58 3.97-5.24 11.95-9.85 18.16-12.06q7.49-2.66 14.78.82 9.43 4.52 13.89 9.73c6.42 7.5 10.9 16.02 13.07 26.29q5.55 26.35-9.23 48.72c-2.96 4.48-4.23 6.72-1.18 11.12 5.75 8.31 16.31 9.12 24.81 4.72q7.84-4.07 12.13-11.36 12.58-21.35 5.36-45.63c-4.44-14.95-12.43-27.33-22.87-38.58a.7.69 45.3 0 1 0-.95l.02-.03a.63.62-49.3 0 1 .83-.07c28.44 21.51 46.33 52.53 40.41 89.48-1.56 9.73-7.38 22.56-15.98 28.07-1.81 1.16-2.88 2.43-3.05 4.38-.65 7.37 4.75 16.03 9.9 20.86q6.81 6.39 19.12 12.65 5.94 3.02 14.14 3.93c16.26 1.8 31.21-12.8 36.62-27.12a.56.56 0 0 1 1.07.11c3.73 23.26.34 47.38-13.55 66.9-5.29 7.44-17.63 14.17-26.9 14.93q-2.65.22-9.33.04a2.53 2.52-82 0 0-2.52 1.9c-1.72 6.8 2.8 14.38 7.91 18.29q4.68 3.59 12.12 3.93c15.66.72 25.4-6.65 35.92-17.11 12.62-12.55 19.72-28.48 23.25-46.77q3.21-16.65 2.4-30.11c-1.05-17.67-4.22-33.59-10.84-50.82q-9.17-23.86-23.54-44.99-.05-.07-2.91-4.69-2.6-4.21-2.83-4.77a.17.17 0 0 1 .29-.18m-79.51-307.78c3.85-2.31 7.22-3.98 11.05-6.9 30.53-23.25 55.05-56.12 60.01-95.14 2.59-20.42-2.11-48.18-26.08-53.91a.38.37 72.1 0 0-.33.65c14.91 12.83 20.45 33.77 18.38 53.02q-1.65 15.43-5.82 26.43-2.68 7.08-7.95 17.52-15.8 31.33-42.58 52.92-3.06 2.47-6.96 5.05a.19.19 0 0 0-.06.26v.01a.26.25-29.2 0 0 .34.09m-121.72-.95q-9.04-7.16-12.57-10.23c-23.95-20.89-41.2-47.91-47.47-79.32-1.62-8.1-2.12-17.7-1.45-25.31 1.38-15.55 8.92-26.38 18.53-38.29a.82.75-61.4 0 0-.31-1.27q-.15-.05-.83.23c-22.47 9.1-27.07 33.8-24.46 55.17 3.32 27.16 16.09 51.7 34.85 71.44 9.91 10.43 20.84 21.08 33.59 27.75a.11.1-11 0 0 .12-.17" vector-effect="non-scaling-stroke"/><path d="M867.3 527.5q.33.69 2.95 5.25c4.69 8.16 4.9 17.25 4.52 26.59a.3.27-60.5 0 0 .04.18l.15.29a.49.48-53 0 0 .91-.13c2.24-11.71 1.11-24.58-8.21-32.45a.23.23 0 0 0-.36.27m-185.95-.14a.3.29-9.1 0 0-.47-.34c-9.2 9.31-10.68 21.77-9.07 34.1a.42.42 0 0 0 .43.35h.01a.44.43-89.7 0 0 .4-.41c.47-10.56.96-19.86 6.14-29.09q1.99-3.54 2.56-4.61m310.22 21.68q.78-.32 1.86-1.63.95-1.16 10.71-14.73 8.05-11.19 14.09-25.67c5.26-12.63 6.49-25.28 5.17-38.7-.64-6.5-2.58-12.16-5.53-17.39q-.31-.54-.83-.21-.28.18-.23.53 2.75 19.46-1.42 37.4-4.69 20.12-14.19 40.32-4.25 9.03-9.98 19.68a.28.28 0 0 0 .35.4m21.1 17.84c5.99-2.5 12.02-6.17 17.41-8.51 24.18-10.53 46.41-18.29 71.17-16.65q2.91.19 5.41.81a.5.49-14.2 0 0 .49-.81q-.39-.42-1.26-.86c-20.42-10.45-45.4-4.88-64.62 5.93q-2.97 1.67-8.95 5.34c-7.38 4.53-10.8 7.42-19.97 14.19a.33.32 15.4 0 0 .32.56m-453.25-16.4a.33.32-27.3 0 0 .15-.45q-9.27-16.39-16.23-35.11c-7.16-19.22-11.33-41.87-7.2-62.26a.43.43 0 0 0-.61-.47q-.13.06-.4.46c-13.38 20-6.34 50.86 4.71 70.36q6.02 10.61 18.97 27.34a.49.49 0 0 0 .59.14l.02-.01m-22.03 16.69a.48.48 0 0 0-.03-.7q-13.59-11.6-27.59-19.24c-18.05-9.85-44.14-15.44-63.64-5.63q-.97.49-1.54 1.14a.72.72 0 0 0 .68 1.18q7.38-1.47 13.47-1.25c6.57.25 14.89.97 22.9 2.71q30.65 6.65 55.26 22.03a.24.23-50.8 0 0 .28-.03l.21-.21m369.7 155.76q4.16-5 7.14-8.44c13.66-15.77 31.16-28.33 49.75-38.5q22.75-12.45 48.44-13.74 16.06-.81 26.36 2.98 12.38 4.55 21.25 15.61a.36.36 0 0 0 .64-.29q-2.45-14.11-14.44-20.71-8.78-4.83-17.04-5.73c-38.41-4.21-78.88 17.88-104.37 45.47q-3.5 3.8-12.3 14.57c-2.09 2.56-3.75 5.48-5.79 8.59a.16.16 0 0 0 .03.22l.01.01a.24.23 37.6 0 0 .32-.04" vector-effect="non-scaling-stroke"/><path d="M1031.87 691.81a.23.23 0 0 0 .26-.37c-8-9.03-20.75-9.84-32.28-7.36a.48.48 0 0 0-.1.91l.29.14a.3.27-30.9 0 0 .18.03c9.22-.59 18.22-.6 26.39 3.85q4.57 2.49 5.26 2.8m28.14 197.18a.6.6 0 0 0-1.06-.46c-11.96 15.25-27.77 21.18-47.15 20.24-25.11-1.21-46.75-10.62-67.53-24.16-11.82-7.69-22.34-17.41-31.59-28.64q-3.97-4.82-7.48-9.02-.03-.04-.08-.07.03.02.09.14 4.22 7.77 9.66 14.35c16.11 19.49 35.5 36.68 59.58 45.71 13.78 5.16 26.95 9.07 41.02 9.22q10.66.12 16.04-1.02c14.5-3.05 26.19-11.39 28.5-26.29" vector-effect="non-scaling-stroke"/><path d="M1032.32 878.05q-1.09.57-4.69 2.57c-9.38 5.22-18.81 5.67-29.52 6.1a.44.43 0 0 0-.42.41v.01a.43.42 6 0 0 .36.44c12.49 1.68 25.13.23 34.61-9.05a.3.3 0 0 0-.34-.48M647.34 723.83q-5.94-9.95-15.45-20.21-16.13-17.4-35.85-30.21-19.71-12.81-36.24-16.85-19.51-4.75-39.82-1.91-21.18 2.96-29.61 22.12a.84.82-73.7 0 0 .62 1.16q.49.07 1.17-.5c20.23-17.06 44.67-19.7 69.69-12.56q34.29 9.78 60.71 33.55 12.56 11.31 24.55 25.73a.12.12 0 0 0 .15.02l.01-.01a.25.24 57.4 0 0 .07-.33" vector-effect="non-scaling-stroke"/><path d="M533 682.94q-8.67 2.03-15.8 7.78a.25.25 0 0 0 .26.42c6.24-2.75 10.64-4.99 16-6.24 5.35-1.26 10.29-1.21 17.11-1.51a.25.25 0 0 0 .04-.5q-8.94-1.98-17.61.05m112.6 159.94q-7.72 11.07-13.85 18.14-10.08 11.64-26.94 22.77c-22.27 14.69-46.12 23.34-73.06 22.17-15.57-.68-30.01-5.37-39.63-17.94a.5.49-58.8 0 0-.88.22q-.12.7.02 1.25 4.24 16.62 21.4 21.99c15.51 4.85 31.54 3.48 47.19-.51q9.77-2.49 22.05-8.5 31.78-15.56 53.88-43.68 6.07-7.73 10.03-15.75a.15.14 28.5 0 0-.06-.19v-.01a.12.11-58.5 0 0-.15.04" vector-effect="non-scaling-stroke"/><path d="M520.05 877.53a.22.21 84.7 0 0-.26.32c6.98 9.06 18.99 10.65 30.05 9.03a.46.45-34.5 0 0 .16-.84l-.27-.16a.28.25-27 0 0-.17-.04c-8.76-.03-17.26-.6-24.71-5.33q-4.16-2.65-4.8-2.98m489.98 123.07a.31.31 0 0 0-.34.51q10.14 7.98 20.28 14.66c14.8 9.75 29.85 15.22 47.2 16.7 5.96.51 11.42-.57 17.24-1.82q6.67-1.43 12.9-5.78a.62.62 0 0 0-.48-1.11c-2.8.59-5.02 1.43-8.19 1.67q-15.85 1.16-28.93-1.62-20.44-4.35-42.45-14.28-5.59-2.52-8.62-4.31-1.88-1.1-8.61-4.62m-16.21 22.94a.56.56 0 0 0-.08.68q14.91 24.93 20.65 52.13c2.69 12.71 3.65 26.57.73 39.54a.52.52 0 0 0 .77.56q.29-.17.51-.52c9.78-16.03 8.21-33.61 2.49-51.56q-4.22-13.23-12.36-24.87-7.45-10.65-12.15-16.18a.22.21 45.9 0 0-.32-.01l-.24.23m-452.6-24.48q-1.08.2-2.46.91-2.85 1.46-13.93 7.31c-21.87 11.56-45.85 18.24-70.81 18.32-2.43.01-13.43-1.42-13.62-1.1a.37.36 31 0 0 .13.49q3.91 2.41 8.37 3.85c20.57 6.64 40.03 2.17 59.04-6.72q11.47-5.35 21.62-13.33 5.88-4.61 11.86-9.28a.25.25 0 0 0-.2-.45m19.63 19.28a.37.37 0 0 0-.61-.38q-1.88 1.97-2.9 3.37-4.43 6.09-7.28 9.92c-8.15 10.93-14.59 24.18-18.42 36.43q-3.52 11.26-3.73 24.12-.22 13.63 6 26.45a.62.62 0 0 0 1.17-.33q-2.98-30.4 7.38-59.49 5.43-15.26 12.72-29.78c1.65-3.3 4.67-7.65 5.67-10.31m150.24-101.86c-3.01 1.93-5.9 3.33-8.75 5.49q-16.46 12.46-28.25 28.36-6.39 8.64-8.36 11.63c-12.43 18.95-20.37 41.35-20.53 64.27-.12 16.78 6.89 40.03 26.82 42.03q.33.04.47-.17a.41.41 0 0 0-.11-.57q-7.75-5.23-12.45-13.78c-10.37-18.87-6.53-42.2-.59-61.82 5.49-18.13 13.69-32.24 25.04-48.39 5.32-7.57 12.48-14.4 18.66-20.24q2.9-2.73 8.33-6.5a.17.16 56.3 0 0 .04-.23v-.01a.24.23-31.6 0 0-.32-.07m128.24.41q4.69 3.81 5.25 4.27c24.94 20.52 43.8 48.8 51.66 80.6 3.68 14.9 3.77 30.11-.98 44.99-2.68 8.38-8.41 15.4-14.51 21.43a.52.52 0 0 0 .51.87c6.8-1.89 14.08-5.65 17.88-12.14 4.84-8.28 6.4-16.06 7.27-25.66 1.51-16.54-2.94-34.93-9.92-49.75q-9.56-20.28-24.07-36.93-15.92-18.26-33.02-28.08a.08.08 0 0 0-.11.03h-.01a.27.27 0 0 0 .05.37" vector-effect="non-scaling-stroke"/><path d="M868.7 1041.81a.29.28-9.9 0 0 .47.32c8.8-9.17 10.08-21.29 8.36-33.25a.41.4 83.4 0 0-.43-.34h-.01a.42.41 89.5 0 0-.39.41c-.31 10.26-.66 19.31-5.58 28.34q-1.88 3.47-2.42 4.52m-194.82-15.37q1.77 6.57 6.86 12.55.29.34.63.34a.37.36-14.7 0 0 .32-.54c-2.32-4.25-4.58-8.53-5.75-12.9-1.18-4.37-1.37-9.21-1.5-14.05a.37.36-15.4 0 0-.54-.31q-.3.18-.38.62-1.4 7.72.36 14.29" vector-effect="non-scaling-stroke"/></g><path d="M1563 0v1563H0V0zM643.79 613.81q-21.14-22.23-35.82-49.48c-10.53-19.54-15.84-38.49-19.09-60.66-4.85-33.03 7.13-65.33 30.86-88.43 10.46-10.19 26.21-17.77 40.76-17.36q7.92.22 12.85 3.36 6.91 4.4 10.94 12.41 3.53 7 1.48 16.18c-.8 3.59-3.73 7.69-5.82 11.65q-1.02 1.93.91 3.68c6.34 5.79 16.1 7.74 23.61 3.03 7.61-4.76 11.09-13.46 11.7-22.22.9-12.98-8.51-29.8-20.57-35.55a.68.68 0 0 1-.21-1.06q.05-.05.27-.07a.69.66 46.4 0 1 .2.01q2.81.59 7.86 3.48c16.5 9.45 24.69 25.57 19.68 44.34q-3.2 12-13.52 16.95-2.39 1.15-8.88 3.76-4.6 1.85-3.26 7.44 1.89 7.9 8.1 11.86c12.18 7.77 29.39 3.17 39.15-6 12.88-12.11 17.4-34.64 14.23-51.63q-4.87-26.11-26.68-45.52c-20.4-18.17-47.11-24.75-73.75-18.42-18.81 4.48-33.99 12.45-48.74 23.97-19.62 15.34-33.93 37.97-40.16 61.59q-3 11.36-4.2 19.11-2.15 13.78-.69 28.29c2.97 29.59 13.76 59.44 29.4 84.84 2.76 4.48 6.71 11.08 10.44 16.04 3.55 4.7 6.77 9.79 10.96 14.82q15.28 18.34 33.11 35.4 16.8 16.08 38.12 27.72c14.88 8.13 31.75 13.71 47.97 17.43 17.54 4.03 35.52 3.64 53.74 3.25 30.59-.67 61.46-13.32 86.55-30.43q11.58-7.9 25.18-21.11 14.12-13.71 22.82-23.7 16.13-18.51 30.36-40.87 15.6-24.51 24.65-52.55c5.55-17.17 8.86-31.71 8.44-48.86-.83-33.69-13.79-65.47-37.86-89.15q-24.48-24.08-57.37-30.09c-23.6-4.32-47.17 2.44-67.07 15.45-9.74 6.37-18.49 15.75-24.01 25.94q-7.39 13.66-9.76 24.79c-4.17 19.62 1.03 45.55 19.66 57.27 9.51 5.98 20.68 8.76 30.24 2.58 4.85-3.13 10.81-9.17 10.37-15.84-.29-4.3-4.87-5.41-8.58-7.3-5.96-3.04-10.95-8.25-13.71-14.07q-9.43-19.93 3.69-38.09 8.91-12.33 23.87-16.1a.32.31 82.9 0 1 .39.31q0 .25-.26.43c-7.76 5.15-16.75 12.57-20.16 21.26-5.33 13.59-4.47 27.89 7.54 37.28q4.46 3.49 10.53 3.39c5.78-.1 13.34-3.09 15.71-8.85a1.43 1.42 48.3 0 0 .05-.94q-.33-1.11-1.36-2.68c-2.6-3.93-4.15-5.83-4.96-9.67q-2.29-10.82 3.83-19c5.62-7.5 16.01-11.89 25.25-11.69 20.8.44 39.08 15.76 51.26 31.67 15.18 19.83 21.05 48.09 17.05 72.96q-2 12.41-8.52 31.86-5.97 17.82-13.74 32.35-6.74 12.6-19.57 31.2c-2.83 4.1-5.46 6.77-9.3 10.77a.08.08 0 0 1-.12-.09c2.06-3.65 4.88-7.16 7.55-11.26 12-18.44 21.04-38.92 27.52-59.04q3.96-12.29 6.77-28.99 3.7-22.01-1.45-42.51c-4.77-18.94-12.65-35.91-28.13-48.18-14.23-11.27-30.64-14.89-45.55-2.81q-3.23 2.62-5.13 6.08c-1.68 3.07-4.33 11.46 1.71 11.38 9.69-.12 14.37-.67 22.46 2.46q4.87 1.88 9.74 6.36 14.26 13.1 18.35 32.63 3.03 14.53 1.95 28.89-.26 3.46-.99 13.01a.6.6 0 0 1-1.12.24q-6.51-11.92-14.59-20.1c-7.53-7.64-17.32-10.51-27.65-8.18-10.1 2.28-21.38 9.37-28.37 16.47-4.99 5.06-9.87 13.74-7.6 21.03 1.19 3.84 6.46 7.68 8.62 10.85 5.76 8.45 8.43 16.95 9.25 26.77q2.09 25.08-10.07 47.57c-8.06 14.91-18.59 27.05-33.09 37.15q-1.22.85-2.1.79a.5.5 0 0 1-.31-.86c16.97-16.37 27.97-38.62 26.46-62.61-.91-14.42-7.89-30.85-22.78-35.62q-10.37-3.32-18.03 4.54-4.23 4.34-1.11 9.41c3.99 6.48 6.11 9.76 7.75 17.02q5.26 23.33-3.7 44.51-4.45 10.51-10.53 17.23c-3.55 3.93-11.1 9.11-17.32 10q-5.6.81-6.83.63c-9.17-1.32-17.3-7.54-22.84-14.73-9.83-12.78-14.56-30.73-11.28-46.41 2.23-10.67 5.23-18.13 10.61-25.51 3.27-4.47 3.36-8.65-.23-12.65-6.73-7.49-15.79-6.77-24.23-1.92-13.74 7.89-19.64 25.13-19.09 40.44q1 27.63 18.8 47.99 2.9 3.32 7.22 7.77a.31.31 0 0 1-.38.49q-11.75-7.08-20.8-17.96-7.23-8.68-10.74-14.33c-13.8-22.17-17.87-52.72-3.89-75.8q2.47-4.06 5.21-6.33 4.3-3.56 4.8-4.04c6.85-6.57-1.15-19.03-6.27-24.28q-11.83-12.16-29.92-17.56-8.16-2.44-16.59.85c-12.13 4.73-19.98 13.82-25.2 25.21a.63.63 0 0 1-1.2-.21q-.57-7.12-.72-14.07c-.41-19.93 6.34-48.37 24.59-59.61 6.37-3.93 13.6-6.4 20.94-5.9q.6.04 6.14.45a1.4 1.39 10.3 0 0 1.44-.99c3.57-11.76-6.17-23.14-17.29-24.85q-6.65-1.02-15.97 2.7-14.91 5.94-25.38 18.69c-20.3 24.74-26.9 57.63-21.01 89q2.95 15.74 5.58 23.23 4.24 12.05 11.05 27.34c4.61 10.37 10.99 20.79 16.93 28.69q7.97 10.6 12.19 16.65a.12.12 0 0 1-.19.15m460.33-106.41c2.85-2.54 5.54-4.75 6.93-7.38 9.84-18.75-5.14-40.73-21.17-49.82-13.14-7.45-26.6-7.92-36.43 4.42a.42.41 59.4 0 1-.73-.19q-1.46-8.65-6.81-16.84-9.88-15.15-28.88-13.71-10.83.82-16.65 11.28-.57 1.03-.01 3.01a1.62 1.61 12.8 0 0 .5.79q2.24 1.92 2.82 3.34 1.89 4.62 2.63 9.64c3.1 21.07-1.55 41.09-9.53 61.6-6.75 17.35-15.66 32.67-24.87 47.9q-12.64 20.9-29.36 41.36-19.8 24.22-40.16 43.35-15.26 14.33-25.42 23.57-13.98 12.71-28.09 21.85-3.38 2.19-2.54 6.02.38 1.75 3.32 3.97c4.45 3.38 8.47 8.27 11.71 11.5a2.8 2.8 0 0 0 3.64.28q1.54-1.12 4.11-4.21 1.2-1.44 12.8-16.45c9.8-12.68 24.54-27.67 33.11-36.64q19.52-20.44 45-41.18c20.71-16.86 43.46-30.97 67.16-43.41 20.1-10.56 43.84-18.17 66.8-19.08q7.52-.3 17.44 1.25 4.29.66 8.08 2.87a1.76 1.74-.5 0 1 .61.59l1.31 2.19a3.35 3.34 69.8 0 0 3.41 1.58q4.34-.72 7.11-4.43 9.26-12.39 3.34-27.04c-4.73-11.68-17.82-21.29-30.94-21.35a.36.36 0 0 1-.24-.63m-602.37-50.27a.32.32 0 0 1-.59.14c-8.55-13.66-22.44-12.96-35.55-5.62q-13.15 7.38-21.13 20.79c-4.15 6.98-6.57 12.55-5.89 20.31q.92 10.69 9.99 16.55a.5.49-31.6 0 1-.22.91q-13.45 1.41-22.16 11.21c-10.24 11.53-13.06 25.74-2.44 38.23q2.02 2.36 5.37 2.32a1.41 1.41 0 0 0 1.26-.85q1.69-3.98 6.27-5.22c9.5-2.56 19.24-3.19 29.51-2.19q22.84 2.23 44.04 11.6 46.35 20.46 84.99 52.23 13.14 10.82 32.74 29.79c20.28 19.63 39.73 40 54.91 63.81 1.21 1.92 4.65 5.9 7.34 4.93q1.79-.64 2.52-1.67 4.55-6.42 11.34-11.95 2.02-1.65 1.94-4.33-.06-1.66-2.77-3.74-4-3.06-13.99-10.62-43.24-32.73-77.47-73.24-30.28-35.85-50.64-78.37c-10.92-22.81-17.22-46.82-16.9-72.15q.06-5.07 1.33-10.95c1.12-5.18 3.2-7.11 6.91-10.27a2.65 2.65 0 0 0 .42-3.58c-7.48-10.28-18.63-11.86-30.09-6.95-11.41 4.89-19.94 16.04-21.04 28.88m447.03 460.71q.12 0 .26.12 5.32 4.18 17.94 13.12c9.21 6.52 18.82 11.6 27.99 15.96q33.11 15.75 69.78 16.64 13.62.33 27.94-3.71c19.77-5.58 35.38-14.32 48.46-29.35q6.11-7.02 9.69-18.71 5.56-18.16-8.41-28.41c-3.34-2.46-14.28-6.04-14.59 1.6q-.31 7.38-.74 10.47c-3.63 26.03-34.09 37.38-56.24 39.47-7.81.74-17.13-.1-24.71-1.04a.4.4 0 0 1-.11-.76c14.12-6.31 29.47-20.42 27.32-37.62q-2.64-21.08-18.64-35.06c-4.61-4.02-12.91-8.61-19.27-8.39a3.22 3.22 0 0 0-2.65 1.56q-2.24 3.72-5.11 6.43c-15.18 14.32-39.05 16.62-58.55 11.21q-15.31-4.24-27.56-12.43-17.16-11.48-30.16-30.6a.71.71 0 0 1 .02-.82l.01-.02a.4.39-47.6 0 1 .61-.03c14.05 15.52 32.87 26.61 53.73 28.44q16.7 1.45 31.62-7.32c11.68-6.88 21.5-22.33 11.98-34.43q-2.18-2.78-4.93-4.4-2.77-1.62-6.29.36c-2.82 1.59-6.13 4.49-9.26 6.1-20.41 10.53-44.04 9.56-63.15-3.24-9.31-6.23-16.3-16.59-17.39-27.63-.97-9.85 7.6-20.36 15.18-25.55 19.27-13.2 43.66-15.91 65.52-7.03 2.96 1.2 5.53 3.03 8.22 4.68 8.32 5.08 14.79-5.81 15.18-12.53.38-6.66-3.81-14.8-8.84-19.01-10.58-8.84-24.76-11.81-38.38-10.41-20.38 2.11-36.65 12.1-51.04 26.47a.46.46 0 0 1-.77-.46q.41-1.42 2-3.58c7.2-9.81 14.69-16.97 24.57-24.27q8.46-6.25 15.48-9.49 19.07-8.79 40.27-7.73 9.75.48 16.19 2.94c5.36 2.04 11.6 4.7 15.35 8.31 5.71 5.48 9.52 10.4 17.24 7.33 15.69-6.24 25.81-23.49 28.41-39.48q2.25-13.88-8.04-24.33-8.07-8.21-18.29-14.84-.3-.19-.27-.53.03-.5.54-.47c3.1.2 5.74.42 9.15-.02 5.29-.69 10.31-1.61 15.29-1.34q16.6.92 31.37 7.56c8.26 3.71 16.6 10.03 21.19 17.02 5.43 8.26 5.5 16.85 4.24 26.41-.6 4.59 3.33 5.46 6.91 5.23q6.12-.38 10.82-4.67c8.35-7.61 9.61-18 7.12-29.08-3.76-16.69-19.64-31.42-34.24-38.98q-13.76-7.13-30.8-10.06c-22.52-3.88-46.75 1.3-69.37 9.37q-24.56 8.76-41.08 18.16-3.9 2.22-22.65 14.6a.17.16-34.2 0 1-.22-.04.17.17 0 0 1 .02-.24q7.69-6.88 13-10.64c4.8-3.4 11.09-8.03 15.93-11.05 19.76-12.36 43.4-22.27 66.79-27.13q19.49-4.06 34.53-2.52 13.75 1.41 26.17 5.79c20.62 7.27 36.94 22.1 47.34 41.09 5.69 10.39 8.47 25.31 3.01 36.05-5.83 11.46-17.55 17.66-30.37 14.32a8.97 8.95 66.5 0 1-1.95-.77c-3.69-2-8.17-6.71-12.83-2.13-6.46 6.35-6.53 16.81-1.33 24q4.36 6.03 12.31 8.17c14.79 4 28.23-.63 38.99-10.98q4.94-4.74 7.26-9.95a.27.27 0 0 1 .52.12c-.16 5.98-5.39 12.94-9.71 18.01-9.49 11.13-22.22 15.55-36.84 11.86q-9.09-2.28-15.79-8.19c-4.23-3.73-5.94-8.91-8.3-13.68q-1.01-2.03-2.74-2.47c-9.23-2.35-16.63 6.64-20.01 14.33-4.49 10.22-.06 21.31 6.87 29.29 9.71 11.18 24.34 16.75 39.07 17.24q23.65.8 43.59-12.11c10.25-6.64 19.45-17.32 25.51-28.02 8.46-14.95 14.78-32.28 14.17-49.7-.9-25.42-10.61-46.56-27.52-65.26-27.36-30.24-66.96-45.21-107.31-41.19q-16.27 1.62-32.47 6.67c-11.61 3.62-24.97 8.56-36.04 14.57q-32.37 17.58-60.39 42.35-27.54 24.35-48.08 55.92c-16.03 24.63-25.87 53.36-26.31 83.21q-.27 17.85.46 26.52 2.79 33.29 17.35 63.67c8.98 18.73 22.96 36.91 37.95 51.62q18.59 18.25 31.02 27.95 10.98 8.56 16.18 12.07c27.61 18.61 58.74 31.9 91.86 36.03 11.16 1.39 23.76.54 33.92-.68 12.15-1.46 24.85-5.33 35.6-10.37q44.13-20.67 63.03-65.41c12.1-28.66 10.01-59.22-8.24-84.26-20.23-27.76-57.89-44.04-90.33-27.79q-14.52 7.28-19.82 21.62c-4.68 12.66-2.07 28.05 10.72 34.57q4.13 2.1 8.02-.14 1.64-.94 3.95-6.65 1.77-4.35 3.59-7.02c8.3-12.21 25.39-16.08 38.61-11.57 11.83 4.03 20.71 15.44 24.7 27.52a.44.44 0 0 1-.77.4q-.76-1.04-3.57-4.97-12.12-16.99-33.42-15.84c-9.86.53-18.85 5.3-21.95 14.7q-3.7 11.17 4.62 20.87c3.17 3.7 7.46-.93 10.25-2.86 10.85-7.52 23.77-1.42 31.42 7.66 4.13 4.91 5.75 13.44 4.84 19.34q-2.9 18.68-13.76 32.36c-8.79 11.07-23.09 21.98-36.49 27.88q-11.22 4.93-26.69 6.82-26.77 3.26-51.15-3.18c-21.07-5.57-41.81-15.32-59.49-28.47q-16.94-12.6-25.4-20.88a.09.09 0 0 1 .06-.16M593.25 644.55q-17.92-12.58-37.2-22.07c-46.14-22.7-105.61-27.15-143.88 12.91-5.85 6.13-9.96 12.9-12.18 20.59-2.01 6.99-2.78 14.79.51 21.23 3.36 6.56 9.85 11.22 17.27 11.85 3.68.31 6.01-.96 5.95-4.82-.1-5.97-.18-10.51 1.36-15.68q5.39-17.99 23.12-26.41c13.59-6.45 28.45-8.68 43.54-7.43q8.27.68 11.69.36a.44.44 0 0 1 .42.66q-.24.42-.56.56c-12.78 5.86-23.23 16.24-26.5 30.07-2.38 10.07 1.52 19.22 6.98 28.06 5.63 9.11 15.34 20.03 25.77 22.5 4.13.98 6.91-.28 9.92-3.7 4.67-5.29 8-9.65 13-11.8 37.94-16.28 75.39 3.13 100.48 32.13q2.84 3.28 4.75 7.65a.2.19 11.5 0 1-.32.21c-19.34-20.05-46.32-34.3-74.72-25.21-11.08 3.55-23.59 12.44-25.42 24.37-.94 6.2 2 15.2 8.22 18.1 4.69 2.18 8.18-.49 12.27-3.2q8.33-5.53 18.63-7.91 28.57-6.61 51.24 10.6 11.69 8.88 14.05 23.13c1.01 6.09-2.28 12.88-5.5 18.01q-3.52 5.62-8.76 9.45c-12.44 9.09-28.02 13.65-43.4 12.68q-8.19-.51-17.54-3.05-4.99-1.35-12.91-6.58c-3.24-2.14-6.33-3.05-9.23-.34q-3.4 3.2-5.24 7.26c-3.65 8.08 1.92 19.26 7.88 24.16 14.09 11.57 35.01 13.94 52.1 8.56q15.42-4.85 28.42-15.51 3.06-2.51 10.29-9.07a.37.37 0 0 1 .62.26q.01.38-.3.95-2.68 4.85-6.95 9.29-7.59 7.89-13.93 13.3-10.14 8.65-24.29 14.94-21.98 9.76-45.66 6.39c-8.88-1.26-19.34-5.36-25.89-12.61-2.79-3.09-4.72-6.25-8.23-6.27q-7.83-.05-14.49 4.77c-13.21 9.56-21.19 26.98-20.57 43.15.25 6.55 4.6 13.15 9.38 17.76q8.75 8.42 18.17 13.77a.43.43 0 0 1-.17.8c-14.78 1.35-28.67 1.42-43.51-2.05q-11.92-2.78-23.64-10.6c-10.22-6.82-15.49-16.27-15.08-28.22.23-6.35 1.99-15.03-7.37-13.29-22.39 4.16-20.62 31.6-11.08 45.87 15.63 23.42 42.33 35.57 70.08 36.22 32.08.75 64.9-9.43 93.23-24.5q9.48-5.04 18.6-11.52c1.78-1.27 4.72-2.91 6.44-3.86a.24.23-80.7 0 1 .27.38c-17.09 15.52-38.5 27.19-60.26 36.01q-21.75 8.82-50.17 11.68c-22.7 2.28-44.02-4.93-62.51-16.87q-16.49-10.64-27.12-28.33-7.91-13.15-5.15-29.54c1.17-7 5.61-14.5 11.06-18.69q9.18-7.06 19.99-3.64 2.04.64 7.41 4.41c1.58 1.12 3.12 1.75 4.88 1.08 9.16-3.49 10.8-14.88 6.97-22.82q-2.18-4.52-7.71-7.88-12.94-7.88-28-3.17c-11.11 3.47-18.61 11.31-24.98 20.57a.42.41 70.3 0 1-.74-.35c3.43-12.12 12.97-22.19 24.25-27.31 16.49-7.48 30.71-2.6 41.46 10.77 1.85 2.31 2.86 5.54 3.94 8.6.79 2.22 1.71 2.76 3.83 3.16 5.11.96 9.3-.84 13.06-4.76q10.54-10.96 5.29-26.59-2.77-8.22-8.15-13.71c-16.81-17.13-40.38-19.42-62.62-11.78q-26.48 9.1-41.03 32.44c-9.9 15.89-15.71 32.62-15.22 51.72.74 28.49 13.39 53.99 34.08 73.21 3.05 2.84 8.19 8.06 12.87 11.22q27.32 18.49 60.98 22.2c40.83 4.5 83.28-11.68 116.65-33.75q19.66-13 27.5-19.52 10.43-8.67 16.01-13.71 15.19-13.72 29.53-31c26.45-31.89 41.06-70.32 40.81-111.94q-.12-19.97-4.21-40.09-3.28-16.09-12.12-34.36-17.72-36.62-46.61-63.9-21.15-19.97-46.56-36.46c-23.98-15.55-48.14-26.23-76.54-32.2q-50.67-10.64-93.74 16c-22.81 14.12-38.19 33.7-48.6 58.43q-7.2 17.11-7.95 32.33c-1.29 26.13 9.02 49 28.27 66.5q14.84 13.48 33.83 17.97c27.28 6.46 65.02-4.11 64.59-38.44q-.17-13.03-10.65-20.04c-3.38-2.26-6.04-3.26-9.93-1.14q-1.53.84-2.36 3.81c-2.17 7.81-6.47 14.31-13.75 18.14q-12.75 6.72-26.31 3.47c-12.98-3.12-22.93-14.38-27.96-26.66q-.29-.69-.23-.92a.53.53 0 0 1 .93-.22c6.15 7.42 11.86 13.51 20.72 17.07 13.03 5.25 27.25 3.75 36.15-8.28 5.05-6.83 3.45-15.63-.44-22.54q-1.34-2.39-3.02-3.58a1.11 1.1-41.7 0 0-1.19-.06q-2.75 1.61-9.05 5.43c-8.38 5.08-19.41 1.16-26.78-4.87q-8.76-7.17-8.9-18.94c-.17-15.23 7.16-29.02 17.5-40.32 13.08-14.28 29.26-23.91 47.95-29.29q9.99-2.87 23.61-2.96c13.88-.09 26.16.99 39.48 4.71 20.22 5.67 39.8 14.11 56.79 26.15 7.57 5.36 13.97 9.55 20.27 16.02a.18.18 0 0 1-.23.28m131.14 86.5c-14.96 14.7-22.99 34.51-22.72 54.94q.41 31.28 19.95 51.17t50.8 20.86c20.42.63 40.37-7.05 55.34-21.74 14.96-14.7 22.99-34.51 22.72-54.94q-.41-31.28-19.95-51.17t-50.8-20.86c-20.42-.63-40.37 7.05-55.34 21.74m326.11 380.31q2.68 2.61 4.05 3.84c8.91 7.99 20.51 7.26 30.93 1.91q8.54-4.38 12.84-8.78c5.83-5.97 11.42-12.51 13.63-20.34 3.13-11.08.95-22.52-8.95-29.4a.37.36-30.2 0 1 .18-.66q12.9-1.32 21.8-10.71c10.78-11.37 12.73-27.88 1.08-39.52q-1.8-1.8-4.71-.65a1.99 1.77 9.1 0 0-.61.39c-2.58 2.49-4.7 4.76-8.67 5.9q-5.24 1.5-9.39 1.79c-26.05 1.83-50.7-5.05-74.06-16.03q-27.94-13.13-50.72-29.25-23.93-16.92-38.54-30.35c-21.57-19.83-42.1-40.74-60.18-64.17q-3.09-4.01-9.08-12.44-3.95-5.56-6.47-7.85-2.99-2.69-5.68.4c-3.37 3.87-6.46 6.96-10.16 9.85-3.22 2.52-6.9 6.49-1.77 9.77q21.57 13.82 38.5 29.5 17.75 16.43 40.23 40.44 18.98 20.26 31.19 37.56 14.43 20.43 27.25 44.53c14.01 26.35 25.06 53.06 22.93 83.68q-.66 9.45-3.9 15.36a3.74 3.72-5.9 0 1-.89 1.09l-3.35 2.82a1.31 1.3-24 0 0-.45 1.16c.65 4.76 6.69 8.17 10.95 9.8 6.13 2.33 14.61 1.19 20.46-1.55q17.71-8.27 20.93-27.88a.38.37-63.1 0 1 .63-.21m-603.77-50.43a.35.35 0 0 1 .2.61q-9 8.26-8.82 19.16c.35 20.32 22.97 42.64 43.62 41.77 6.29-.26 13.29-3.55 15.9-9.62a.46.46 0 0 1 .88.14c1.64 16.46 16.98 32.25 33.94 32.28q10.66.02 17.05-7.68 1.69-2.04 1.77-4.35c.08-2.11-1.77-3.8-2.72-5.29-2.86-4.5-3.59-13.02-3.73-17.96-.7-26.17 7.27-51.64 18.81-75.41q11.68-24.08 27.19-46.51 16.81-24.33 42.47-51.28 9.32-9.78 27.57-27.18 2.29-2.18 4.78-4.23c4.12-3.38 8.37-7.17 12.24-10.22q13.47-10.6 24.61-19.41c1.86-1.47 4.46-4.87 1.35-7.09-3.84-2.72-7.19-4.92-9.84-8.47q-.74-.98-3.8-4.75c-1.99-2.45-5.22-1.14-6.7 1.06q-19.99 29.6-43.46 52.53-20.07 19.6-34.27 31.98c-26.89 23.44-57.07 43.53-89.12 58.68q-27.55 13.02-58.4 14.95-7.07.44-16.67-.96-7.7-1.13-10.8-3.56c-3.07-2.41-5.48-2.62-7.87.06-8.69 9.76-9.07 25.55-1.45 36.08q9.35 12.93 25.27 14.67m466.96-98.62c7.3 8.64 12.9 16.7 20.2 28.08 11.99 18.68 20.21 40.11 25.18 61.41 9.62 41.27-3.34 86.15-39.1 110.42-9.92 6.73-23.69 12.03-35.45 8.94q-15.54-4.08-20.47-20c-1.68-5.45-.58-12.52 3.05-17.42q1.27-1.72 2.72-4.45 2.09-3.91-1.28-6.27-2.58-1.81-5.94-2.65-17.04-4.25-25.22 10.25c-7.75 13.74-2.85 30.78 8.23 41.03q4.39 4.06 9.14 8.36.37.34.14.74a.33.32 25.6 0 1-.41.14c-24.19-9.66-38.79-35.13-22.54-59.24 4.01-5.97 9.86-7.68 17.44-10.55a3.86 3.85-89.4 0 0 2.22-2.18c1.65-4.13 1.02-7.65-2.16-11.05q-5.33-5.69-10.2-7.33c-18.16-6.11-34.77 3.04-43.08 19.9-12.31 24.96-4.6 56.78 14 76.96q7.22 7.85 13.33 12.38c18.83 13.99 43.77 19.44 67.12 14.1 65.33-14.93 104.01-78.41 93.12-143.4q-4.2-25.06-12.79-44.26-15.03-33.61-38.74-63.2-10.13-12.65-18.64-21.59c-26.03-27.31-58.27-47.21-95.18-57.08q-17.17-4.59-35.88-4.81-22.49-.28-27.28.34-22.86 2.93-45.16 11.86c-12.96 5.19-26.7 13.7-37.59 21.22q-18.88 13.04-34.78 30.47-14.21 15.57-25.06 29.68c-17.27 22.45-31.37 47.75-40.11 75.46-13.69 43.43-8.54 88.8 18.92 125.44 5.23 6.98 12.89 14.87 18.72 19.8 15.21 12.89 33.78 20.65 53.61 23.63 12.25 1.84 23.46.36 35.5-2.96 24.04-6.62 43.39-22.07 53.87-44.88 5.73-12.46 8.65-26.65 7.05-40.43-1.86-16.06-11.57-31.61-26.82-37.79q-18.03-7.31-29.9 6.15-2.56 2.91-3.21 5.43c-.88 3.48-.51 9.19 3.86 10.52 11.36 3.48 18.47 12.02 21.14 23.74 4.59 20.1-9.81 38.98-28.56 44.74q-.52.16-1.2.15a.26.26 0 0 1-.13-.48q17.51-10.77 21.68-31.05c1.77-8.58-.49-17.68-6.16-24.46-6.79-8.13-18.64-8.28-26.89-2.22q-2.38 1.75-3.38 4.77a2.59 2.57 35.1 0 0 .43 2.4q2.28 2.89 4.28 6.05c6.17 9.71 2.29 22.3-6.48 28.99q-9.04 6.9-19.31 6.73c-12.04-.2-22.96-4.44-32.23-11.84-12.81-10.21-23.64-23.28-29.74-38.28-8.47-20.81-9.5-42.16-4.54-64.98q4.07-18.68 8.75-31.69 7.01-19.43 21.16-41.11 8.4-12.85 15.96-20.67a.23.23 0 0 1 .3-.02v.01a.24.24 0 0 1 .05.33q-11.83 16.74-15.4 23.28-19.17 35.11-24.4 74.12-1.31 9.78-.67 23.94c.57 12.83 4.05 25.52 9.37 37.09q5.34 11.59 16.47 23.05c9.67 9.94 22.4 16.61 36.41 15.75 11.59-.71 19.84-9.97 19-21.54a2.64 2.64 0 0 0-2.22-2.42q-4.24-.66-8.81-.64c-18.66.12-32.48-16.4-38.35-32.65-3.59-9.93-6.01-20.49-4.93-30.07q1.08-9.54 1.17-19.72a.45.45 0 0 1 .85-.21q5.11 9.44 13.04 17.43c6.12 6.17 13.7 10.42 22.7 10.75q6.64.24 15.03-3.99c11.52-5.81 20.99-12.29 26.86-23.62 1.79-3.45 2.62-9.05-.36-12.03-5.86-5.84-9.8-8.98-12.62-15.02q-4.3-9.23-5.07-19.5-1.95-26.06 11.8-50.27c7.89-13.88 19.49-28.13 33.28-36.83a.47.47 0 0 1 .6.72c-9.34 10.03-16.83 20.51-22.08 33.24q-3.43 8.32-4.11 20.4c-.94 16.99 2.66 34.7 18.31 43.1q11.88 6.38 21.93-2.41c5.26-4.6 1.45-9.15-1.22-13.56-3.99-6.57-6.12-13.95-7.07-22.72-2.01-18.6 2.65-35.33 13.46-49.58 3.97-5.24 11.95-9.85 18.16-12.06q7.49-2.66 14.78.82 9.43 4.52 13.89 9.73c6.42 7.5 10.9 16.02 13.07 26.29q5.55 26.35-9.23 48.72c-2.96 4.48-4.23 6.72-1.18 11.12 5.75 8.31 16.31 9.12 24.81 4.72q7.84-4.07 12.13-11.36 12.58-21.35 5.36-45.63c-4.44-14.95-12.43-27.33-22.87-38.58a.7.69 45.3 0 1 0-.95l.02-.03a.63.62-49.3 0 1 .83-.07c28.44 21.51 46.33 52.53 40.41 89.48-1.56 9.73-7.38 22.56-15.98 28.07-1.81 1.16-2.88 2.43-3.05 4.38-.65 7.37 4.75 16.03 9.9 20.86q6.81 6.39 19.12 12.65 5.94 3.02 14.14 3.93c16.26 1.8 31.21-12.8 36.62-27.12a.56.56 0 0 1 1.07.11c3.73 23.26.34 47.38-13.55 66.9-5.29 7.44-17.63 14.17-26.9 14.93q-2.65.22-9.33.04a2.53 2.52-82 0 0-2.52 1.9c-1.72 6.8 2.8 14.38 7.91 18.29q4.68 3.59 12.12 3.93c15.66.72 25.4-6.65 35.92-17.11 12.62-12.55 19.72-28.48 23.25-46.77q3.21-16.65 2.4-30.11c-1.05-17.67-4.22-33.59-10.84-50.82q-9.17-23.86-23.54-44.99-.05-.07-2.91-4.69-2.6-4.21-2.83-4.77a.17.17 0 0 1 .29-.18"/><path fill="#fff" d="M643.98 613.66q-4.22-6.05-12.19-16.65c-5.94-7.9-12.32-18.32-16.93-28.69q-6.81-15.29-11.05-27.34-2.63-7.49-5.58-23.23c-5.89-31.37.71-64.26 21.01-89q10.47-12.75 25.38-18.69 9.32-3.72 15.97-2.7c11.12 1.71 20.86 13.09 17.29 24.85a1.4 1.39 10.3 0 1-1.44.99q-5.54-.41-6.14-.45c-7.34-.5-14.57 1.97-20.94 5.9-18.25 11.24-25 39.68-24.59 59.61q.15 6.95.72 14.07a.63.63 0 0 0 1.2.21c5.22-11.39 13.07-20.48 25.2-25.21q8.43-3.29 16.59-.85 18.09 5.4 29.92 17.56c5.12 5.25 13.12 17.71 6.27 24.28q-.5.48-4.8 4.04-2.74 2.27-5.21 6.33c-13.98 23.08-9.91 53.63 3.89 75.8q3.51 5.65 10.74 14.33 9.05 10.88 20.8 17.96a.31.31 0 0 0 .38-.49q-4.32-4.45-7.22-7.77-17.8-20.36-18.8-47.99c-.55-15.31 5.35-32.55 19.09-40.44 8.44-4.85 17.5-5.57 24.23 1.92 3.59 4 3.5 8.18.23 12.65-5.38 7.38-8.38 14.84-10.61 25.51-3.28 15.68 1.45 33.63 11.28 46.41 5.54 7.19 13.67 13.41 22.84 14.73q1.23.18 6.83-.63c6.22-.89 13.77-6.07 17.32-10q6.08-6.72 10.53-17.23 8.96-21.18 3.7-44.51c-1.64-7.26-3.76-10.54-7.75-17.02q-3.12-5.07 1.11-9.41 7.66-7.86 18.03-4.54c14.89 4.77 21.87 21.2 22.78 35.62 1.51 23.99-9.49 46.24-26.46 62.61a.5.5 0 0 0 .31.86q.88.06 2.1-.79c14.5-10.1 25.03-22.24 33.09-37.15q12.16-22.49 10.07-47.57c-.82-9.82-3.49-18.32-9.25-26.77-2.16-3.17-7.43-7.01-8.62-10.85-2.27-7.29 2.61-15.97 7.6-21.03 6.99-7.1 18.27-14.19 28.37-16.47 10.33-2.33 20.12.54 27.65 8.18q8.08 8.18 14.59 20.1a.6.6 0 0 0 1.12-.24q.73-9.55.99-13.01 1.08-14.36-1.95-28.89-4.09-19.53-18.35-32.63-4.87-4.48-9.74-6.36c-8.09-3.13-12.77-2.58-22.46-2.46-6.04.08-3.39-8.31-1.71-11.38q1.9-3.46 5.13-6.08c14.91-12.08 31.32-8.46 45.55 2.81 15.48 12.27 23.36 29.24 28.13 48.18q5.15 20.5 1.45 42.51-2.81 16.7-6.77 28.99c-6.48 20.12-15.52 40.6-27.52 59.04-2.67 4.1-5.49 7.61-7.55 11.26a.08.08 0 0 0 .12.09c3.84-4 6.47-6.67 9.3-10.77q12.83-18.6 19.57-31.2 7.77-14.53 13.74-32.35 6.52-19.45 8.52-31.86c4-24.87-1.87-53.13-17.05-72.96-12.18-15.91-30.46-31.23-51.26-31.67-9.24-.2-19.63 4.19-25.25 11.69q-6.12 8.18-3.83 19c.81 3.84 2.36 5.74 4.96 9.67q1.03 1.57 1.36 2.68a1.43 1.42 48.3 0 1-.05.94c-2.37 5.76-9.93 8.75-15.71 8.85q-6.07.1-10.53-3.39c-12.01-9.39-12.87-23.69-7.54-37.28 3.41-8.69 12.4-16.11 20.16-21.26q.26-.18.26-.43a.32.31 82.9 0 0-.39-.31q-14.96 3.77-23.87 16.1-13.12 18.16-3.69 38.09c2.76 5.82 7.75 11.03 13.71 14.07 3.71 1.89 8.29 3 8.58 7.3.44 6.67-5.52 12.71-10.37 15.84-9.56 6.18-20.73 3.4-30.24-2.58-18.63-11.72-23.83-37.65-19.66-57.27q2.37-11.13 9.76-24.79c5.52-10.19 14.27-19.57 24.01-25.94 19.9-13.01 43.47-19.77 67.07-15.45q32.89 6.01 57.37 30.09c24.07 23.68 37.03 55.46 37.86 89.15.42 17.15-2.89 31.69-8.44 48.86q-9.05 28.04-24.65 52.55-14.23 22.36-30.36 40.87-8.7 9.99-22.82 23.7-13.6 13.21-25.18 21.11c-25.09 17.11-55.96 29.76-86.55 30.43-18.22.39-36.2.78-53.74-3.25-16.22-3.72-33.09-9.3-47.97-17.43q-21.32-11.64-38.12-27.72-17.83-17.06-33.11-35.4c-4.19-5.03-7.41-10.12-10.96-14.82-3.73-4.96-7.68-11.56-10.44-16.04-15.64-25.4-26.43-55.25-29.4-84.84q-1.46-14.51.69-28.29 1.2-7.75 4.2-19.11c6.23-23.62 20.54-46.25 40.16-61.59 14.75-11.52 29.93-19.49 48.74-23.97 26.64-6.33 53.35.25 73.75 18.42q21.81 19.41 26.68 45.52c3.17 16.99-1.35 39.52-14.23 51.63-9.76 9.17-26.97 13.77-39.15 6q-6.21-3.96-8.1-11.86-1.34-5.59 3.26-7.44 6.49-2.61 8.88-3.76 10.32-4.95 13.52-16.95c5.01-18.77-3.18-34.89-19.68-44.34q-5.05-2.89-7.86-3.48a.69.66 46.4 0 0-.2-.01q-.22.02-.27.07a.68.68 0 0 0 .21 1.06c12.06 5.75 21.47 22.57 20.57 35.55-.61 8.76-4.09 17.46-11.7 22.22-7.51 4.71-17.27 2.76-23.61-3.03q-1.93-1.75-.91-3.68c2.09-3.96 5.02-8.06 5.82-11.65q2.05-9.18-1.48-16.18-4.03-8.01-10.94-12.41-4.93-3.14-12.85-3.36c-14.55-.41-30.3 7.17-40.76 17.36-23.73 23.1-35.71 55.4-30.86 88.43 3.25 22.17 8.56 41.12 19.09 60.66q14.68 27.25 35.82 49.48a.12.12 0 0 0 .19-.15m190.2 40.87c3.85-2.31 7.22-3.98 11.05-6.9 30.53-23.25 55.05-56.12 60.01-95.14 2.59-20.42-2.11-48.18-26.08-53.91a.38.37 72.1 0 0-.33.65c14.91 12.83 20.45 33.77 18.38 53.02q-1.65 15.43-5.82 26.43-2.68 7.08-7.95 17.52-15.8 31.33-42.58 52.92-3.06 2.47-6.96 5.05a.19.19 0 0 0-.06.26v.01a.26.25-29.2 0 0 .34.09m-121.72-.95q-9.04-7.16-12.57-10.23c-23.95-20.89-41.2-47.91-47.47-79.32-1.62-8.1-2.12-17.7-1.45-25.31 1.38-15.55 8.92-26.38 18.53-38.29a.82.75-61.4 0 0-.31-1.27q-.15-.05-.83.23c-22.47 9.1-27.07 33.8-24.46 55.17 3.32 27.16 16.09 51.7 34.85 71.44 9.91 10.43 20.84 21.08 33.59 27.75a.11.1-11 0 0 .12-.17M867.3 527.5q.33.69 2.95 5.25c4.69 8.16 4.9 17.25 4.52 26.59a.3.27-60.5 0 0 .04.18l.15.29a.49.48-53 0 0 .91-.13c2.24-11.71 1.11-24.58-8.21-32.45a.23.23 0 0 0-.36.27m-185.95-.14a.3.29-9.1 0 0-.47-.34c-9.2 9.31-10.68 21.77-9.07 34.1a.42.42 0 0 0 .43.35h.01a.44.43-89.7 0 0 .4-.41c.47-10.56.96-19.86 6.14-29.09q1.99-3.54 2.56-4.61"/><path fill="#fff" d="M1104.12 507.4a.36.36 0 0 0 .24.63c13.12.06 26.21 9.67 30.94 21.35q5.92 14.65-3.34 27.04-2.77 3.71-7.11 4.43a3.35 3.34 69.8 0 1-3.41-1.58l-1.31-2.19a1.76 1.74-.5 0 0-.61-.59q-3.79-2.21-8.08-2.87-9.92-1.55-17.44-1.25c-22.96.91-46.7 8.52-66.8 19.08-23.7 12.44-46.45 26.55-67.16 43.41q-25.48 20.74-45 41.18c-8.57 8.97-23.31 23.96-33.11 36.64q-11.6 15.01-12.8 16.45-2.57 3.09-4.11 4.21a2.8 2.8 0 0 1-3.64-.28c-3.24-3.23-7.26-8.12-11.71-11.5q-2.94-2.22-3.32-3.97-.84-3.83 2.54-6.02 14.11-9.14 28.09-21.85 10.16-9.24 25.42-23.57 20.36-19.13 40.16-43.35 16.72-20.46 29.36-41.36c9.21-15.23 18.12-30.55 24.87-47.9 7.98-20.51 12.63-40.53 9.53-61.6q-.74-5.02-2.63-9.64-.58-1.42-2.82-3.34a1.62 1.61 12.8 0 1-.5-.79q-.56-1.98.01-3.01 5.82-10.46 16.65-11.28 19-1.44 28.88 13.71 5.35 8.19 6.81 16.84a.42.41 59.4 0 0 .73.19c9.83-12.34 23.29-11.87 36.43-4.42 16.03 9.09 31.01 31.07 21.17 49.82-1.39 2.63-4.08 4.84-6.93 7.38m-112.55 41.64q.78-.32 1.86-1.63.95-1.16 10.71-14.73 8.05-11.19 14.09-25.67c5.26-12.63 6.49-25.28 5.17-38.7-.64-6.5-2.58-12.16-5.53-17.39q-.31-.54-.83-.21-.28.18-.23.53 2.75 19.46-1.42 37.4-4.69 20.12-14.19 40.32-4.25 9.03-9.98 19.68a.28.28 0 0 0 .35.4m21.1 17.84c5.99-2.5 12.02-6.17 17.41-8.51 24.18-10.53 46.41-18.29 71.17-16.65q2.91.19 5.41.81a.5.49-14.2 0 0 .49-.81q-.39-.42-1.26-.86c-20.42-10.45-45.4-4.88-64.62 5.93q-2.97 1.67-8.95 5.34c-7.38 4.53-10.8 7.42-19.97 14.19a.33.32 15.4 0 0 .32.56M501.75 457.13c1.1-12.84 9.63-23.99 21.04-28.88 11.46-4.91 22.61-3.33 30.09 6.95a2.65 2.65 0 0 1-.42 3.58c-3.71 3.16-5.79 5.09-6.91 10.27q-1.27 5.88-1.33 10.95c-.32 25.33 5.98 49.34 16.9 72.15q20.36 42.52 50.64 78.37 34.23 40.51 77.47 73.24 9.99 7.56 13.99 10.62 2.71 2.08 2.77 3.74.08 2.68-1.94 4.33-6.79 5.53-11.34 11.95-.73 1.03-2.52 1.67c-2.69.97-6.13-3.01-7.34-4.93-15.18-23.81-34.63-44.18-54.91-63.81q-19.6-18.97-32.74-29.79-38.64-31.77-84.99-52.23-21.2-9.37-44.04-11.6c-10.27-1-20.01-.37-29.51 2.19q-4.58 1.24-6.27 5.22a1.41 1.41 0 0 1-1.26.85q-3.35.04-5.37-2.32c-10.62-12.49-7.8-26.7 2.44-38.23q8.71-9.8 22.16-11.21a.5.49-31.6 0 0 .22-.91q-9.07-5.86-9.99-16.55c-.68-7.76 1.74-13.33 5.89-20.31q7.98-13.41 21.13-20.79c13.11-7.34 27-8.04 35.55 5.62a.32.32 0 0 0 .59-.14m57.67 93.35a.33.32-27.3 0 0 .15-.45q-9.27-16.39-16.23-35.11c-7.16-19.22-11.33-41.87-7.2-62.26a.43.43 0 0 0-.61-.47q-.13.06-.4.46c-13.38 20-6.34 50.86 4.71 70.36q6.02 10.61 18.97 27.34a.49.49 0 0 0 .59.14zm-22.03 16.69a.48.48 0 0 0-.03-.7q-13.59-11.6-27.59-19.24c-18.05-9.85-44.14-15.44-63.64-5.63q-.97.49-1.54 1.14a.72.72 0 0 0 .68 1.18q7.38-1.47 13.47-1.25c6.57.25 14.89.97 22.9 2.71q30.65 6.65 55.26 22.03a.24.23-50.8 0 0 .28-.03z"/><path d="M991.57 549.04a.28.28 0 0 1-.35-.4q5.73-10.65 9.98-19.68 9.5-20.2 14.19-40.32 4.17-17.94 1.42-37.4-.05-.35.23-.53.52-.33.83.21c2.95 5.23 4.89 10.89 5.53 17.39 1.32 13.42.09 26.07-5.17 38.7q-6.04 14.48-14.09 25.67-9.76 13.57-10.71 14.73-1.08 1.31-1.86 1.63m-432.15 1.44-.02.01a.49.49 0 0 1-.59-.14q-12.95-16.73-18.97-27.34c-11.05-19.5-18.09-50.36-4.71-70.36q.27-.4.4-.46a.43.43 0 0 1 .61.47c-4.13 20.39.04 43.04 7.2 62.26q6.96 18.72 16.23 35.11a.33.32-27.3 0 1-.15.45m274.76 104.05a.26.25-29.2 0 1-.34-.09v-.01a.19.19 0 0 1 .06-.26q3.9-2.58 6.96-5.05 26.78-21.59 42.58-52.92 5.27-10.44 7.95-17.52 4.17-11 5.82-26.43c2.07-19.25-3.47-40.19-18.38-53.02a.38.37 72.1 0 1 .33-.65c23.97 5.73 28.67 33.49 26.08 53.91-4.96 39.02-29.48 71.89-60.01 95.14-3.83 2.92-7.2 4.59-11.05 6.9m-121.84-.78c-12.75-6.67-23.68-17.32-33.59-27.75-18.76-19.74-31.53-44.28-34.85-71.44-2.61-21.37 1.99-46.07 24.46-55.17q.68-.28.83-.23a.82.75-61.4 0 1 .31 1.27c-9.61 11.91-17.15 22.74-18.53 38.29-.67 7.61-.17 17.21 1.45 25.31 6.27 31.41 23.52 58.43 47.47 79.32q3.53 3.07 12.57 10.23a.11.1-11 0 1-.12.17"/><path d="M867.66 527.23c9.32 7.87 10.45 20.74 8.21 32.45a.49.48-53 0 1-.91.13l-.15-.29a.3.27-60.5 0 1-.04-.18c.38-9.34.17-18.43-4.52-26.59q-2.62-4.56-2.95-5.25a.23.23 0 0 1 .36-.27m-186.31.13q-.57 1.07-2.56 4.61c-5.18 9.23-5.67 18.53-6.14 29.09a.44.43-89.7 0 1-.4.41h-.01a.42.42 0 0 1-.43-.35c-1.61-12.33-.13-24.79 9.07-34.1a.3.29-9.1 0 1 .47.34m331.32 39.52a.33.32 15.4 0 1-.32-.56c9.17-6.77 12.59-9.66 19.97-14.19q5.98-3.67 8.95-5.34c19.22-10.81 44.2-16.38 64.62-5.93q.87.44 1.26.86a.5.49-14.2 0 1-.49.81q-2.5-.62-5.41-.81c-24.76-1.64-46.99 6.12-71.17 16.65-5.39 2.34-11.42 6.01-17.41 8.51m-475.28.29-.21.21a.24.23-50.8 0 1-.28.03q-24.61-15.38-55.26-22.03c-8.01-1.74-16.33-2.46-22.9-2.71q-6.09-.22-13.47 1.25a.72.72 0 0 1-.68-1.18q.57-.65 1.54-1.14c19.5-9.81 45.59-4.22 63.64 5.63q14 7.64 27.59 19.24a.48.48 0 0 1 .03.7"/><path fill="#fff" d="M948.72 918q8.46 8.28 25.4 20.88c17.68 13.15 38.42 22.9 59.49 28.47q24.38 6.44 51.15 3.18 15.47-1.89 26.69-6.82c13.4-5.9 27.7-16.81 36.49-27.88q10.86-13.68 13.76-32.36c.91-5.9-.71-14.43-4.84-19.34-7.65-9.08-20.57-15.18-31.42-7.66-2.79 1.93-7.08 6.56-10.25 2.86q-8.32-9.7-4.62-20.87c3.1-9.4 12.09-14.17 21.95-14.7q21.3-1.15 33.42 15.84 2.81 3.93 3.57 4.97a.44.44 0 0 0 .77-.4c-3.99-12.08-12.87-23.49-24.7-27.52-13.22-4.51-30.31-.64-38.61 11.57q-1.82 2.67-3.59 7.02-2.31 5.71-3.95 6.65-3.89 2.24-8.02.14c-12.79-6.52-15.4-21.91-10.72-34.57q5.3-14.34 19.82-21.62c32.44-16.25 70.1.03 90.33 27.79 18.25 25.04 20.34 55.6 8.24 84.26q-18.9 44.74-63.03 65.41c-10.75 5.04-23.45 8.91-35.6 10.37-10.16 1.22-22.76 2.07-33.92.68-33.12-4.13-64.25-17.42-91.86-36.03q-5.2-3.51-16.18-12.07-12.43-9.7-31.02-27.95c-14.99-14.71-28.97-32.89-37.95-51.62q-14.56-30.38-17.35-63.67-.73-8.67-.46-26.52c.44-29.85 10.28-58.58 26.31-83.21q20.54-31.57 48.08-55.92 28.02-24.77 60.39-42.35c11.07-6.01 24.43-10.95 36.04-14.57q16.2-5.05 32.47-6.67c40.35-4.02 79.95 10.95 107.31 41.19 16.91 18.7 26.62 39.84 27.52 65.26.61 17.42-5.71 34.75-14.17 49.7-6.06 10.7-15.26 21.38-25.51 28.02q-19.94 12.91-43.59 12.11c-14.73-.49-29.36-6.06-39.07-17.24-6.93-7.98-11.36-19.07-6.87-29.29 3.38-7.69 10.78-16.68 20.01-14.33q1.73.44 2.74 2.47c2.36 4.77 4.07 9.95 8.3 13.68q6.7 5.91 15.79 8.19c14.62 3.69 27.35-.73 36.84-11.86 4.32-5.07 9.55-12.03 9.71-18.01a.27.27 0 0 0-.52-.12q-2.32 5.21-7.26 9.95c-10.76 10.35-24.2 14.98-38.99 10.98q-7.95-2.14-12.31-8.17c-5.2-7.19-5.13-17.65 1.33-24 4.66-4.58 9.14.13 12.83 2.13a8.97 8.95 66.5 0 0 1.95.77c12.82 3.34 24.54-2.86 30.37-14.32 5.46-10.74 2.68-25.66-3.01-36.05-10.4-18.99-26.72-33.82-47.34-41.09q-12.42-4.38-26.17-5.79-15.04-1.54-34.53 2.52c-23.39 4.86-47.03 14.77-66.79 27.13-4.84 3.02-11.13 7.65-15.93 11.05q-5.31 3.76-13 10.64a.17.17 0 0 0-.02.24.17.16-34.2 0 0 .22.04q18.75-12.38 22.65-14.6 16.52-9.4 41.08-18.16c22.62-8.07 46.85-13.25 69.37-9.37q17.04 2.93 30.8 10.06c14.6 7.56 30.48 22.29 34.24 38.98 2.49 11.08 1.23 21.47-7.12 29.08q-4.7 4.29-10.82 4.67c-3.58.23-7.51-.64-6.91-5.23 1.26-9.56 1.19-18.15-4.24-26.41-4.59-6.99-12.93-13.31-21.19-17.02q-14.77-6.64-31.37-7.56c-4.98-.27-10 .65-15.29 1.34-3.41.44-6.05.22-9.15.02q-.51-.03-.54.47-.03.34.27.53 10.22 6.63 18.29 14.84 10.29 10.45 8.04 24.33c-2.6 15.99-12.72 33.24-28.41 39.48-7.72 3.07-11.53-1.85-17.24-7.33-3.75-3.61-9.99-6.27-15.35-8.31q-6.44-2.46-16.19-2.94-21.2-1.06-40.27 7.73-7.02 3.24-15.48 9.49c-9.88 7.3-17.37 14.46-24.57 24.27q-1.59 2.16-2 3.58a.46.46 0 0 0 .77.46c14.39-14.37 30.66-24.36 51.04-26.47 13.62-1.4 27.8 1.57 38.38 10.41 5.03 4.21 9.22 12.35 8.84 19.01-.39 6.72-6.86 17.61-15.18 12.53-2.69-1.65-5.26-3.48-8.22-4.68-21.86-8.88-46.25-6.17-65.52 7.03-7.58 5.19-16.15 15.7-15.18 25.55 1.09 11.04 8.08 21.4 17.39 27.63 19.11 12.8 42.74 13.77 63.15 3.24 3.13-1.61 6.44-4.51 9.26-6.1q3.52-1.98 6.29-.36 2.75 1.62 4.93 4.4c9.52 12.1-.3 27.55-11.98 34.43q-14.92 8.77-31.62 7.32c-20.86-1.83-39.68-12.92-53.73-28.44a.4.39-47.6 0 0-.61.03l-.01.02a.71.71 0 0 0-.02.82q13 19.12 30.16 30.6 12.25 8.19 27.56 12.43c19.5 5.41 43.37 3.11 58.55-11.21q2.87-2.71 5.11-6.43a3.22 3.22 0 0 1 2.65-1.56c6.36-.22 14.66 4.37 19.27 8.39q16 13.98 18.64 35.06c2.15 17.2-13.2 31.31-27.32 37.62a.4.4 0 0 0 .11.76c7.58.94 16.9 1.78 24.71 1.04 22.15-2.09 52.61-13.44 56.24-39.47q.43-3.09.74-10.47c.31-7.64 11.25-4.06 14.59-1.6q13.97 10.25 8.41 28.41-3.58 11.69-9.69 18.71c-13.08 15.03-28.69 23.77-48.46 29.35q-14.32 4.04-27.94 3.71-36.67-.89-69.78-16.64c-9.17-4.36-18.78-9.44-27.99-15.96q-12.62-8.94-17.94-13.12-.14-.12-.26-.12a.09.09 0 0 0-.06.16m-41.63-195.07q4.16-5 7.14-8.44c13.66-15.77 31.16-28.33 49.75-38.5q22.75-12.45 48.44-13.74 16.06-.81 26.36 2.98 12.38 4.55 21.25 15.61a.36.36 0 0 0 .64-.29q-2.45-14.11-14.44-20.71-8.78-4.83-17.04-5.73c-38.41-4.21-78.88 17.88-104.37 45.47q-3.5 3.8-12.3 14.57c-2.09 2.56-3.75 5.48-5.79 8.59a.16.16 0 0 0 .03.22l.01.01a.24.23 37.6 0 0 .32-.04m124.78-31.12a.23.23 0 0 0 .26-.37c-8-9.03-20.75-9.84-32.28-7.36a.48.48 0 0 0-.1.91l.29.14a.3.27-30.9 0 0 .18.03c9.22-.59 18.22-.6 26.39 3.85q4.57 2.49 5.26 2.8m28.14 197.18a.6.6 0 0 0-1.06-.46c-11.96 15.25-27.77 21.18-47.15 20.24-25.11-1.21-46.75-10.62-67.53-24.16-11.82-7.69-22.34-17.41-31.59-28.64q-3.97-4.82-7.48-9.02-.03-.04-.08-.07.03.02.09.14 4.22 7.77 9.66 14.35c16.11 19.49 35.5 36.68 59.58 45.71 13.78 5.16 26.95 9.07 41.02 9.22q10.66.12 16.04-1.02c14.5-3.05 26.19-11.39 28.5-26.29m-27.69-10.94q-1.09.57-4.69 2.57c-9.38 5.22-18.81 5.67-29.52 6.1a.44.43 0 0 0-.42.41v.01a.43.42 6 0 0 .36.44c12.49 1.68 25.13.23 34.61-9.05a.3.3 0 0 0-.34-.48m-439.07-233.5a.18.18 0 0 0 .23-.28c-6.3-6.47-12.7-10.66-20.27-16.02-16.99-12.04-36.57-20.48-56.79-26.15-13.32-3.72-25.6-4.8-39.48-4.71q-13.62.09-23.61 2.96c-18.69 5.38-34.87 15.01-47.95 29.29-10.34 11.3-17.67 25.09-17.5 40.32q.14 11.77 8.9 18.94c7.37 6.03 18.4 9.95 26.78 4.87q6.3-3.82 9.05-5.43a1.11 1.1-41.7 0 1 1.19.06q1.68 1.19 3.02 3.58c3.89 6.91 5.49 15.71.44 22.54-8.9 12.03-23.12 13.53-36.15 8.28-8.86-3.56-14.57-9.65-20.72-17.07a.53.53 0 0 0-.93.22q-.06.23.23.92c5.03 12.28 14.98 23.54 27.96 26.66q13.56 3.25 26.31-3.47c7.28-3.83 11.58-10.33 13.75-18.14q.83-2.97 2.36-3.81c3.89-2.12 6.55-1.12 9.93 1.14q10.48 7.01 10.65 20.04c.43 34.33-37.31 44.9-64.59 38.44q-18.99-4.49-33.83-17.97c-19.25-17.5-29.56-40.37-28.27-66.5q.75-15.22 7.95-32.33c10.41-24.73 25.79-44.31 48.6-58.43q43.07-26.64 93.74-16c28.4 5.97 52.56 16.65 76.54 32.2q25.41 16.49 46.56 36.46 28.89 27.28 46.61 63.9 8.84 18.27 12.12 34.36 4.09 20.12 4.21 40.09c.25 41.62-14.36 80.05-40.81 111.94q-14.34 17.28-29.53 31-5.58 5.04-16.01 13.71-7.84 6.52-27.5 19.52c-33.37 22.07-75.82 38.25-116.65 33.75q-33.66-3.71-60.98-22.2c-4.68-3.16-9.82-8.38-12.87-11.22-20.69-19.22-33.34-44.72-34.08-73.21-.49-19.1 5.32-35.83 15.22-51.72q14.55-23.34 41.03-32.44c22.24-7.64 45.81-5.35 62.62 11.78q5.38 5.49 8.15 13.71 5.25 15.63-5.29 26.59c-3.76 3.92-7.95 5.72-13.06 4.76-2.12-.4-3.04-.94-3.83-3.16-1.08-3.06-2.09-6.29-3.94-8.6-10.75-13.37-24.97-18.25-41.46-10.77-11.28 5.12-20.82 15.19-24.25 27.31a.42.41 70.3 0 0 .74.35c6.37-9.26 13.87-17.1 24.98-20.57q15.06-4.71 28 3.17 5.53 3.36 7.71 7.88c3.83 7.94 2.19 19.33-6.97 22.82-1.76.67-3.3.04-4.88-1.08q-5.37-3.77-7.41-4.41-10.81-3.42-19.99 3.64c-5.45 4.19-9.89 11.69-11.06 18.69q-2.76 16.39 5.15 29.54 10.63 17.69 27.12 28.33c18.49 11.94 39.81 19.15 62.51 16.87q28.42-2.86 50.17-11.68c21.76-8.82 43.17-20.49 60.26-36.01a.24.23-80.7 0 0-.27-.38c-1.72.95-4.66 2.59-6.44 3.86q-9.12 6.48-18.6 11.52c-28.33 15.07-61.15 25.25-93.23 24.5-27.75-.65-54.45-12.8-70.08-36.22-9.54-14.27-11.31-41.71 11.08-45.87 9.36-1.74 7.6 6.94 7.37 13.29-.41 11.95 4.86 21.4 15.08 28.22q11.72 7.82 23.64 10.6c14.84 3.47 28.73 3.4 43.51 2.05a.43.43 0 0 0 .17-.8q-9.42-5.35-18.17-13.77c-4.78-4.61-9.13-11.21-9.38-17.76-.62-16.17 7.36-33.59 20.57-43.15q6.66-4.82 14.49-4.77c3.51.02 5.44 3.18 8.23 6.27 6.55 7.25 17.01 11.35 25.89 12.61q23.68 3.37 45.66-6.39 14.15-6.29 24.29-14.94 6.34-5.41 13.93-13.3 4.27-4.44 6.95-9.29.31-.57.3-.95a.37.37 0 0 0-.62-.26q-7.23 6.56-10.29 9.07-13 10.66-28.42 15.51c-17.09 5.38-38.01 3.01-52.1-8.56-5.96-4.9-11.53-16.08-7.88-24.16q1.84-4.06 5.24-7.26c2.9-2.71 5.99-1.8 9.23.34q7.92 5.23 12.91 6.58 9.35 2.54 17.54 3.05c15.38.97 30.96-3.59 43.4-12.68q5.24-3.83 8.76-9.45c3.22-5.13 6.51-11.92 5.5-18.01q-2.36-14.25-14.05-23.13-22.67-17.21-51.24-10.6-10.3 2.38-18.63 7.91c-4.09 2.71-7.58 5.38-12.27 3.2-6.22-2.9-9.16-11.9-8.22-18.1 1.83-11.93 14.34-20.82 25.42-24.37 28.4-9.09 55.38 5.16 74.72 25.21a.2.19 11.5 0 0 .32-.21q-1.91-4.37-4.75-7.65c-25.09-29-62.54-48.41-100.48-32.13-5 2.15-8.33 6.51-13 11.8-3.01 3.42-5.79 4.68-9.92 3.7-10.43-2.47-20.14-13.39-25.77-22.5-5.46-8.84-9.36-17.99-6.98-28.06 3.27-13.83 13.72-24.21 26.5-30.07q.32-.14.56-.56a.44.44 0 0 0-.42-.66q-3.42.32-11.69-.36c-15.09-1.25-29.95.98-43.54 7.43q-17.73 8.42-23.12 26.41c-1.54 5.17-1.46 9.71-1.36 15.68.06 3.86-2.27 5.13-5.95 4.82-7.42-.63-13.91-5.29-17.27-11.85-3.29-6.44-2.52-14.24-.51-21.23 2.22-7.69 6.33-14.46 12.18-20.59 38.27-40.06 97.74-35.61 143.88-12.91q19.28 9.49 37.2 22.07m54.09 79.28q-5.94-9.95-15.45-20.21-16.13-17.4-35.85-30.21-19.71-12.81-36.24-16.85-19.51-4.75-39.82-1.91-21.18 2.96-29.61 22.12a.84.82-73.7 0 0 .62 1.16q.49.07 1.17-.5c20.23-17.06 44.67-19.7 69.69-12.56q34.29 9.78 60.71 33.55 12.56 11.31 24.55 25.73a.12.12 0 0 0 .15.02l.01-.01a.25.24 57.4 0 0 .07-.33M533 682.94q-8.67 2.03-15.8 7.78a.25.25 0 0 0 .26.42c6.24-2.75 10.64-4.99 16-6.24 5.35-1.26 10.29-1.21 17.11-1.51a.25.25 0 0 0 .04-.5q-8.94-1.98-17.61.05m112.6 159.94q-7.72 11.07-13.85 18.14-10.08 11.64-26.94 22.77c-22.27 14.69-46.12 23.34-73.06 22.17-15.57-.68-30.01-5.37-39.63-17.94a.5.49-58.8 0 0-.88.22q-.12.7.02 1.25 4.24 16.62 21.4 21.99c15.51 4.85 31.54 3.48 47.19-.51q9.77-2.49 22.05-8.5 31.78-15.56 53.88-43.68 6.07-7.73 10.03-15.75a.15.14 28.5 0 0-.06-.19v-.01a.12.11-58.5 0 0-.15.04m-125.55 34.65a.22.21 84.7 0 0-.26.32c6.98 9.06 18.99 10.65 30.05 9.03a.46.45-34.5 0 0 .16-.84l-.27-.16a.28.25-27 0 0-.17-.04c-8.76-.03-17.26-.6-24.71-5.33q-4.16-2.65-4.8-2.98"/><path d="M647.34 723.83a.25.24 57.4 0 1-.07.33l-.01.01a.12.12 0 0 1-.15-.02q-11.99-14.42-24.55-25.73-26.42-23.77-60.71-33.55c-25.02-7.14-49.46-4.5-69.69 12.56q-.68.57-1.17.5a.84.82-73.7 0 1-.62-1.16q8.43-19.16 29.61-22.12 20.31-2.84 39.82 1.91 16.53 4.04 36.24 16.85 19.72 12.81 35.85 30.21 9.51 10.26 15.45 20.21m259.75-.9a.24.23 37.6 0 1-.32.04l-.01-.01a.16.16 0 0 1-.03-.22c2.04-3.11 3.7-6.03 5.79-8.59q8.8-10.77 12.3-14.57c25.49-27.59 65.96-49.68 104.37-45.47q8.26.9 17.04 5.73 11.99 6.6 14.44 20.71a.36.36 0 0 1-.64.29q-8.87-11.06-21.25-15.61-10.3-3.79-26.36-2.98-25.69 1.29-48.44 13.74c-18.59 10.17-36.09 22.73-49.75 38.5q-2.98 3.44-7.14 8.44"/><path d="M533.46 684.9c-5.36 1.25-9.76 3.49-16 6.24a.25.25 0 0 1-.26-.42q7.13-5.75 15.8-7.78t17.61-.05a.25.25 0 0 1-.04.5c-6.82.3-11.76.25-17.11 1.51m498.41 6.91q-.69-.31-5.26-2.8c-8.17-4.45-17.17-4.44-26.39-3.85a.3.27-30.9 0 1-.18-.03l-.29-.14a.48.48 0 0 1 .1-.91c11.53-2.48 24.28-1.67 32.28 7.36a.23.23 0 0 1-.26.37"/><path fill="#fff" d="M830.53 730.17q19.54 19.89 19.95 51.17c.27 20.43-7.76 40.24-22.72 54.94-14.97 14.69-34.92 22.37-55.34 21.74q-31.26-.97-50.8-20.86t-19.95-51.17c-.27-20.43 7.76-40.24 22.72-54.94 14.97-14.69 34.92-22.37 55.34-21.74q31.26.97 50.8 20.86"/><path d="M645.6 842.88a.12.11-58.5 0 1 .15-.04v.01a.15.14 28.5 0 1 .06.19q-3.96 8.02-10.03 15.75-22.1 28.12-53.88 43.68-12.28 6.01-22.05 8.5c-15.65 3.99-31.68 5.36-47.19.51q-17.16-5.37-21.4-21.99-.14-.55-.02-1.25a.5.49-58.8 0 1 .88-.22c9.62 12.57 24.06 17.26 39.63 17.94 26.94 1.17 50.79-7.48 73.06-22.17q16.86-11.13 26.94-22.77 6.13-7.07 13.85-18.14m414.41 46.11c-2.31 14.9-14 23.24-28.5 26.29q-5.38 1.14-16.04 1.02c-14.07-.15-27.24-4.06-41.02-9.22-24.08-9.03-43.47-26.22-59.58-45.71q-5.44-6.58-9.66-14.35-.06-.12-.09-.14.05.03.08.07 3.51 4.2 7.48 9.02c9.25 11.23 19.77 20.95 31.59 28.64 20.78 13.54 42.42 22.95 67.53 24.16 19.38.94 35.19-4.99 47.15-20.24a.6.6 0 0 1 1.06.46"/><path fill="#fff" d="M1049.87 1111.57q-3.22 19.61-20.93 27.88c-5.85 2.74-14.33 3.88-20.46 1.55-4.26-1.63-10.3-5.04-10.95-9.8a1.31 1.3-24 0 1 .45-1.16l3.35-2.82a3.74 3.72-5.9 0 0 .89-1.09q3.24-5.91 3.9-15.36c2.13-30.62-8.92-57.33-22.93-83.68q-12.82-24.1-27.25-44.53-12.21-17.3-31.19-37.56-22.48-24.01-40.23-40.44-16.93-15.68-38.5-29.5c-5.13-3.28-1.45-7.25 1.77-9.77 3.7-2.89 6.79-5.98 10.16-9.85q2.69-3.09 5.68-.4 2.52 2.29 6.47 7.85 5.99 8.43 9.08 12.44c18.08 23.43 38.61 44.34 60.18 64.17q14.61 13.43 38.54 30.35 22.78 16.12 50.72 29.25c23.36 10.98 48.01 17.86 74.06 16.03q4.15-.29 9.39-1.79c3.97-1.14 6.09-3.41 8.67-5.9a1.99 1.77 9.1 0 1 .61-.39q2.91-1.15 4.71.65c11.65 11.64 9.7 28.15-1.08 39.52q-8.9 9.39-21.8 10.71a.37.36-30.2 0 0-.18.66c9.9 6.88 12.08 18.32 8.95 29.4-2.21 7.83-7.8 14.37-13.63 20.34q-4.3 4.4-12.84 8.78c-10.42 5.35-22.02 6.08-30.93-1.91q-1.37-1.23-4.05-3.84a.38.37-63.1 0 0-.63.21m-39.84-110.97a.31.31 0 0 0-.34.51q10.14 7.98 20.28 14.66c14.8 9.75 29.85 15.22 47.2 16.7 5.96.51 11.42-.57 17.24-1.82q6.67-1.43 12.9-5.78a.62.62 0 0 0-.48-1.11c-2.8.59-5.02 1.43-8.19 1.67q-15.85 1.16-28.93-1.62-20.44-4.35-42.45-14.28-5.59-2.52-8.62-4.31-1.88-1.1-8.61-4.62m-16.21 22.94a.56.56 0 0 0-.08.68q14.91 24.93 20.65 52.13c2.69 12.71 3.65 26.57.73 39.54a.52.52 0 0 0 .77.56q.29-.17.51-.52c9.78-16.03 8.21-33.61 2.49-51.56q-4.22-13.23-12.36-24.87-7.45-10.65-12.15-16.18a.22.21 45.9 0 0-.32-.01zm-547.09 37.39q-15.92-1.74-25.27-14.67c-7.62-10.53-7.24-26.32 1.45-36.08 2.39-2.68 4.8-2.47 7.87-.06q3.1 2.43 10.8 3.56 9.6 1.4 16.67.96 30.85-1.93 58.4-14.95c32.05-15.15 62.23-35.24 89.12-58.68q14.2-12.38 34.27-31.98 23.47-22.93 43.46-52.53c1.48-2.2 4.71-3.51 6.7-1.06q3.06 3.77 3.8 4.75c2.65 3.55 6 5.75 9.84 8.47 3.11 2.22.51 5.62-1.35 7.09q-11.14 8.81-24.61 19.41c-3.87 3.05-8.12 6.84-12.24 10.22q-2.49 2.05-4.78 4.23-18.25 17.4-27.57 27.18-25.66 26.95-42.47 51.28-15.51 22.43-27.19 46.51c-11.54 23.77-19.51 49.24-18.81 75.41.14 4.94.87 13.46 3.73 17.96.95 1.49 2.8 3.18 2.72 5.29q-.08 2.31-1.77 4.35-6.39 7.7-17.05 7.68c-16.96-.03-32.3-15.82-33.94-32.28a.46.46 0 0 0-.88-.14c-2.61 6.07-9.61 9.36-15.9 9.62-20.65.87-43.27-21.45-43.62-41.77q-.18-10.9 8.82-19.16a.35.35 0 0 0-.2-.61m94.49-61.87q-1.08.2-2.46.91-2.85 1.46-13.93 7.31c-21.87 11.56-45.85 18.24-70.81 18.32-2.43.01-13.43-1.42-13.62-1.1a.37.36 31 0 0 .13.49q3.91 2.41 8.37 3.85c20.57 6.64 40.03 2.17 59.04-6.72q11.47-5.35 21.62-13.33 5.88-4.61 11.86-9.28a.25.25 0 0 0-.2-.45m19.63 19.28a.37.37 0 0 0-.61-.38q-1.88 1.97-2.9 3.37-4.43 6.09-7.28 9.92c-8.15 10.93-14.59 24.18-18.42 36.43q-3.52 11.26-3.73 24.12-.22 13.63 6 26.45a.62.62 0 0 0 1.17-.33q-2.98-30.4 7.38-59.49 5.43-15.26 12.72-29.78c1.65-3.3 4.67-7.65 5.67-10.31"/><path d="M520.05 877.53q.64.33 4.8 2.98c7.45 4.73 15.95 5.3 24.71 5.33a.28.25-27 0 1 .17.04l.27.16a.46.45-34.5 0 1-.16.84c-11.06 1.62-23.07.03-30.05-9.03a.22.21 84.7 0 1 .26-.32m512.27.52a.3.3 0 0 1 .34.48c-9.48 9.28-22.12 10.73-34.61 9.05a.43.42 6 0 1-.36-.44v-.01a.44.43 0 0 1 .42-.41c10.71-.43 20.14-.88 29.52-6.1q3.6-2 4.69-2.57"/><path fill="#fff" d="M913.4 962.49q.23.56 2.83 4.77 2.86 4.62 2.91 4.69 14.37 21.13 23.54 44.99c6.62 17.23 9.79 33.15 10.84 50.82q.81 13.46-2.4 30.11c-3.53 18.29-10.63 34.22-23.25 46.77-10.52 10.46-20.26 17.83-35.92 17.11q-7.44-.34-12.12-3.93c-5.11-3.91-9.63-11.49-7.91-18.29a2.53 2.52-82 0 1 2.52-1.9q6.68.18 9.33-.04c9.27-.76 21.61-7.49 26.9-14.93 13.89-19.52 17.28-43.64 13.55-66.9a.56.56 0 0 0-1.07-.11c-5.41 14.32-20.36 28.92-36.62 27.12q-8.2-.91-14.14-3.93-12.31-6.26-19.12-12.65c-5.15-4.83-10.55-13.49-9.9-20.86.17-1.95 1.24-3.22 3.05-4.38 8.6-5.51 14.42-18.34 15.98-28.07 5.92-36.95-11.97-67.97-40.41-89.48a.63.62-49.3 0 0-.83.07l-.02.03a.7.69 45.3 0 0 0 .95c10.44 11.25 18.43 23.63 22.87 38.58q7.22 24.28-5.36 45.63-4.29 7.29-12.13 11.36c-8.5 4.4-19.06 3.59-24.81-4.72-3.05-4.4-1.78-6.64 1.18-11.12q14.78-22.37 9.23-48.72c-2.17-10.27-6.65-18.79-13.07-26.29q-4.46-5.21-13.89-9.73-7.29-3.48-14.78-.82c-6.21 2.21-14.19 6.82-18.16 12.06-10.81 14.25-15.47 30.98-13.46 49.58.95 8.77 3.08 16.15 7.07 22.72 2.67 4.41 6.48 8.96 1.22 13.56q-10.05 8.79-21.93 2.41c-15.65-8.4-19.25-26.11-18.31-43.1q.68-12.08 4.11-20.4c5.25-12.73 12.74-23.21 22.08-33.24a.47.47 0 0 0-.6-.72c-13.79 8.7-25.39 22.95-33.28 36.83q-13.75 24.21-11.8 50.27.77 10.27 5.07 19.5c2.82 6.04 6.76 9.18 12.62 15.02 2.98 2.98 2.15 8.58.36 12.03-5.87 11.33-15.34 17.81-26.86 23.62q-8.39 4.23-15.03 3.99c-9-.33-16.58-4.58-22.7-10.75q-7.93-7.99-13.04-17.43a.45.45 0 0 0-.85.21q-.09 10.18-1.17 19.72c-1.08 9.58 1.34 20.14 4.93 30.07 5.87 16.25 19.69 32.77 38.35 32.65q4.57-.02 8.81.64a2.64 2.64 0 0 1 2.22 2.42c.84 11.57-7.41 20.83-19 21.54-14.01.86-26.74-5.81-36.41-15.75q-11.13-11.46-16.47-23.05c-5.32-11.57-8.8-24.26-9.37-37.09q-.64-14.16.67-23.94 5.23-39.01 24.4-74.12 3.57-6.54 15.4-23.28a.24.24 0 0 0-.05-.33v-.01a.23.23 0 0 0-.3.02q-7.56 7.82-15.96 20.67-14.15 21.68-21.16 41.11-4.68 13.01-8.75 31.69c-4.96 22.82-3.93 44.17 4.54 64.98 6.1 15 16.93 28.07 29.74 38.28 9.27 7.4 20.19 11.64 32.23 11.84q10.27.17 19.31-6.73c8.77-6.69 12.65-19.28 6.48-28.99q-2-3.16-4.28-6.05a2.59 2.57 35.1 0 1-.43-2.4q1-3.02 3.38-4.77c8.25-6.06 20.1-5.91 26.89 2.22 5.67 6.78 7.93 15.88 6.16 24.46q-4.17 20.28-21.68 31.05a.26.26 0 0 0 .13.48q.68.01 1.2-.15c18.75-5.76 33.15-24.64 28.56-44.74-2.67-11.72-9.78-20.26-21.14-23.74-4.37-1.33-4.74-7.04-3.86-10.52q.65-2.52 3.21-5.43 11.87-13.46 29.9-6.15c15.25 6.18 24.96 21.73 26.82 37.79 1.6 13.78-1.32 27.97-7.05 40.43-10.48 22.81-29.83 38.26-53.87 44.88-12.04 3.32-23.25 4.8-35.5 2.96-19.83-2.98-38.4-10.74-53.61-23.63-5.83-4.93-13.49-12.82-18.72-19.8-27.46-36.64-32.61-82.01-18.92-125.44 8.74-27.71 22.84-53.01 40.11-75.46q10.85-14.11 25.06-29.68 15.9-17.43 34.78-30.47c10.89-7.52 24.63-16.03 37.59-21.22q22.3-8.93 45.16-11.86 4.79-.62 27.28-.34 18.71.22 35.88 4.81c36.91 9.87 69.15 29.77 95.18 57.08q8.51 8.94 18.64 21.59 23.71 29.59 38.74 63.2 8.59 19.2 12.79 44.26c10.89 64.99-27.79 128.47-93.12 143.4-23.35 5.34-48.29-.11-67.12-14.1q-6.11-4.53-13.33-12.38c-18.6-20.18-26.31-52-14-76.96 8.31-16.86 24.92-26.01 43.08-19.9q4.87 1.64 10.2 7.33c3.18 3.4 3.81 6.92 2.16 11.05a3.86 3.85-89.4 0 1-2.22 2.18c-7.58 2.87-13.43 4.58-17.44 10.55-16.25 24.11-1.65 49.58 22.54 59.24a.33.32 25.6 0 0 .41-.14q.23-.4-.14-.74-4.75-4.3-9.14-8.36c-11.08-10.25-15.98-27.29-8.23-41.03q8.18-14.5 25.22-10.25 3.36.84 5.94 2.65 3.37 2.36 1.28 6.27-1.45 2.73-2.72 4.45c-3.63 4.9-4.73 11.97-3.05 17.42q4.93 15.92 20.47 20c11.76 3.09 25.53-2.21 35.45-8.94 35.76-24.27 48.72-69.15 39.1-110.42-4.97-21.3-13.19-42.73-25.18-61.41-7.3-11.38-12.9-19.44-20.2-28.08a.17.17 0 0 0-.29.18m-202.31-46.01c-3.01 1.93-5.9 3.33-8.75 5.49q-16.46 12.46-28.25 28.36-6.39 8.64-8.36 11.63c-12.43 18.95-20.37 41.35-20.53 64.27-.12 16.78 6.89 40.03 26.82 42.03q.33.04.47-.17a.41.41 0 0 0-.11-.57q-7.75-5.23-12.45-13.78c-10.37-18.87-6.53-42.2-.59-61.82 5.49-18.13 13.69-32.24 25.04-48.39 5.32-7.57 12.48-14.4 18.66-20.24q2.9-2.73 8.33-6.5a.17.16 56.3 0 0 .04-.23v-.01a.24.23-31.6 0 0-.32-.07m128.24.41q4.69 3.81 5.25 4.27c24.94 20.52 43.8 48.8 51.66 80.6 3.68 14.9 3.77 30.11-.98 44.99-2.68 8.38-8.41 15.4-14.51 21.43a.52.52 0 0 0 .51.87c6.8-1.89 14.08-5.65 17.88-12.14 4.84-8.28 6.4-16.06 7.27-25.66 1.51-16.54-2.94-34.93-9.92-49.75q-9.56-20.28-24.07-36.93-15.92-18.26-33.02-28.08a.08.08 0 0 0-.11.03h-.01a.27.27 0 0 0 .05.37m29.37 124.92a.29.28-9.9 0 0 .47.32c8.8-9.17 10.08-21.29 8.36-33.25a.41.4 83.4 0 0-.43-.34h-.01a.42.41 89.5 0 0-.39.41c-.31 10.26-.66 19.31-5.58 28.34q-1.88 3.47-2.42 4.52m-194.82-15.37q1.77 6.57 6.86 12.55.29.34.63.34a.37.36-14.7 0 0 .32-.54c-2.32-4.25-4.58-8.53-5.75-12.9-1.18-4.37-1.37-9.21-1.5-14.05a.37.36-15.4 0 0-.54-.31q-.3.18-.38.62-1.4 7.72.36 14.29"/><path d="M711.09 916.48a.24.23-31.6 0 1 .32.07v.01a.17.16 56.3 0 1-.04.23q-5.43 3.77-8.33 6.5c-6.18 5.84-13.34 12.67-18.66 20.24-11.35 16.15-19.55 30.26-25.04 48.39-5.94 19.62-9.78 42.95.59 61.82q4.7 8.55 12.45 13.78a.41.41 0 0 1 .11.57q-.14.21-.47.17c-19.93-2-26.94-25.25-26.82-42.03.16-22.92 8.1-45.32 20.53-64.27q1.97-2.99 8.36-11.63 11.79-15.9 28.25-28.36c2.85-2.16 5.74-3.56 8.75-5.49m128.24.41a.27.27 0 0 1-.05-.37h.01a.08.08 0 0 1 .11-.03q17.1 9.82 33.02 28.08 14.51 16.65 24.07 36.93c6.98 14.82 11.43 33.21 9.92 49.75-.87 9.6-2.43 17.38-7.27 25.66-3.8 6.49-11.08 10.25-17.88 12.14a.52.52 0 0 1-.51-.87c6.1-6.03 11.83-13.05 14.51-21.43 4.75-14.88 4.66-30.09.98-44.99-7.86-31.8-26.72-60.08-51.66-80.6q-.56-.46-5.25-4.27m-298.11 82.17a.25.25 0 0 1 .2.45q-5.98 4.67-11.86 9.28-10.15 7.98-21.62 13.33c-19.01 8.89-38.47 13.36-59.04 6.72q-4.46-1.44-8.37-3.85a.37.36 31 0 1-.13-.49c.19-.32 11.19 1.11 13.62 1.1 24.96-.08 48.94-6.76 70.81-18.32q11.08-5.85 13.93-7.31 1.38-.71 2.46-.91m468.81 1.54q6.73 3.52 8.61 4.62 3.03 1.79 8.62 4.31 22.01 9.93 42.45 14.28 13.08 2.78 28.93 1.62c3.17-.24 5.39-1.08 8.19-1.67a.62.62 0 0 1 .48 1.11q-6.23 4.35-12.9 5.78c-5.82 1.25-11.28 2.33-17.24 1.82-17.35-1.48-32.4-6.95-47.2-16.7q-10.14-6.68-20.28-14.66a.31.31 0 0 1 .34-.51"/><path d="M868.7 1041.81q.54-1.05 2.42-4.52c4.92-9.03 5.27-18.08 5.58-28.34a.42.41 89.5 0 1 .39-.41h.01a.41.4 83.4 0 1 .43.34c1.72 11.96.44 24.08-8.36 33.25a.29.28-9.9 0 1-.47-.32m-192.76-15.92c1.17 4.37 3.43 8.65 5.75 12.9a.37.36-14.7 0 1-.32.54q-.34 0-.63-.34-5.09-5.98-6.86-12.55-1.76-6.57-.36-14.29.08-.44.38-.62a.37.36-15.4 0 1 .54.31c.13 4.84.32 9.68 1.5 14.05m-115.09-7.55c-1 2.66-4.02 7.01-5.67 10.31q-7.29 14.52-12.72 29.78-10.36 29.09-7.38 59.49a.62.62 0 0 1-1.17.33q-6.22-12.82-6-26.45.21-12.86 3.73-24.12c3.83-12.25 10.27-25.5 18.42-36.43q2.85-3.83 7.28-9.92 1.02-1.4 2.9-3.37a.37.37 0 0 1 .61.38m432.97 5.2.24-.23a.22.21 45.9 0 1 .32.01q4.7 5.53 12.15 16.18 8.14 11.64 12.36 24.87c5.72 17.95 7.29 35.53-2.49 51.56q-.22.35-.51.52a.52.52 0 0 1-.77-.56c2.92-12.97 1.96-26.83-.73-39.54q-5.74-27.2-20.65-52.13a.56.56 0 0 1 .08-.68"/></svg>