<svg xmlns="http://www.w3.org/2000/svg" viewBox="0 0 1563 1563"><g fill="none" stroke="#80807d" stroke-width="2"><path d="M644.36 614.48q-20.9-21.82-36.06-49.52c-10.96-20.02-17.04-41.34-19.71-63.51q-3.91-32.45 12.05-61.36 8.31-15.07 20.67-26.25c11.53-10.43 30.64-19.19 46.09-15.06q8.57 2.29 14.4 10.63 7.52 10.78 3.28 22.48c-1.11 3.05-3.78 6.72-5.23 9.87a2.44 2.43 39.7 0 0 .23 2.43q1.47 2.06 3.9 3.41c12.99 7.18 24.87 1.71 30-11.49q4.36-11.22.15-23.22-5.12-14.6-18.7-22.72a.49.49 0 0 1-.13-.74l.02-.01a.77.76 29.9 0 1 .88-.23c17.94 7.03 30.24 21.21 28.42 41.55q-.8 8.94-5.57 15.82c-4.27 6.15-10.7 8.35-17.88 11.12q-4.36 1.68-3.57 6.56c2.12 13.13 15.23 18.39 27.22 16.48 17.42-2.79 27.94-15.03 32.69-31.48 8.62-29.85-4.69-58.74-27.76-77.66-15.73-12.9-35.52-19.41-55.74-18.29q-9.7.53-20.76 3.7c-14.27 4.09-25.5 9.85-38.11 18.77-19.35 13.7-34.09 33.29-41.97 55.1q-5.63 15.61-7.83 32.17-2.08 15.78.56 33.02 5.61 36.61 23.85 69.23 7.29 13.05 11.92 19.58c5.26 7.4 10.1 14.65 15.74 21.3q14.91 17.59 31.5 33.45 17.1 16.35 38.69 28.03c16.12 8.73 35.76 15.06 52.94 18.29 15.45 2.91 30.94 2.35 47.96 2.09 29.37-.45 59.51-12.49 83.87-28.48q13.5-8.86 28.36-23.3 16.48-16.02 25.33-26.69 16.08-19.39 28.2-38.56 13.98-22.11 23.46-49.79 8.84-25.8 9.05-45.92.25-24.03-7.58-46.18c-14.2-40.11-47.84-71.89-90.49-78.29-19.95-2.99-38.73 1.9-56.27 11.11q-20.93 10.99-32.14 30.98c-5.07 9.03-9.34 20-10.61 30.37q-1.27 10.46 1.63 23.2 4.23 18.59 19.6 28.59c10.27 6.69 23.49 8.57 33.03-.49q3.96-3.76 5.1-5.69c2.34-3.93 3.36-9.82-1.48-12.18-3.42-1.67-8.06-3.65-11.56-6.92-13.43-12.54-14.62-31.76-4.51-46.64q9.01-13.25 24.88-17.28a.24.24 0 0 1 .3.2q.04.36-.3.57-6.71 4.31-12.94 10.63c-6.36 6.46-9.04 13.46-10.07 21.94q-1.91 15.66 9.53 25.33c7.83 6.61 19.57 4.74 25.91-2.69q1.03-1.21 1.27-2.81a1.5 1.48-57.5 0 0-.21-.98c-2.36-3.73-5.15-7.08-6.07-11.13-2.77-12.27 2.86-22.22 13.8-27.66 14.36-7.13 30.68-2.69 43.63 6.32q31.11 21.65 38.77 57.56 3.71 17.34 1.22 36.55c-1.44 11.14-5.81 24.13-9.68 35.58-7.4 21.95-18.9 41.51-32.64 60.98-2.75 3.89-5.49 6.68-8.67 10.07a.08.08 0 0 1-.14-.09q.69-1.54 1.81-3.1 13.12-18.21 21.8-37.94 5.3-12.05 9.25-23.25 7.55-21.42 9.9-44.3c1.82-17.73-2.34-37.37-9.7-53.81-10.36-23.15-38.88-50.13-64.97-31.42-4.83 3.46-8.25 8.2-8.77 14.07-.39 4.4 2.39 4.82 6.2 4.67 8.07-.3 12.91-.34 19.79 2.33q4.74 1.84 9.57 6.15 13.63 12.16 18.06 30.33 3.62 14.81 2.74 29.31-.46 7.57-1.13 15.51a.5.5 0 0 1-.94.2q-5.99-11.05-13.99-19.6c-10.57-11.29-24.42-12.07-37.85-5.6q-12.31 5.93-20.47 14.75c-4.21 4.56-10.01 16.47-4.39 22.48q5.7 6.1 6.73 7.51c15.39 21.17 11.07 53.67-.94 75.24-8.11 14.58-19.45 28.26-33.31 36.7q-.88.54-1.73.7a.41.4-72.2 0 1-.35-.69c16.61-16.31 27.43-37.08 26.78-60.89-.27-9.65-2.77-17.67-7.59-25.5-6.86-11.12-22.25-18.52-33.07-7.84-4.96 4.9-1.88 9.27 1.27 13.94 2.18 3.23 3.61 6.73 4.49 10.18q7.86 30.74-8.35 57.33c-4.62 7.59-11.67 13.7-19.64 16.25q-8.54 2.74-15.56-.08c-12.95-5.18-22.02-17.73-26.28-30.87q-4.79-14.79-2.05-29.21 2.75-14.48 11.63-26.68c2.6-3.58 1.54-8.03-1.51-11.32-10.69-11.49-27.13-2.57-34.48 8.08q-8.69 12.6-8.58 28.4.2 29.63 19.63 51.16.18.2 6.5 7.12a.26.26 0 0 1-.32.4c-12.66-7.56-23.25-19.33-30.99-31.34q-14.46-22.45-13.08-48.76c.63-11.85 4.26-23.29 11.65-32.56a9.85 9.46-89 0 1 1.35-1.36c3.38-2.75 7.99-5.95 8.09-9.18q.22-7.31-4.25-13.83c-8.07-11.78-21.24-19.59-34.75-23.49q-8.31-2.41-16.78 1.05c-12.78 5.22-19.01 13.86-25.15 25.49a.43.43 0 0 1-.8-.16q-.82-8.5-.77-17.51c.09-18.31 6.44-43.09 21.94-54.81 6.18-4.67 15.12-8.35 23.27-7.75q4.05.29 5.93.46a2.07 2.06-80.4 0 0 2.19-1.56q1.96-7.85-2.49-14.25-9.69-13.93-26.41-8.87c-19.35 5.86-33.28 20.87-41.9 38.69q-14.69 30.35-10.13 64.13c1.31 9.74 4.04 22.85 7.5 32.26q2.48 6.76 9.25 22.65c7.94 18.66 18.64 32.2 30.77 48.07a.13.13 0 0 1-.02.18v.01a.23.23 0 0 1-.32-.02" vector-effect="non-scaling-stroke"/><path d="M1052.8 454.63c-3.78-18.21-15.42-32.44-35.7-30.71q-10.97.94-16.45 10.75-.75 1.32-.33 3.4a1.82 1.82 0 0 0 .59 1.02q2.32 1.98 2.54 2.52 2.05 5.08 2.83 10.13c3.05 19.72-.96 38.66-8.03 58.03q-5.07 13.86-11.54 25.9c-9.45 17.62-21.08 37.1-33.82 53.96q-23.65 31.29-52.03 57.99-10.38 9.76-23.48 21.76-13.69 12.54-27.78 21.68c-3.05 1.98-5.14 6.32-1.87 8.83 4.83 3.72 7.89 7 13.08 12.73q.86.94 2.93 1.29a1.11 1.07-61.4 0 0 .93-.29q3.99-3.71 4.86-4.85 16.13-21.36 22.99-28.75 15.37-16.57 22.02-23.48 24.54-25.5 52.37-47.12 24.03-18.66 59.89-37.79c10.01-5.35 21.02-9.62 31.22-12.83 18.36-5.78 39.7-9.07 58.11-4.01q3.4.94 4.85 3.64c1.1 2.04 2.29 2.82 4.3 2.36 8.35-1.89 12.78-13.88 12.26-21.73-.98-14.79-13.39-27.7-27.87-30.56q-.97-.2-5.56-.5a.35.35 0 0 1-.18-.64q11.31-7.97 10.13-22.36c-1.3-15.89-14.04-30.41-28.21-36.87-10.99-5.01-22.24-4.59-30.51 4.34-.84.91-1.34 1.84-1.94 2.36a.37.36-26.1 0 1-.6-.2m-604.44 55.52q-.42-.02-3.74.66-9.81 1.99-16.7 8.84c-11.17 11.11-15.33 25.99-4.72 39.4q1.72 2.17 4.69 2.91a2.41 2.41 0 0 0 2.76-1.3q1.7-3.54 5.65-4.64c9.9-2.76 19.92-3.33 30.67-2.22q22.4 2.31 43.08 11.43 37.49 16.56 70.06 40.51 13.73 10.11 29.64 24.46c17.86 16.11 37.24 35.3 52.25 52.74q10.79 12.54 21.39 28.95c2.07 3.21 6.35 6.48 9.53 2.22q5.12-6.85 10.85-11.43 3.07-2.45 1.81-5.96a2.27 2.17-82 0 0-.72-1c-17.67-13.6-35.19-26.85-51.33-41.65q-29.35-26.94-53.69-58.45-11.47-14.86-20.58-29.97c-10.58-17.56-19.62-34.57-26.07-52.55q-9.34-26.03-8.96-53.31c.07-5.05.83-12.75 4.09-17.19q.46-.63 4.4-4.01a1.42 1.38 75.4 0 0 .46-.81q.31-1.88-.62-3.06-9.41-11.97-24.31-8.31c-14.63 3.6-24.89 15.86-26.44 30.68a.37.37 0 0 1-.68.16c-7.67-12.33-20.31-13.15-32.38-7.22-12.32 6.05-21.13 15.47-27.23 27.78-4.78 9.65-4.35 22.28 4.31 29.37q2.88 2.36 2.89 2.37a.4.4 0 0 1-.36.6" vector-effect="non-scaling-stroke"/><path d="M955.12 648.9q.63-.79 1.63-1.65c24.26-20.56 52.61-35.96 83.22-44.26q23.12-6.28 40.91-5.33c21.58 1.16 44.01 8.86 59.8 24.14 11.85 11.48 22.2 26.02 23.51 42.44 1.13 14.14-5.5 26.05-19.05 30.86-4.09 1.46-12.56 1.75-17.13-1.3-3.83-2.56-7.75-5.53-11.86-1.37-6.11 6.19-6.38 16.18-1.72 23.19 3.47 5.2 9.33 8.44 15.97 9.59q16.44 2.85 30.14-6.92 8.48-6.04 13.05-14.79a.2.2 0 0 1 .37.12q-.65 5.44-3.62 9.96c-9.78 14.83-22.1 24.18-40.79 20.41-8.25-1.66-18.7-6.64-22.29-14.27-2.01-4.27-3.82-9.54-6.28-10.37-7.9-2.67-15.11 4.57-18.66 10.71q-6.19 10.74-1.56 21.78c11.45 27.27 46.74 33.42 71.71 24.61q13.1-4.62 21.95-11.5c15.3-11.89 25.64-30.04 31.86-49.61 8.07-25.41 1.82-54.27-12.65-75.92-24.45-36.55-66.32-57.95-110.38-56.2q-19.2.76-39.25 6.77-20.81 6.24-38.11 15.38c-19.08 10.08-38.12 23.57-56.5 39.19-19.5 16.57-36.34 35.93-50.56 57.51-15.65 23.75-26.15 51.98-26.94 80.43q-.52 18.98.08 27.77 2.43 35.44 18.19 67.68c7.49 15.3 18.37 30.05 29.39 42.09q13.47 14.71 34.42 32.54c6.37 5.43 14.97 11.89 20.55 15.65q17.72 11.96 38.53 21.24 16.16 7.21 35.68 11.77 16.5 3.86 30.26 3.75 13.89-.12 22.33-1.4 32.9-5.02 58.66-24.66c25.06-19.12 43.82-49.3 46.47-81.45 1.84-22.31-6.28-44.5-21.33-60.82-14.45-15.66-32.83-25.93-54.36-27.24-24.51-1.49-52.55 13.15-52.1 40.92q.09 5.65 1.95 10.23c2.11 5.19 8.08 11.72 13.95 12.31 3.18.32 5.76-.7 6.99-3.61 3.83-9.07 7.25-16.18 16.39-20.57 23.46-11.26 45.54 3.09 52.44 25.92a.33.33 0 0 1-.53.34q-.93-.83-1.61-1.99c-8.69-14.9-24.58-22.07-41.53-18.33-5.55 1.22-11.16 4.64-13.89 9.17q-7.69 12.81 1.94 25.1c3.78 4.82 8.83-1.55 11.75-3.17 8.11-4.47 17.12-2.81 24.17 2.62q5.01 3.85 7.04 6.82c9.02 13.19 1.47 33.34-5.91 45.25q-4.84 7.82-13.74 15.67c-11.42 10.07-24.34 18.28-38.51 21.69q-26.68 6.42-54.09 2.08c-18.2-2.89-35.66-9.99-52.37-18.73q-8.21-4.3-18.83-12.15-16.1-11.9-25.58-20.88a.14.14 0 0 1-.02-.19l.01-.01a.16.15 38 0 1 .21-.02q4.98 3.8 19.46 14.17 6.89 4.94 20 11.74 34.41 17.85 71.9 19.75 15.56.78 29.68-2.85c18.33-4.71 34.64-12.69 47.78-26.31q5.16-5.35 7.78-9.92c8.36-14.57 11.78-33.59-6.08-42.65-2.74-1.39-8.76-2.32-10.74.61q-.88 1.3-.98 5c-.25 8.37-1.32 15.5-5.9 22.37q-5.7 8.56-15.06 13.96c-13.64 7.87-29.79 12.15-45.57 11.49q-7.57-.31-15.14-1.33a.33.33 0 0 1-.09-.62c10.57-4.81 19.3-11.84 24.68-22.42 3.88-7.64 3.53-15.11 1.1-23.59-4.8-16.74-17.33-32.13-35.2-35.18a3.75 3.73-69.2 0 0-3.82 1.73c-10.82 17.68-37.07 22.74-55.97 19.21q-26.88-5.01-47.08-23.45-10.18-9.29-18.61-21.74a.01.01 0 0 1 0-.02l.39-.59a.25.25 0 0 1 .39-.03c7.39 7.85 14.83 14.15 24.65 19.66 9.12 5.11 20.64 8.57 30.26 9.14 15.9.95 33.38-5.06 42.54-18.86 5.46-8.24 5.59-18.07-1.8-25.12-3.41-3.24-6.75-4.07-10.57-1.12-19.01 14.65-44.65 16.39-65.68 5.38q-16.71-8.73-21.54-24.89c-1.92-6.44-1.94-10.85.99-16.76q4.36-8.81 11.99-14.21 21.09-14.93 46.88-12.43 11.31 1.1 21.07 5.41c5.59 2.48 10.56 9.08 16.74 2.69 4.41-4.57 6.28-10.74 4.51-16.84q-2.29-7.88-7.39-12.55c-19.01-17.39-50-13.07-70.28-.73q-11.29 6.87-20.13 16.1a.4.4 0 0 1-.69-.34q.15-1.02.96-2.18c8.87-12.8 20.3-22.94 32.53-30.62q22.66-14.24 51.17-12.4 9.95.64 19.08 4.96c4.11 1.94 7.4 3.48 10.08 6.06 5.15 4.93 8.75 9.65 15.2 8.06q6.46-1.59 12.09-6.58 15.89-14.12 18.55-34.49 1.64-12.47-6.31-21.31-8.71-9.69-20.32-16.98a.47.47 0 0 1 .3-.87q5.52.54 11.62-.32 7.38-1.04 8.89-1.06c11.7-.15 23.12 2.38 33.93 6.84q9.9 4.08 17.87 11.87c9.89 9.67 10.63 19.69 9.18 32.57q-.49 4.3 4.23 4.81c12.94 1.42 21.45-11.61 21.67-23.12.27-13.78-5.98-25.02-15.55-34.78-21.41-21.85-54.55-29.36-84.01-24.67-24.08 3.84-46.92 12.39-69.59 23.38q-7.48 3.63-29.56 18.25a.19.19 0 0 1-.25-.27m-361.79-4.62a.18.18 0 0 1-.24.27c-22.68-16.2-48.2-29.47-75.83-35.81-26.59-6.1-56.08-4.55-80.16 7.83q-16.73 8.6-29.31 23.93-5.01 6.11-7.83 15.82c-3.94 13.57-1.1 25.68 12.32 31.56 3.67 1.6 11.84 2.75 11.43-3.67q-1.17-18.12 9.11-30.4c12.17-14.52 36.07-20.47 54.69-19.29q4.85.3 15.92.58a.55.55 0 0 1 .21 1.06q-11.05 4.86-18.74 14.03c-7.14 8.51-11.14 20.75-7.32 31.5q4.19 11.8 13.11 22.1c5.31 6.14 18.58 18.09 26.91 11.34q.79-.64 4.08-4.43c2.81-3.22 6.31-7.23 9.95-8.87 37.86-17.03 76.92 2.73 101.53 32.01q2.64 3.14 4.68 7.44a.21.2 9.9 0 1-.33.23c-10.87-10.63-21.92-19.3-36.13-24.38-19.07-6.82-43.42-4.63-57.72 10.93-7.51 8.18-9.07 18.47-2.12 27.59q3.13 4.11 8.58 3.71 2-.15 6.76-3.32 13.58-9.06 30.82-10.15 23.55-1.49 42.19 14.2c6.41 5.4 10.81 13.58 11.83 21.43.89 6.92-3.31 14.74-7.38 20.44q-2.83 3.97-8.68 8.04-8.18 5.69-18.83 8.83c-13.23 3.9-26.13 3.32-38.92 0-5.19-1.35-10.14-4.23-14.47-7.09-4.06-2.7-6.88-2.72-10.3.9-4.12 4.36-6.07 9.33-4.8 15.57 4.01 19.66 27.54 26.28 44.65 25.91 17.15-.37 34.74-9.21 47.45-20.74q6.79-6.16 7.47-6.66a.37.37 0 0 1 .55.47q-2.66 5.29-6.73 9.54-7.8 8.13-14.54 13.94-10.39 8.97-25.34 15.38-22.22 9.53-45.91 5.74-6.71-1.07-15.18-5.18c-5.71-2.77-9.28-7.22-13.49-11.67-1.72-1.82-3.39-1.91-5.79-1.79-6.92.37-13.17 4.12-18.15 9.28q-14.54 15.03-15.38 36.54c-.29 7.64 4.5 15.19 9.74 20.13q8.36 7.87 18.04 13.59a.37.37 0 0 1-.15.68c-15.93 1.65-32.28 1.36-47.56-3.11q-9.55-2.79-19.86-9.64c-9.31-6.19-14.73-14.88-14.92-25.89q-.04-2.59.1-10.37c.08-4.49-3.33-5.84-7.34-5.16-21.68 3.66-20.72 29.67-12.5 43.95 5.59 9.72 16.39 20.18 26.84 25.96q25.56 14.11 55.18 12.11c31.67-2.15 62.44-12.55 89.13-28.09 5.56-3.23 11.99-8.07 18.46-11.84a.12.12 0 0 1 .14.02l.19.19a.18.17 48.1 0 1-.01.26c-3.25 2.72-7.19 6.28-11.6 9.52q-15.35 11.31-36.9 21.43-31.01 14.57-63.52 16.86-9.26.65-16.31-.14c-15.65-1.74-31.02-8.03-44.21-16.52-12.74-8.19-26.58-22.3-31.37-36.89-3.31-10.06-2.93-22.21 2.46-31.46 6.05-10.39 16.43-16.08 28.4-11.71q1.19.43 6.14 3.91c1.78 1.25 3.45 1.81 5.28 1.05 8.14-3.4 10.48-13.76 7.34-21.29q-2.45-5.87-8.54-9.45c-10.13-5.97-21.4-6.26-32.31-1.33-8.77 3.96-14.54 10.82-20.56 18.93a.39.39 0 0 1-.69-.34c4.06-14.35 16.82-26.31 31.24-29.85q18.85-4.63 33.01 11.37 3.59 4.06 5.3 10.32.64 2.35 2.36 2.88c12.3 3.77 21.41-10.07 21.66-20.6.19-7.77-3.59-17.1-8.74-22.78-24.4-26.91-66.42-19.28-90.91 2.72-11.33 10.18-19.62 24.68-24.75 39.32-9.51 27.17-3.15 58.73 12.61 82.18q4.57 6.8 8.21 10.85c7.99 8.88 16.93 17.88 27.69 24.31q21.3 12.74 46.49 17.23c46.06 8.19 93.04-10.56 130.36-35.98q15.43-10.5 21.79-15.69c28.49-23.25 55.18-50.6 70.97-84 17.8-37.67 20.29-81.44 9.76-121.24q-1.97-7.45-5.45-15.79-18.08-43.33-52.35-75.38-22.53-21.08-48.41-37.32c-24.32-15.27-47.89-25.29-75.31-30.72q-50.99-10.11-94.19 17.72c-18.88 12.16-33.15 28.87-42.75 48.89q-8.44 17.62-10.64 31.21c-3.31 20.44.8 41.73 12.47 58.83 18.86 27.66 50.42 43.48 83.72 33.85 15.23-4.41 26.99-15.1 29.15-31.02 1.66-12.22-2.15-22.51-13.5-28.13q-3.14-1.56-6.84.73-1.51.94-2.48 4.24c-2.51 8.54-7.07 14.68-15.58 18.61q-11.57 5.34-24.07 2.5c-13.25-3.02-23.63-14.86-28.47-27.56a.48.48 0 0 1 .82-.48c6.35 7.71 12.53 14.2 22.03 17.67q20.73 7.56 34.13-7.54c3.1-3.5 4.62-8.18 3.99-12.66-.77-5.37-2.24-10.6-6.21-14.28a1.58 1.58 0 0 0-1.87-.2q-4.47 2.65-8.22 4.96c-8.38 5.17-18.77 1.93-26.4-3.89-18.34-13.98-7.72-41.71 4.23-55.97 17.94-21.41 43.4-35.18 71.61-36.17 15.36-.54 30.71.78 45.46 5.39q9.21 2.88 15.14 5.05c13.64 5 27.31 12 39.67 20.71 7.97 5.62 14.35 9.55 19.56 15.66m130.99 86.86c-13.79 13.58-21.53 31.23-22.58 50.35-1.13 20.44 5.52 41.1 19.96 55.75 14.44 14.66 35 21.61 55.46 20.79 19.12-.77 36.89-8.25 50.68-21.84 13.78-13.58 21.52-31.23 22.57-50.35 1.13-20.44-5.52-41.1-19.96-55.75-14.44-14.66-35-21.61-55.45-20.79-19.13.77-36.9 8.25-50.68 21.84" vector-effect="non-scaling-stroke"/><path d="M1050.39 1111.06q3.96 4.25 6.41 5.94c14.4 9.93 32.9.29 43.49-10.71 6.22-6.45 11.74-14.28 12.63-23.32 1.02-10.27-1.41-18.49-9.9-24.33a.36.36 0 0 1 .16-.66q15.04-1.7 24.34-13.77c8.44-10.94 9.03-25.39-.83-35.9-2.8-2.98-5.2-1.75-7.95 1.02q-4.32 4.34-12.12 5.29c-33.38 4.06-65.33-7.99-94.83-23.93q-42.6-23.03-79.24-57.49-24.01-22.59-42.98-44.94-10.72-12.63-19.69-25.69c-1.82-2.65-5.27-7.53-8.01-8.58a3.01 2.99-59.3 0 0-3.36.87q-5.4 6.36-11.1 10.76c-2.48 1.91-4.67 4.2-3.61 7.12q.4 1.11 4.86 4.04 20.69 13.58 36.23 28.1 19.92 18.61 41.42 41.81 14.66 15.83 25.45 30.05 9.63 12.68 21.52 32.72c19.09 32.17 36.8 67.28 32.45 104.99q-.73 6.27-3.34 11.4a5.59 5.55-5.4 0 1-1.61 1.93l-2.37 1.81a2.22 2.21-31.4 0 0-.66 2.7q1.32 2.82 3.23 4.39c7.72 6.35 17.68 7.11 26.71 3.26q19.12-8.16 22.17-28.72a.31.31 0 0 1 .53-.16m-551.95 1.95c1.94 14.11 12.02 26.51 25.2 30.85 9.43 3.11 20.15 1.39 26.29-6.89 2.08-2.79 1.65-4.93-.49-7.77-3.99-5.3-4.77-16.13-4.74-21.71.16-25.72 7.79-50.01 18.92-72.91q11.76-24.2 27.49-46.96 13.56-19.61 35.61-43.9 9.36-10.3 31.13-31.27c5.83-5.61 13.68-12.05 17.85-15.48q3.48-2.86 26.78-21.23c1-.78 3.33-3.26 2.71-5q-.64-1.75-1.34-2.16-7.3-4.34-12.29-11.47c-1.6-2.29-3.12-3.68-5.8-2.6q-1.27.51-3.42 3.7-18.77 27.81-43.31 51.82-17.33 16.97-31.24 29.24-30.78 27.15-66.11 47.39-16.56 9.5-30.9 15.64-23.21 9.94-49.56 12.15-14.1 1.19-27.18-2.46-1.36-.38-4.95-3.13a2.33 2.17 68.9 0 0-.76-.37c-3.4-.87-5.66 1.48-7.45 4.26q-5.9 9.16-4.57 20.23c1.82 15.28 15.52 26.48 30.7 27.98a.21.21 0 0 1 .12.37q-8.75 7.88-8.99 18.4c-.37 15.84 12.34 30.88 25.82 38.31q6.89 3.8 14.75 4.43c7.5.59 15.54-2.57 18.96-9.58a.41.41 0 0 1 .77.12" vector-effect="non-scaling-stroke"/><path d="M913.23 961.74a.15.14-35.5 0 1 .19.03c5.4 6.93 10.44 13.09 15.53 21.03 2.77 4.33 6.72 9.93 9.44 14.85 9.14 16.52 16.22 35 20.43 52.78 6.32 26.71 3.74 54.48-9.15 78.86-9.29 17.57-25.84 33.96-44.69 40.4-15.21 5.21-30.19 1.82-38.25-12.12q-7.4-12.81 1.06-24.95c1.4-2.01 2.53-3.85 2.85-5.93a2.59 2.58 29.3 0 0-.59-2.09c-4.83-5.7-17.01-6.49-23.16-3.4-8.92 4.48-13.67 15.25-13.21 24.85q.74 15.62 12.7 26.34c4.27 3.83 7.89 6.79 8.69 8.23a.34.34 0 0 1-.44.48q-7.89-3.45-13.62-7.88c-16.45-12.7-20.91-33.37-9.29-51.29 3.96-6.12 10.73-8.36 17.53-10.75a3.9 3.88 1.3 0 0 2.29-2.17c1.74-4.16 1.1-7.44-1.99-10.98-7.75-8.89-18.25-10.8-29.35-8.41-11.67 2.51-21.09 13.21-25.45 23.88-9.63 23.57-3.2 51.22 12.55 70.47q10.77 13.18 22.06 19.76 35.67 20.8 75.28 6.09 27.9-10.37 47.07-30.75 19.45-20.7 28.18-48.71 10.1-32.43 2.23-68.79-4.3-19.87-11.1-35.15-14.64-32.9-37.73-61.99-10.73-13.52-19.26-22.47c-26.52-27.8-58.41-47.63-95.9-57.69q-16.6-4.46-35.87-4.77c-15.49-.24-27.45-.4-41.03 2.71q-11.77 2.69-22.15 6.14c-15.03 4.99-28.07 12.42-42.79 22.11q-18.39 12.11-31.26 25.38c-22.18 22.86-40.79 45.95-55.3 72.38q-10.27 18.69-16.98 39.58c-12.57 39.12-10.05 81.82 12.28 116.67q5.67 8.85 7.07 10.67 2.48 3.2 10.78 11.78 17.35 17.93 40.91 25.72c11.56 3.83 25.29 6.66 37.7 5.3 19.43-2.13 38.68-9.48 52.74-22.28 16.12-14.66 25.99-36.4 26.39-58.41.37-20-10.5-40.99-30.34-47.02q-16.68-5.08-27.59 8.21-3.36 4.09-2.67 9.79.4 3.37 2.82 4.51 4.13 1.94 5.35 2.39c6.02 2.21 11.55 8.19 14.1 13.56q6.04 12.68 2.54 25.28c-3.31 11.94-11.46 20.21-22.85 26q-3.06 1.55-6.24 2.17a.31.31 0 0 1-.22-.57c13.23-8.23 23.16-23.67 21.96-39.54-1.33-17.45-17.54-29.19-33.56-18.08-2.24 1.56-4.66 5.44-2.41 7.93q3.58 3.97 5.36 8.17c3.73 8.83-.01 19.42-7.04 25.29-15.44 12.92-37.48 7.5-52.01-3.97-14.39-11.38-25.5-25.26-31.77-42.63q-9.26-25.68-4.45-53.63c4.18-24.22 11.81-47.86 24.38-68.9q6.08-10.19 10.32-16.41 3.43-5.03 12.48-15.58a.31.31 0 0 1 .42-.04l.01.01a.3.29-53.2 0 1 .05.4q-11.95 17.03-15.32 23.18-16.56 30.16-22.8 63.59-3.69 19.74-2.13 37.67c1.97 22.79 11.27 43.95 28.34 59.62 8.28 7.6 17.8 12.38 29.16 13.19 12.18.86 21.54-5.28 23.56-17.82q.31-1.97-.26-4.53a1.51 1.5-80.6 0 0-.67-.94q-1.91-1.19-4.41-1.2c-5.3-.02-11.41.09-16.27-1.85-10.98-4.38-18.56-12.26-24.14-22.85-5.56-10.55-9.83-25.35-8.66-37.17q1.2-12.03 1.24-20.87a.38.38 0 0 1 .71-.18q4.52 8.26 11.33 15.65c8.65 9.4 20.19 15.35 32.93 11.44q4.82-1.48 12.95-6.17c8.46-4.86 15.13-10.54 19.83-18.85 2.88-5.11 3.65-10.5-1.02-14.83q-.79-.73-5.68-5.58c-5.06-5.02-8.47-13.56-9.56-19.75-5.24-29.81 6.23-56.81 25.85-79.11q6.34-7.2 17.36-15.39.66-.49 1.05-.45a.53.53 0 0 1 .33.89q-9.99 10.37-16.93 22.51c-4.74 8.28-8.37 17.77-8.94 27.39q-.35 5.87-.38 10.06c-.1 12.14 3.62 25.5 13.25 33.33 8.13 6.62 17.95 8.63 26.39 1.57 2.83-2.37 4.54-6.34 2.42-9.39q-4.25-6.08-6.28-11.46c-6.5-17.28-5.72-38.45 3.08-54.89q3.63-6.78 6.13-10.11c4.26-5.69 11.72-10.05 18.46-12.58q7.06-2.65 14.03.35 9.49 4.07 14.88 10.16c6.3 7.11 10.87 16.07 13.03 26.24q5.72 26.95-10.03 49.99-1.42 2.07-1.85 3.34c-1.26 3.76 2.07 7.9 4.7 10.06 9.24 7.58 22.14 2.92 29.46-4.73 7.43-7.75 11.33-19.79 12.15-30.69 1.23-16.41-6.58-34.91-16.2-47.78q-4.25-5.67-9.52-11.66a.43.43 0 0 1 .42-.7c1.63.38 2.83 1.81 3.84 2.59q16.88 13.01 27.28 31.26 13.32 23.37 10.8 50.36-1.6 17.09-11.82 29.32-1.34 1.6-5.78 4.75c-3.52 2.51-2.24 8.2-.95 11.55q3.52 9.14 10.52 14.72c12.95 10.32 31.44 20.93 47.96 11.27q14.24-8.33 20.12-23.54a.49.49 0 0 1 .95.1c3.65 23 .6 46.41-12.66 65.82-5.62 8.22-17.14 14.86-26.83 16.01q-3.74.44-9.94.1a2.8 2.78-78.1 0 0-2.76 1.81c-1.99 5.3 1.97 12.83 5.72 16.45q5.36 5.2 12.98 5.81 15.16 1.23 27.43-8.26c15.71-12.15 26.04-27.75 31.23-47.69 6.84-26.31 4.98-53.79-3.16-78.9q-8.04-24.79-22.4-47.63-7.45-11.85-10.66-17.09a.25.24 57.4 0 1 .07-.33l.04-.03m-79.11-307.33q5.38-2.52 10.19-6.11 16.38-12.22 30.32-28.65c9.79-11.52 17.47-24.48 22.91-37.61 8.57-20.68 13.7-51.7-.42-71.58q-6.51-9.17-18.15-11.94a.25.25 0 0 0-.27.39c.8 1.16 2.26 2.09 2.99 2.89 16.47 17.77 18.23 40.29 13.59 63.03q-2.25 11.07-6.35 19.86-6.98 14.98-11.41 22.34-16.9 28.05-43.5 47.21a.1.1 0 0 0 .1.17m-121.13-.43a.16.15-57.4 0 0-.04-.21c-26.06-19.07-47.97-45.27-57.21-76.5-3.71-12.56-5.08-22.19-4.95-34.51.18-16.31 7.72-29.59 18.37-41.86q.49-.57.48-1.37a.42.41-10.8 0 0-.56-.37c-14.79 5.39-23.3 19.28-25.15 34.35-2.41 19.75 2.41 41.16 11.15 58.66q8.02 16.07 19.47 29.3 5.54 6.41 17.6 17.63 11.15 10.38 20.59 14.95a.19.19 0 0 0 .25-.07" vector-effect="non-scaling-stroke"/><path d="m681.41 526.92-.02-.01a.44.43 39.9 0 0-.6.05q-6.44 7.05-8.15 14.26-2.34 9.9-.8 20.2a.34.34 0 0 0 .67-.02q.23-2.62.68-9.7.83-13.35 8.3-24.17a.45.44-53.4 0 0-.08-.61m185.95.15a.26.26 0 0 0-.37.36q6.82 9.4 7.74 20.51.15 1.8-.07 11.56a.61.6 3.6 0 0 .54.61h.03a.51.51 0 0 0 .55-.39c2.49-11.4 1.18-25.12-8.42-32.65m123.97 22.19q1.02-.53 2.05-1.88c15.03-19.7 30.37-41.63 30.49-67.66.06-10.76-.72-19.66-6.05-28.8q-.21-.36-.47-.47a.42.42 0 0 0-.59.44q3.26 22.13-2.91 43.95c-2.7 9.54-6.09 19.56-9.9 28.11q-5.12 11.5-12.89 26.03a.2.2 0 0 0 .27.28m20.99 17.62a.56.56 0 0 0 .71.15q20-10.98 40.86-18.11c16.54-5.66 35.89-9.37 52.84-6.44a.56.56 0 0 0 .36-1.04c-21.88-11.44-46.99-5.54-67.9 6.5-4.57 2.63-11.08 6.63-16.04 10.38q-6.26 4.74-10.73 7.86a.48.47-36.4 0 0-.11.68l.01.02m-452.99-16.95q-.05-.11-7.46-14.75-4.07-8.02-9.23-22.31c-6.77-18.72-10.45-40.34-6.48-60.21a.45.45 0 0 0-.81-.34c-13.47 20.15-6.83 51.22 4.55 70.79q6.38 10.97 17.13 24.96 1.57 2.05 1.91 2.24a.29.28-89 0 0 .39-.38m-21.77 17.38a.45.44-47.1 0 0-.02-.65q-12.89-11.17-27.28-19.18c-18.07-10.07-46.13-16.29-65.51-5.02a.79.79 0 0 0-.05 1.34q.29.19 1.06.02 4.96-1.07 8.73-1.1 15.35-.11 30.2 3.33 28.38 6.57 52.42 21.48a.23.21 35.8 0 0 .26-.03l.19-.19m369.29 155.87a.22.21 34.4 0 0 .3-.05q10.36-13.54 22.41-23.8 17.53-14.91 38.89-25.58 27.46-13.71 57.8-11.2c14.43 1.2 24.92 7.9 34.15 18.36a.28.28 0 0 0 .49-.25q-1.3-5.56-3.97-10.57c-4.85-9.08-16.66-14.19-26.39-15.77q-10.11-1.65-24.24.3-15.04 2.08-30.63 8.85-29.97 13.03-51.54 36.92c-6.04 6.69-12.52 14.22-17.37 22.4a.3.29 33.1 0 0 .09.39h.01" vector-effect="non-scaling-stroke"/><path d="M1032.26 691.75c-7.65-9.33-21.24-10.32-32.45-7.61a.5.5 0 0 0-.38.56v.03a.6.6 0 0 0 .62.52q9.64-.44 11.42-.33 11 .67 20.44 7.2a.26.26 0 0 0 .35-.37M905.62 847.57q4.11 7.57 7.95 12.25 10.32 12.58 22.38 23.45c11.52 10.39 23.59 18.01 37.24 23.29 20.55 7.95 39.84 12.32 60.01 8.36 13.14-2.58 24.86-12.18 26.91-26.05a.44.44 0 0 0-.66-.44l-.75.45a.55.37-74.3 0 0-.13.11c-11.61 14.52-26.92 20.5-45.42 19.82-16.12-.58-31.04-4.37-45.17-10.94-19.51-9.05-37.49-21.34-52.12-38.14q-5.03-5.78-10.16-12.21a.05.05 0 0 0-.08.05" vector-effect="non-scaling-stroke"/><path d="M1032.76 877.99a.45.45 0 0 0-.61-.09q-10.97 7.51-24.46 8.29-7.16.42-9.81.64a.34.34 0 0 0-.02.68q10.4 1.6 20.41-.72 7.3-1.7 14.45-8.18a.44.43 50.4 0 0 .05-.6l-.01-.02m-385.3-153.77a.17.16-33.2 0 0 .05-.22q-4.5-7.51-10.13-14.14-22.38-26.36-52.22-43.03c-19.06-10.64-39.44-14.88-61.14-12.73q-8.47.83-14.92 3.55-13.57 5.69-18.78 19.8a.49.48 86.2 0 0 .68.6l.97-.52a2.7 2.65-79.2 0 0 .36-.25q15.05-12.54 33.12-15.35c13.34-2.07 28.6.26 41.63 4.49q27.5 8.94 50.12 27.36 12.91 10.51 30.05 30.42a.16.16 0 0 0 .21.03v-.01" vector-effect="non-scaling-stroke"/><path d="M532.92 682.95q-8.53 2.02-15.82 7.63a.32.32 0 0 0 .33.55c6.86-2.93 10.29-4.84 15.97-6.19 5.68-1.34 9.6-1.16 17.04-1.62a.32.32 0 0 0 .05-.64q-9.03-1.75-17.57.27m111.88 161q-10.49 14.43-12.17 16.24-13.44 14.5-29.64 24.81c-20.32 12.94-41.17 20.79-65.7 21.02-17.93.18-34.15-3.86-45.33-18.18a.49.48-68.8 0 0-.86.38c2.15 12.82 12.13 21.3 24.72 24.2q13.86 3.2 26.17 1.79 9.12-1.04 18.52-3.42 7.65-1.95 17.64-6.53 38.4-17.61 62.81-52.53 2-2.86 4.16-7.59a.19.19 0 0 0-.32-.19" vector-effect="non-scaling-stroke"/><path d="M519.61 877.5c6.61 9.33 19.39 11.18 30.17 9.38a.48.47 83.2 0 0 .39-.5v-.03a.57.56 89.2 0 0-.54-.53q-9.15-.25-10.82-.47-10.36-1.37-18.84-8.18a.24.24 0 0 0-.36.33m489.77 122.94a.32.32 0 0 0 .03.48q11.02 8.64 20.56 14.84c14.96 9.72 29.57 15.16 47.67 16.73 5.06.43 9.91-.39 15.34-1.52q8.95-1.85 14.27-6.22.38-.31.39-.58a.53.53 0 0 0-.71-.52q-2.91 1.01-6.68 1.52-14.86 2.01-30.73-1.46-32.4-7.08-59.75-23.5a.16.16 0 0 0-.19.02l-.2.21m-15.55 22.99q.04 1.06.75 2.25 12.81 21.63 18.85 46.38c3.43 14.05 5.04 29.91 1.73 43.87a.41.4 79.7 0 0 .62.43q.77-.51 1.32-1.51c9.03-16.41 7.41-33.58 1.6-50.99-5.2-15.63-14.24-28.4-24.35-40.62a.29.29 0 0 0-.52.19m-553.48 1.25q.92.85 2.06 1.42c29.17 14.61 65.52.1 88.84-18.59q7.87-6.32 10.23-7.91a.42.42 0 0 0 .13-.57l-.01-.02a.45.45 0 0 0-.58-.17q-6.48 3.25-13.41 6.99c-22.99 12.43-47.13 19.57-73.12 19.78q-3.88.03-6.95-.43-1.27-.19-6.93-1.03a.31.31 0 0 0-.26.53m120.31-6.74a.49.49 0 0 0-.74.05q-11.46 15.03-13.92 19.02c-11.88 19.28-19.73 39.67-17.74 61.76q.81 8.99 4.78 17.69.66 1.46 1.6 2.22a.31.31 0 0 0 .5-.28c-3.85-35.53 7.81-68.69 25.74-100.06a.18.17-51.9 0 0-.02-.2l-.2-.2m150.7-101.7c-13.7 7.86-25.46 18.94-35.24 31.39q-.42.53-6.38 8.6c-8.28 11.19-15 24.38-18.9 36.37-6.72 20.65-10.48 50.98 6.13 68.44q5.63 5.92 15.06 7.28a.59.53 31.5 0 0 .33-.06q.18-.1.24-.22a.32.32 0 0 0-.1-.44c-18.07-11.72-21.1-36.3-17.91-55.53q3.48-20.96 12.24-39.71c4.89-10.49 12.56-21.93 19.93-32.12q2.06-2.85 10.81-11.67 8.38-8.45 14-11.96a.21.2-31.9 0 0 .07-.29v-.01a.21.21 0 0 0-.28-.07m127.8.31a.19.19 0 0 0 .04.26q23.28 17.84 39.27 43 9.73 15.32 15.85 34.94 6.41 20.56 3.84 39.69c-.9 6.68-3.24 15.65-7.32 21.65q-4.4 6.46-10.31 12.34a.41.41 0 0 0 .39.68c6.47-1.66 13.77-5.29 17.56-11.16q5.75-8.93 7.12-20.03 1.17-9.48 1.15-11.42-.25-23.78-10.35-45.2-13.1-27.78-35.9-49.06-10.17-9.48-21.05-15.76a.22.22 0 0 0-.29.06v.01" vector-effect="non-scaling-stroke"/><path d="m868.61 1042.28.02.01a.42.41 39.1 0 0 .57-.05q6.17-6.92 7.74-13.95 2.15-9.63.52-19.6a.33.33 0 0 0-.65.02q-.19 2.55-.53 9.43-.64 12.96-7.76 23.55a.44.43-54.2 0 0 .09.59m-194.71-15.83q1.86 6.89 7.06 12.82a.44.44 0 0 0 .71-.5c-2.17-3.86-4.53-8.5-5.71-12.87-1.18-4.38-1.48-9.57-1.55-14a.44.44 0 0 0-.86-.08q-1.51 7.74.35 14.63" vector-effect="non-scaling-stroke"/></g><path fill="#fffffa" d="M1563 0v1563H0V0zM644.36 614.48q-20.9-21.82-36.06-49.52c-10.96-20.02-17.04-41.34-19.71-63.51q-3.91-32.45 12.05-61.36 8.31-15.07 20.67-26.25c11.53-10.43 30.64-19.19 46.09-15.06q8.57 2.29 14.4 10.63 7.52 10.78 3.28 22.48c-1.11 3.05-3.78 6.72-5.23 9.87a2.44 2.43 39.7 0 0 .23 2.43q1.47 2.06 3.9 3.41c12.99 7.18 24.87 1.71 30-11.49q4.36-11.22.15-23.22-5.12-14.6-18.7-22.72a.49.49 0 0 1-.13-.74l.02-.01a.77.76 29.9 0 1 .88-.23c17.94 7.03 30.24 21.21 28.42 41.55q-.8 8.94-5.57 15.82c-4.27 6.15-10.7 8.35-17.88 11.12q-4.36 1.68-3.57 6.56c2.12 13.13 15.23 18.39 27.22 16.48 17.42-2.79 27.94-15.03 32.69-31.48 8.62-29.85-4.69-58.74-27.76-77.66-15.73-12.9-35.52-19.41-55.74-18.29q-9.7.53-20.76 3.7c-14.27 4.09-25.5 9.85-38.11 18.77-19.35 13.7-34.09 33.29-41.97 55.1q-5.63 15.61-7.83 32.17-2.08 15.78.56 33.02 5.61 36.61 23.85 69.23 7.29 13.05 11.92 19.58c5.26 7.4 10.1 14.65 15.74 21.3q14.91 17.59 31.5 33.45 17.1 16.35 38.69 28.03c16.12 8.73 35.76 15.06 52.94 18.29 15.45 2.91 30.94 2.35 47.96 2.09 29.37-.45 59.51-12.49 83.87-28.48q13.5-8.86 28.36-23.3 16.48-16.02 25.33-26.69 16.08-19.39 28.2-38.56 13.98-22.11 23.46-49.79 8.84-25.8 9.05-45.92.25-24.03-7.58-46.18c-14.2-40.11-47.84-71.89-90.49-78.29-19.95-2.99-38.73 1.9-56.27 11.11q-20.93 10.99-32.14 30.98c-5.07 9.03-9.34 20-10.61 30.37q-1.27 10.46 1.63 23.2 4.23 18.59 19.6 28.59c10.27 6.69 23.49 8.57 33.03-.49q3.96-3.76 5.1-5.69c2.34-3.93 3.36-9.82-1.48-12.18-3.42-1.67-8.06-3.65-11.56-6.92-13.43-12.54-14.62-31.76-4.51-46.64q9.01-13.25 24.88-17.28a.24.24 0 0 1 .3.2q.04.36-.3.57-6.71 4.31-12.94 10.63c-6.36 6.46-9.04 13.46-10.07 21.94q-1.91 15.66 9.53 25.33c7.83 6.61 19.57 4.74 25.91-2.69q1.03-1.21 1.27-2.81a1.5 1.48-57.5 0 0-.21-.98c-2.36-3.73-5.15-7.08-6.07-11.13-2.77-12.27 2.86-22.22 13.8-27.66 14.36-7.13 30.68-2.69 43.63 6.32q31.11 21.65 38.77 57.56 3.71 17.34 1.22 36.55c-1.44 11.14-5.81 24.13-9.68 35.58-7.4 21.95-18.9 41.51-32.64 60.98-2.75 3.89-5.49 6.68-8.67 10.07a.08.08 0 0 1-.14-.09q.69-1.54 1.81-3.1 13.12-18.21 21.8-37.94 5.3-12.05 9.25-23.25 7.55-21.42 9.9-44.3c1.82-17.73-2.34-37.37-9.7-53.81-10.36-23.15-38.88-50.13-64.97-31.42-4.83 3.46-8.25 8.2-8.77 14.07-.39 4.4 2.39 4.82 6.2 4.67 8.07-.3 12.91-.34 19.79 2.33q4.74 1.84 9.57 6.15 13.63 12.16 18.06 30.33 3.62 14.81 2.74 29.31-.46 7.57-1.13 15.51a.5.5 0 0 1-.94.2q-5.99-11.05-13.99-19.6c-10.57-11.29-24.42-12.07-37.85-5.6q-12.31 5.93-20.47 14.75c-4.21 4.56-10.01 16.47-4.39 22.48q5.7 6.1 6.73 7.51c15.39 21.17 11.07 53.67-.94 75.24-8.11 14.58-19.45 28.26-33.31 36.7q-.88.54-1.73.7a.41.4-72.2 0 1-.35-.69c16.61-16.31 27.43-37.08 26.78-60.89-.27-9.65-2.77-17.67-7.59-25.5-6.86-11.12-22.25-18.52-33.07-7.84-4.96 4.9-1.88 9.27 1.27 13.94 2.18 3.23 3.61 6.73 4.49 10.18q7.86 30.74-8.35 57.33c-4.62 7.59-11.67 13.7-19.64 16.25q-8.54 2.74-15.56-.08c-12.95-5.18-22.02-17.73-26.28-30.87q-4.79-14.79-2.05-29.21 2.75-14.48 11.63-26.68c2.6-3.58 1.54-8.03-1.51-11.32-10.69-11.49-27.13-2.57-34.48 8.08q-8.69 12.6-8.58 28.4.2 29.63 19.63 51.16.18.2 6.5 7.12a.26.26 0 0 1-.32.4c-12.66-7.56-23.25-19.33-30.99-31.34q-14.46-22.45-13.08-48.76c.63-11.85 4.26-23.29 11.65-32.56a9.85 9.46-89 0 1 1.35-1.36c3.38-2.75 7.99-5.95 8.09-9.18q.22-7.31-4.25-13.83c-8.07-11.78-21.24-19.59-34.75-23.49q-8.31-2.41-16.78 1.05c-12.78 5.22-19.01 13.86-25.15 25.49a.43.43 0 0 1-.8-.16q-.82-8.5-.77-17.51c.09-18.31 6.44-43.09 21.94-54.81 6.18-4.67 15.12-8.35 23.27-7.75q4.05.29 5.93.46a2.07 2.06-80.4 0 0 2.19-1.56q1.96-7.85-2.49-14.25-9.69-13.93-26.41-8.87c-19.35 5.86-33.28 20.87-41.9 38.69q-14.69 30.35-10.13 64.13c1.31 9.74 4.04 22.85 7.5 32.26q2.48 6.76 9.25 22.65c7.94 18.66 18.64 32.2 30.77 48.07a.13.13 0 0 1-.02.18v.01a.23.23 0 0 1-.32-.02m408.44-159.85c-3.78-18.21-15.42-32.44-35.7-30.71q-10.97.94-16.45 10.75-.75 1.32-.33 3.4a1.82 1.82 0 0 0 .59 1.02q2.32 1.98 2.54 2.52 2.05 5.08 2.83 10.13c3.05 19.72-.96 38.66-8.03 58.03q-5.07 13.86-11.54 25.9c-9.45 17.62-21.08 37.1-33.82 53.96q-23.65 31.29-52.03 57.99-10.38 9.76-23.48 21.76-13.69 12.54-27.78 21.68c-3.05 1.98-5.14 6.32-1.87 8.83 4.83 3.72 7.89 7 13.08 12.73q.86.94 2.93 1.29a1.11 1.07-61.4 0 0 .93-.29q3.99-3.71 4.86-4.85 16.13-21.36 22.99-28.75 15.37-16.57 22.02-23.48 24.54-25.5 52.37-47.12 24.03-18.66 59.89-37.79c10.01-5.35 21.02-9.62 31.22-12.83 18.36-5.78 39.7-9.07 58.11-4.01q3.4.94 4.85 3.64c1.1 2.04 2.29 2.82 4.3 2.36 8.35-1.89 12.78-13.88 12.26-21.73-.98-14.79-13.39-27.7-27.87-30.56q-.97-.2-5.56-.5a.35.35 0 0 1-.18-.64q11.31-7.97 10.13-22.36c-1.3-15.89-14.04-30.41-28.21-36.87-10.99-5.01-22.24-4.59-30.51 4.34-.84.91-1.34 1.84-1.94 2.36a.37.36-26.1 0 1-.6-.2m-604.44 55.52q-.42-.02-3.74.66-9.81 1.99-16.7 8.84c-11.17 11.11-15.33 25.99-4.72 39.4q1.72 2.17 4.69 2.91a2.41 2.41 0 0 0 2.76-1.3q1.7-3.54 5.65-4.64c9.9-2.76 19.92-3.33 30.67-2.22q22.4 2.31 43.08 11.43 37.49 16.56 70.06 40.51 13.73 10.11 29.64 24.46c17.86 16.11 37.24 35.3 52.25 52.74q10.79 12.54 21.39 28.95c2.07 3.21 6.35 6.48 9.53 2.22q5.12-6.85 10.85-11.43 3.07-2.45 1.81-5.96a2.27 2.17-82 0 0-.72-1c-17.67-13.6-35.19-26.85-51.33-41.65q-29.35-26.94-53.69-58.45-11.47-14.86-20.58-29.97c-10.58-17.56-19.62-34.57-26.07-52.55q-9.34-26.03-8.96-53.31c.07-5.05.83-12.75 4.09-17.19q.46-.63 4.4-4.01a1.42 1.38 75.4 0 0 .46-.81q.31-1.88-.62-3.06-9.41-11.97-24.31-8.31c-14.63 3.6-24.89 15.86-26.44 30.68a.37.37 0 0 1-.68.16c-7.67-12.33-20.31-13.15-32.38-7.22-12.32 6.05-21.13 15.47-27.23 27.78-4.78 9.65-4.35 22.28 4.31 29.37q2.88 2.36 2.89 2.37a.4.4 0 0 1-.36.6M955.12 648.9q.63-.79 1.63-1.65c24.26-20.56 52.61-35.96 83.22-44.26q23.12-6.28 40.91-5.33c21.58 1.16 44.01 8.86 59.8 24.14 11.85 11.48 22.2 26.02 23.51 42.44 1.13 14.14-5.5 26.05-19.05 30.86-4.09 1.46-12.56 1.75-17.13-1.3-3.83-2.56-7.75-5.53-11.86-1.37-6.11 6.19-6.38 16.18-1.72 23.19 3.47 5.2 9.33 8.44 15.97 9.59q16.44 2.85 30.14-6.92 8.48-6.04 13.05-14.79a.2.2 0 0 1 .37.12q-.65 5.44-3.62 9.96c-9.78 14.83-22.1 24.18-40.79 20.41-8.25-1.66-18.7-6.64-22.29-14.27-2.01-4.27-3.82-9.54-6.28-10.37-7.9-2.67-15.11 4.57-18.66 10.71q-6.19 10.74-1.56 21.78c11.45 27.27 46.74 33.42 71.71 24.61q13.1-4.62 21.95-11.5c15.3-11.89 25.64-30.04 31.86-49.61 8.07-25.41 1.82-54.27-12.65-75.92-24.45-36.55-66.32-57.95-110.38-56.2q-19.2.76-39.25 6.77-20.81 6.24-38.11 15.38c-19.08 10.08-38.12 23.57-56.5 39.19-19.5 16.57-36.34 35.93-50.56 57.51-15.65 23.75-26.15 51.98-26.94 80.43q-.52 18.98.08 27.77 2.43 35.44 18.19 67.68c7.49 15.3 18.37 30.05 29.39 42.09q13.47 14.71 34.42 32.54c6.37 5.43 14.97 11.89 20.55 15.65q17.72 11.96 38.53 21.24 16.16 7.21 35.68 11.77 16.5 3.86 30.26 3.75 13.89-.12 22.33-1.4 32.9-5.02 58.66-24.66c25.06-19.12 43.82-49.3 46.47-81.45 1.84-22.31-6.28-44.5-21.33-60.82-14.45-15.66-32.83-25.93-54.36-27.24-24.51-1.49-52.55 13.15-52.1 40.92q.09 5.65 1.95 10.23c2.11 5.19 8.08 11.72 13.95 12.31 3.18.32 5.76-.7 6.99-3.61 3.83-9.07 7.25-16.18 16.39-20.57 23.46-11.26 45.54 3.09 52.44 25.92a.33.33 0 0 1-.53.34q-.93-.83-1.61-1.99c-8.69-14.9-24.58-22.07-41.53-18.33-5.55 1.22-11.16 4.64-13.89 9.17q-7.69 12.81 1.94 25.1c3.78 4.82 8.83-1.55 11.75-3.17 8.11-4.47 17.12-2.81 24.17 2.62q5.01 3.85 7.04 6.82c9.02 13.19 1.47 33.34-5.91 45.25q-4.84 7.82-13.74 15.67c-11.42 10.07-24.34 18.28-38.51 21.69q-26.68 6.42-54.09 2.08c-18.2-2.89-35.66-9.99-52.37-18.73q-8.21-4.3-18.83-12.15-16.1-11.9-25.58-20.88a.14.14 0 0 1-.02-.19l.01-.01a.16.15 38 0 1 .21-.02q4.98 3.8 19.46 14.17 6.89 4.94 20 11.74 34.41 17.85 71.9 19.75 15.56.78 29.68-2.85c18.33-4.71 34.64-12.69 47.78-26.31q5.16-5.35 7.78-9.92c8.36-14.57 11.78-33.59-6.08-42.65-2.74-1.39-8.76-2.32-10.74.61q-.88 1.3-.98 5c-.25 8.37-1.32 15.5-5.9 22.37q-5.7 8.56-15.06 13.96c-13.64 7.87-29.79 12.15-45.57 11.49q-7.57-.31-15.14-1.33a.33.33 0 0 1-.09-.62c10.57-4.81 19.3-11.84 24.68-22.42 3.88-7.64 3.53-15.11 1.1-23.59-4.8-16.74-17.33-32.13-35.2-35.18a3.75 3.73-69.2 0 0-3.82 1.73c-10.82 17.68-37.07 22.74-55.97 19.21q-26.88-5.01-47.08-23.45-10.18-9.29-18.61-21.74a.01.01 0 0 1 0-.02l.39-.59a.25.25 0 0 1 .39-.03c7.39 7.85 14.83 14.15 24.65 19.66 9.12 5.11 20.64 8.57 30.26 9.14 15.9.95 33.38-5.06 42.54-18.86 5.46-8.24 5.59-18.07-1.8-25.12-3.41-3.24-6.75-4.07-10.57-1.12-19.01 14.65-44.65 16.39-65.68 5.38q-16.71-8.73-21.54-24.89c-1.92-6.44-1.94-10.85.99-16.76q4.36-8.81 11.99-14.21 21.09-14.93 46.88-12.43 11.31 1.1 21.07 5.41c5.59 2.48 10.56 9.08 16.74 2.69 4.41-4.57 6.28-10.74 4.51-16.84q-2.29-7.88-7.39-12.55c-19.01-17.39-50-13.07-70.28-.73q-11.29 6.87-20.13 16.1a.4.4 0 0 1-.69-.34q.15-1.02.96-2.18c8.87-12.8 20.3-22.94 32.53-30.62q22.66-14.24 51.17-12.4 9.95.64 19.08 4.96c4.11 1.94 7.4 3.48 10.08 6.06 5.15 4.93 8.75 9.65 15.2 8.06q6.46-1.59 12.09-6.58 15.89-14.12 18.55-34.49 1.64-12.47-6.31-21.31-8.71-9.69-20.32-16.98a.47.47 0 0 1 .3-.87q5.52.54 11.62-.32 7.38-1.04 8.89-1.06c11.7-.15 23.12 2.38 33.93 6.84q9.9 4.08 17.87 11.87c9.89 9.67 10.63 19.69 9.18 32.57q-.49 4.3 4.23 4.81c12.94 1.42 21.45-11.61 21.67-23.12.27-13.78-5.98-25.02-15.55-34.78-21.41-21.85-54.55-29.36-84.01-24.67-24.08 3.84-46.92 12.39-69.59 23.38q-7.48 3.63-29.56 18.25a.19.19 0 0 1-.25-.27m-361.79-4.62a.18.18 0 0 1-.24.27c-22.68-16.2-48.2-29.47-75.83-35.81-26.59-6.1-56.08-4.55-80.16 7.83q-16.73 8.6-29.31 23.93-5.01 6.11-7.83 15.82c-3.94 13.57-1.1 25.68 12.32 31.56 3.67 1.6 11.84 2.75 11.43-3.67q-1.17-18.12 9.11-30.4c12.17-14.52 36.07-20.47 54.69-19.29q4.85.3 15.92.58a.55.55 0 0 1 .21 1.06q-11.05 4.86-18.74 14.03c-7.14 8.51-11.14 20.75-7.32 31.5q4.19 11.8 13.11 22.1c5.31 6.14 18.58 18.09 26.91 11.34q.79-.64 4.08-4.43c2.81-3.22 6.31-7.23 9.95-8.87 37.86-17.03 76.92 2.73 101.53 32.01q2.64 3.14 4.68 7.44a.21.2 9.9 0 1-.33.23c-10.87-10.63-21.92-19.3-36.13-24.38-19.07-6.82-43.42-4.63-57.72 10.93-7.51 8.18-9.07 18.47-2.12 27.59q3.13 4.11 8.58 3.71 2-.15 6.76-3.32 13.58-9.06 30.82-10.15 23.55-1.49 42.19 14.2c6.41 5.4 10.81 13.58 11.83 21.43.89 6.92-3.31 14.74-7.38 20.44q-2.83 3.97-8.68 8.04-8.18 5.69-18.83 8.83c-13.23 3.9-26.13 3.32-38.92 0-5.19-1.35-10.14-4.23-14.47-7.09-4.06-2.7-6.88-2.72-10.3.9-4.12 4.36-6.07 9.33-4.8 15.57 4.01 19.66 27.54 26.28 44.65 25.91 17.15-.37 34.74-9.21 47.45-20.74q6.79-6.16 7.47-6.66a.37.37 0 0 1 .55.47q-2.66 5.29-6.73 9.54-7.8 8.13-14.54 13.94-10.39 8.97-25.34 15.38-22.22 9.53-45.91 5.74-6.71-1.07-15.18-5.18c-5.71-2.77-9.28-7.22-13.49-11.67-1.72-1.82-3.39-1.91-5.79-1.79-6.92.37-13.17 4.12-18.15 9.28q-14.54 15.03-15.38 36.54c-.29 7.64 4.5 15.19 9.74 20.13q8.36 7.87 18.04 13.59a.37.37 0 0 1-.15.68c-15.93 1.65-32.28 1.36-47.56-3.11q-9.55-2.79-19.86-9.64c-9.31-6.19-14.73-14.88-14.92-25.89q-.04-2.59.1-10.37c.08-4.49-3.33-5.84-7.34-5.16-21.68 3.66-20.72 29.67-12.5 43.95 5.59 9.72 16.39 20.18 26.84 25.96q25.56 14.11 55.18 12.11c31.67-2.15 62.44-12.55 89.13-28.09 5.56-3.23 11.99-8.07 18.46-11.84a.12.12 0 0 1 .14.02l.19.19a.18.17 48.1 0 1-.01.26c-3.25 2.72-7.19 6.28-11.6 9.52q-15.35 11.31-36.9 21.43-31.01 14.57-63.52 16.86-9.26.65-16.31-.14c-15.65-1.74-31.02-8.03-44.21-16.52-12.74-8.19-26.58-22.3-31.37-36.89-3.31-10.06-2.93-22.21 2.46-31.46 6.05-10.39 16.43-16.08 28.4-11.71q1.19.43 6.14 3.91c1.78 1.25 3.45 1.81 5.28 1.05 8.14-3.4 10.48-13.76 7.34-21.29q-2.45-5.87-8.54-9.45c-10.13-5.97-21.4-6.26-32.31-1.33-8.77 3.96-14.54 10.82-20.56 18.93a.39.39 0 0 1-.69-.34c4.06-14.35 16.82-26.31 31.24-29.85q18.85-4.63 33.01 11.37 3.59 4.06 5.3 10.32.64 2.35 2.36 2.88c12.3 3.77 21.41-10.07 21.66-20.6.19-7.77-3.59-17.1-8.74-22.78-24.4-26.91-66.42-19.28-90.91 2.72-11.33 10.18-19.62 24.68-24.75 39.32-9.51 27.17-3.15 58.73 12.61 82.18q4.57 6.8 8.21 10.85c7.99 8.88 16.93 17.88 27.69 24.31q21.3 12.74 46.49 17.23c46.06 8.19 93.04-10.56 130.36-35.98q15.43-10.5 21.79-15.69c28.49-23.25 55.18-50.6 70.97-84 17.8-37.67 20.29-81.44 9.76-121.24q-1.97-7.45-5.45-15.79-18.08-43.33-52.35-75.38-22.53-21.08-48.41-37.32c-24.32-15.27-47.89-25.29-75.31-30.72q-50.99-10.11-94.19 17.72c-18.88 12.16-33.15 28.87-42.75 48.89q-8.44 17.62-10.64 31.21c-3.31 20.44.8 41.73 12.47 58.83 18.86 27.66 50.42 43.48 83.72 33.85 15.23-4.41 26.99-15.1 29.15-31.02 1.66-12.22-2.15-22.51-13.5-28.13q-3.14-1.56-6.84.73-1.51.94-2.48 4.24c-2.51 8.54-7.07 14.68-15.58 18.61q-11.57 5.34-24.07 2.5c-13.25-3.02-23.63-14.86-28.47-27.56a.48.48 0 0 1 .82-.48c6.35 7.71 12.53 14.2 22.03 17.67q20.73 7.56 34.13-7.54c3.1-3.5 4.62-8.18 3.99-12.66-.77-5.37-2.24-10.6-6.21-14.28a1.58 1.58 0 0 0-1.87-.2q-4.47 2.65-8.22 4.96c-8.38 5.17-18.77 1.93-26.4-3.89-18.34-13.98-7.72-41.71 4.23-55.97 17.94-21.41 43.4-35.18 71.61-36.17 15.36-.54 30.71.78 45.46 5.39q9.21 2.88 15.14 5.05c13.64 5 27.31 12 39.67 20.71 7.97 5.62 14.35 9.55 19.56 15.66m130.99 86.86c-13.79 13.58-21.53 31.23-22.58 50.35-1.13 20.44 5.52 41.1 19.96 55.75 14.44 14.66 35 21.61 55.46 20.79 19.12-.77 36.89-8.25 50.68-21.84 13.78-13.58 21.52-31.23 22.57-50.35 1.13-20.44-5.52-41.1-19.96-55.75-14.44-14.66-35-21.61-55.45-20.79-19.13.77-36.9 8.25-50.68 21.84m326.07 379.92q3.96 4.25 6.41 5.94c14.4 9.93 32.9.29 43.49-10.71 6.22-6.45 11.74-14.28 12.63-23.32 1.02-10.27-1.41-18.49-9.9-24.33a.36.36 0 0 1 .16-.66q15.04-1.7 24.34-13.77c8.44-10.94 9.03-25.39-.83-35.9-2.8-2.98-5.2-1.75-7.95 1.02q-4.32 4.34-12.12 5.29c-33.38 4.06-65.33-7.99-94.83-23.93q-42.6-23.03-79.24-57.49-24.01-22.59-42.98-44.94-10.72-12.63-19.69-25.69c-1.82-2.65-5.27-7.53-8.01-8.58a3.01 2.99-59.3 0 0-3.36.87q-5.4 6.36-11.1 10.76c-2.48 1.91-4.67 4.2-3.61 7.12q.4 1.11 4.86 4.04 20.69 13.58 36.23 28.1 19.92 18.61 41.42 41.81 14.66 15.83 25.45 30.05 9.63 12.68 21.52 32.72c19.09 32.17 36.8 67.28 32.45 104.99q-.73 6.27-3.34 11.4a5.59 5.55-5.4 0 1-1.61 1.93l-2.37 1.81a2.22 2.21-31.4 0 0-.66 2.7q1.32 2.82 3.23 4.39c7.72 6.35 17.68 7.11 26.71 3.26q19.12-8.16 22.17-28.72a.31.31 0 0 1 .53-.16m-551.95 1.95c1.94 14.11 12.02 26.51 25.2 30.85 9.43 3.11 20.15 1.39 26.29-6.89 2.08-2.79 1.65-4.93-.49-7.77-3.99-5.3-4.77-16.13-4.74-21.71.16-25.72 7.79-50.01 18.92-72.91q11.76-24.2 27.49-46.96 13.56-19.61 35.61-43.9 9.36-10.3 31.13-31.27c5.83-5.61 13.68-12.05 17.85-15.48q3.48-2.86 26.78-21.23c1-.78 3.33-3.26 2.71-5q-.64-1.75-1.34-2.16-7.3-4.34-12.29-11.47c-1.6-2.29-3.12-3.68-5.8-2.6q-1.27.51-3.42 3.7-18.77 27.81-43.31 51.82-17.33 16.97-31.24 29.24-30.78 27.15-66.11 47.39-16.56 9.5-30.9 15.64-23.21 9.94-49.56 12.15-14.1 1.19-27.18-2.46-1.36-.38-4.95-3.13a2.33 2.17 68.9 0 0-.76-.37c-3.4-.87-5.66 1.48-7.45 4.26q-5.9 9.16-4.57 20.23c1.82 15.28 15.52 26.48 30.7 27.98a.21.21 0 0 1 .12.37q-8.75 7.88-8.99 18.4c-.37 15.84 12.34 30.88 25.82 38.31q6.89 3.8 14.75 4.43c7.5.59 15.54-2.57 18.96-9.58a.41.41 0 0 1 .77.12m414.79-151.27a.15.14-35.5 0 1 .19.03c5.4 6.93 10.44 13.09 15.53 21.03 2.77 4.33 6.72 9.93 9.44 14.85 9.14 16.52 16.22 35 20.43 52.78 6.32 26.71 3.74 54.48-9.15 78.86-9.29 17.57-25.84 33.96-44.69 40.4-15.21 5.21-30.19 1.82-38.25-12.12q-7.4-12.81 1.06-24.95c1.4-2.01 2.53-3.85 2.85-5.93a2.59 2.58 29.3 0 0-.59-2.09c-4.83-5.7-17.01-6.49-23.16-3.4-8.92 4.48-13.67 15.25-13.21 24.85q.74 15.62 12.7 26.34c4.27 3.83 7.89 6.79 8.69 8.23a.34.34 0 0 1-.44.48q-7.89-3.45-13.62-7.88c-16.45-12.7-20.91-33.37-9.29-51.29 3.96-6.12 10.73-8.36 17.53-10.75a3.9 3.88 1.3 0 0 2.29-2.17c1.74-4.16 1.1-7.44-1.99-10.98-7.75-8.89-18.25-10.8-29.35-8.41-11.67 2.51-21.09 13.21-25.45 23.88-9.63 23.57-3.2 51.22 12.55 70.47q10.77 13.18 22.06 19.76 35.67 20.8 75.28 6.09 27.9-10.37 47.07-30.75 19.45-20.7 28.18-48.71 10.1-32.43 2.23-68.79-4.3-19.87-11.1-35.15-14.64-32.9-37.73-61.99-10.73-13.52-19.26-22.47c-26.52-27.8-58.41-47.63-95.9-57.69q-16.6-4.46-35.87-4.77c-15.49-.24-27.45-.4-41.03 2.71q-11.77 2.69-22.15 6.14c-15.03 4.99-28.07 12.42-42.79 22.11q-18.39 12.11-31.26 25.38c-22.18 22.86-40.79 45.95-55.3 72.38q-10.27 18.69-16.98 39.58c-12.57 39.12-10.05 81.82 12.28 116.67q5.67 8.85 7.07 10.67 2.48 3.2 10.78 11.78 17.35 17.93 40.91 25.72c11.56 3.83 25.29 6.66 37.7 5.3 19.43-2.13 38.68-9.48 52.74-22.28 16.12-14.66 25.99-36.4 26.39-58.41.37-20-10.5-40.99-30.34-47.02q-16.68-5.08-27.59 8.21-3.36 4.09-2.67 9.79.4 3.37 2.82 4.51 4.13 1.94 5.35 2.39c6.02 2.21 11.55 8.19 14.1 13.56q6.04 12.68 2.54 25.28c-3.31 11.94-11.46 20.21-22.85 26q-3.06 1.55-6.24 2.17a.31.31 0 0 1-.22-.57c13.23-8.23 23.16-23.67 21.96-39.54-1.33-17.45-17.54-29.19-33.56-18.08-2.24 1.56-4.66 5.44-2.41 7.93q3.58 3.97 5.36 8.17c3.73 8.83-.01 19.42-7.04 25.29-15.44 12.92-37.48 7.5-52.01-3.97-14.39-11.38-25.5-25.26-31.77-42.63q-9.26-25.68-4.45-53.63c4.18-24.22 11.81-47.86 24.38-68.9q6.08-10.19 10.32-16.41 3.43-5.03 12.48-15.58a.31.31 0 0 1 .42-.04l.01.01a.3.29-53.2 0 1 .05.4q-11.95 17.03-15.32 23.18-16.56 30.16-22.8 63.59-3.69 19.74-2.13 37.67c1.97 22.79 11.27 43.95 28.34 59.62 8.28 7.6 17.8 12.38 29.16 13.19 12.18.86 21.54-5.28 23.56-17.82q.31-1.97-.26-4.53a1.51 1.5-80.6 0 0-.67-.94q-1.91-1.19-4.41-1.2c-5.3-.02-11.41.09-16.27-1.85-10.98-4.38-18.56-12.26-24.14-22.85-5.56-10.55-9.83-25.35-8.66-37.17q1.2-12.03 1.24-20.87a.38.38 0 0 1 .71-.18q4.52 8.26 11.33 15.65c8.65 9.4 20.19 15.35 32.93 11.44q4.82-1.48 12.95-6.17c8.46-4.86 15.13-10.54 19.83-18.85 2.88-5.11 3.65-10.5-1.02-14.83q-.79-.73-5.68-5.58c-5.06-5.02-8.47-13.56-9.56-19.75-5.24-29.81 6.23-56.81 25.85-79.11q6.34-7.2 17.36-15.39.66-.49 1.05-.45a.53.53 0 0 1 .33.89q-9.99 10.37-16.93 22.51c-4.74 8.28-8.37 17.77-8.94 27.39q-.35 5.87-.38 10.06c-.1 12.14 3.62 25.5 13.25 33.33 8.13 6.62 17.95 8.63 26.39 1.57 2.83-2.37 4.54-6.34 2.42-9.39q-4.25-6.08-6.28-11.46c-6.5-17.28-5.72-38.45 3.08-54.89q3.63-6.78 6.13-10.11c4.26-5.69 11.72-10.05 18.46-12.58q7.06-2.65 14.03.35 9.49 4.07 14.88 10.16c6.3 7.11 10.87 16.07 13.03 26.24q5.72 26.95-10.03 49.99-1.42 2.07-1.85 3.34c-1.26 3.76 2.07 7.9 4.7 10.06 9.24 7.58 22.14 2.92 29.46-4.73 7.43-7.75 11.33-19.79 12.15-30.69 1.23-16.41-6.58-34.91-16.2-47.78q-4.25-5.67-9.52-11.66a.43.43 0 0 1 .42-.7c1.63.38 2.83 1.81 3.84 2.59q16.88 13.01 27.28 31.26 13.32 23.37 10.8 50.36-1.6 17.09-11.82 29.32-1.34 1.6-5.78 4.75c-3.52 2.51-2.24 8.2-.95 11.55q3.52 9.14 10.52 14.72c12.95 10.32 31.44 20.93 47.96 11.27q14.24-8.33 20.12-23.54a.49.49 0 0 1 .95.1c3.65 23 .6 46.41-12.66 65.82-5.62 8.22-17.14 14.86-26.83 16.01q-3.74.44-9.94.1a2.8 2.78-78.1 0 0-2.76 1.81c-1.99 5.3 1.97 12.83 5.72 16.45q5.36 5.2 12.98 5.81 15.16 1.23 27.43-8.26c15.71-12.15 26.04-27.75 31.23-47.69 6.84-26.31 4.98-53.79-3.16-78.9q-8.04-24.79-22.4-47.63-7.45-11.85-10.66-17.09a.25.24 57.4 0 1 .07-.33z"/><path d="M644.36 614.48a.23.23 0 0 0 .32.02v-.01a.13.13 0 0 0 .02-.18c-12.13-15.87-22.83-29.41-30.77-48.07q-6.77-15.89-9.25-22.65c-3.46-9.41-6.19-22.52-7.5-32.26q-4.56-33.78 10.13-64.13c8.62-17.82 22.55-32.83 41.9-38.69q16.72-5.06 26.41 8.87 4.45 6.4 2.49 14.25a2.07 2.06-80.4 0 1-2.19 1.56q-1.88-.17-5.93-.46c-8.15-.6-17.09 3.08-23.27 7.75-15.5 11.72-21.85 36.5-21.94 54.81q-.05 9.01.77 17.51a.43.43 0 0 0 .8.16c6.14-11.63 12.37-20.27 25.15-25.49q8.47-3.46 16.78-1.05c13.51 3.9 26.68 11.71 34.75 23.49q4.47 6.52 4.25 13.83c-.1 3.23-4.71 6.43-8.09 9.18a9.85 9.46-89 0 0-1.35 1.36c-7.39 9.27-11.02 20.71-11.65 32.56q-1.38 26.31 13.08 48.76c7.74 12.01 18.33 23.78 30.99 31.34a.26.26 0 0 0 .32-.4q-6.32-6.92-6.5-7.12-19.43-21.53-19.63-51.16-.11-15.8 8.58-28.4c7.35-10.65 23.79-19.57 34.48-8.08 3.05 3.29 4.11 7.74 1.51 11.32q-8.88 12.2-11.63 26.68-2.74 14.42 2.05 29.21c4.26 13.14 13.33 25.69 26.28 30.87q7.02 2.82 15.56.08c7.97-2.55 15.02-8.66 19.64-16.25q16.21-26.59 8.35-57.33c-.88-3.45-2.31-6.95-4.49-10.18-3.15-4.67-6.23-9.04-1.27-13.94 10.82-10.68 26.21-3.28 33.07 7.84 4.82 7.83 7.32 15.85 7.59 25.5.65 23.81-10.17 44.58-26.78 60.89a.41.4-72.2 0 0 .35.69q.85-.16 1.73-.7c13.86-8.44 25.2-22.12 33.31-36.7 12.01-21.57 16.33-54.07.94-75.24q-1.03-1.41-6.73-7.51c-5.62-6.01.18-17.92 4.39-22.48q8.16-8.82 20.47-14.75c13.43-6.47 27.28-5.69 37.85 5.6q8 8.55 13.99 19.6a.5.5 0 0 0 .94-.2q.67-7.94 1.13-15.51.88-14.5-2.74-29.31-4.43-18.17-18.06-30.33-4.83-4.31-9.57-6.15c-6.88-2.67-11.72-2.63-19.79-2.33-3.81.15-6.59-.27-6.2-4.67.52-5.87 3.94-10.61 8.77-14.07 26.09-18.71 54.61 8.27 64.97 31.42 7.36 16.44 11.52 36.08 9.7 53.81q-2.35 22.88-9.9 44.3-3.95 11.2-9.25 23.25-8.68 19.73-21.8 37.94-1.12 1.56-1.81 3.1a.08.08 0 0 0 .14.09c3.18-3.39 5.92-6.18 8.67-10.07 13.74-19.47 25.24-39.03 32.64-60.98 3.87-11.45 8.24-24.44 9.68-35.58q2.49-19.21-1.22-36.55-7.66-35.91-38.77-57.56c-12.95-9.01-29.27-13.45-43.63-6.32-10.94 5.44-16.57 15.39-13.8 27.66.92 4.05 3.71 7.4 6.07 11.13a1.5 1.48-57.5 0 1 .21.98q-.24 1.6-1.27 2.81c-6.34 7.43-18.08 9.3-25.91 2.69q-11.44-9.67-9.53-25.33c1.03-8.48 3.71-15.48 10.07-21.94q6.23-6.32 12.94-10.63.34-.21.3-.57a.24.24 0 0 0-.3-.2q-15.87 4.03-24.88 17.28c-10.11 14.88-8.92 34.1 4.51 46.64 3.5 3.27 8.14 5.25 11.56 6.92 4.84 2.36 3.82 8.25 1.48 12.18q-1.14 1.93-5.1 5.69c-9.54 9.06-22.76 7.18-33.03.49q-15.37-10-19.6-28.59-2.9-12.74-1.63-23.2c1.27-10.37 5.54-21.34 10.61-30.37q11.21-19.99 32.14-30.98c17.54-9.21 36.32-14.1 56.27-11.11 42.65 6.4 76.29 38.18 90.49 78.29q7.83 22.15 7.58 46.18-.21 20.12-9.05 45.92-9.48 27.68-23.46 49.79-12.12 19.17-28.2 38.56-8.85 10.67-25.33 26.69-14.86 14.44-28.36 23.3c-24.36 15.99-54.5 28.03-83.87 28.48-17.02.26-32.51.82-47.96-2.09-17.18-3.23-36.82-9.56-52.94-18.29q-21.59-11.68-38.69-28.03-16.59-15.86-31.5-33.45c-5.64-6.65-10.48-13.9-15.74-21.3q-4.63-6.53-11.92-19.58-18.24-32.62-23.85-69.23-2.64-17.24-.56-33.02 2.2-16.56 7.83-32.17c7.88-21.81 22.62-41.4 41.97-55.1 12.61-8.92 23.84-14.68 38.11-18.77q11.06-3.17 20.76-3.7c20.22-1.12 40.01 5.39 55.74 18.29 23.07 18.92 36.38 47.81 27.76 77.66-4.75 16.45-15.27 28.69-32.69 31.48-11.99 1.91-25.1-3.35-27.22-16.48q-.79-4.88 3.57-6.56c7.18-2.77 13.61-4.97 17.88-11.12q4.77-6.88 5.57-15.82c1.82-20.34-10.48-34.52-28.42-41.55a.77.76 29.9 0 0-.88.23l-.02.01a.49.49 0 0 0 .13.74q13.58 8.12 18.7 22.72 4.21 12-.15 23.22c-5.13 13.2-17.01 18.67-30 11.49q-2.43-1.35-3.9-3.41a2.44 2.43 39.7 0 1-.23-2.43c1.45-3.15 4.12-6.82 5.23-9.87q4.24-11.7-3.28-22.48-5.83-8.34-14.4-10.63c-15.45-4.13-34.56 4.63-46.09 15.06q-12.36 11.18-20.67 26.25-15.96 28.91-12.05 61.36c2.67 22.17 8.75 43.49 19.71 63.51q15.16 27.7 36.06 49.52m189.76 39.93q5.38-2.52 10.19-6.11 16.38-12.22 30.32-28.65c9.79-11.52 17.47-24.48 22.91-37.61 8.57-20.68 13.7-51.7-.42-71.58q-6.51-9.17-18.15-11.94a.25.25 0 0 0-.27.39c.8 1.16 2.26 2.09 2.99 2.89 16.47 17.77 18.23 40.29 13.59 63.03q-2.25 11.07-6.35 19.86-6.98 14.98-11.41 22.34-16.9 28.05-43.5 47.21a.1.1 0 0 0 .1.17m-121.13-.43a.16.15-57.4 0 0-.04-.21c-26.06-19.07-47.97-45.27-57.21-76.5-3.71-12.56-5.08-22.19-4.95-34.51.18-16.31 7.72-29.59 18.37-41.86q.49-.57.48-1.37a.42.41-10.8 0 0-.56-.37c-14.79 5.39-23.3 19.28-25.15 34.35-2.41 19.75 2.41 41.16 11.15 58.66q8.02 16.07 19.47 29.3 5.54 6.41 17.6 17.63 11.15 10.38 20.59 14.95a.19.19 0 0 0 .25-.07m-31.58-127.06-.02-.01a.44.43 39.9 0 0-.6.05q-6.44 7.05-8.15 14.26-2.34 9.9-.8 20.2a.34.34 0 0 0 .67-.02q.23-2.62.68-9.7.83-13.35 8.3-24.17a.45.44-53.4 0 0-.08-.61m185.95.15a.26.26 0 0 0-.37.36q6.82 9.4 7.74 20.51.15 1.8-.07 11.56a.61.6 3.6 0 0 .54.61h.03a.51.51 0 0 0 .55-.39c2.49-11.4 1.18-25.12-8.42-32.65"/><path d="M1053.4 454.83c.6-.52 1.1-1.45 1.94-2.36 8.27-8.93 19.52-9.35 30.51-4.34 14.17 6.46 26.91 20.98 28.21 36.87q1.18 14.39-10.13 22.36a.35.35 0 0 0 .18.64q4.59.3 5.56.5c14.48 2.86 26.89 15.77 27.87 30.56.52 7.85-3.91 19.84-12.26 21.73-2.01.46-3.2-.32-4.3-2.36q-1.45-2.7-4.85-3.64c-18.41-5.06-39.75-1.77-58.11 4.01-10.2 3.21-21.21 7.48-31.22 12.83q-35.86 19.13-59.89 37.79-27.83 21.62-52.37 47.12-6.65 6.91-22.02 23.48-6.86 7.39-22.99 28.75-.87 1.14-4.86 4.85a1.11 1.07-61.4 0 1-.93.29q-2.07-.35-2.93-1.29c-5.19-5.73-8.25-9.01-13.08-12.73-3.27-2.51-1.18-6.85 1.87-8.83q14.09-9.14 27.78-21.68 13.1-12 23.48-21.76 28.38-26.7 52.03-57.99c12.74-16.86 24.37-36.34 33.82-53.96q6.47-12.04 11.54-25.9c7.07-19.37 11.08-38.31 8.03-58.03q-.78-5.05-2.83-10.13-.22-.54-2.54-2.52a1.82 1.82 0 0 1-.59-1.02q-.42-2.08.33-3.4 5.48-9.81 16.45-10.75c20.28-1.73 31.92 12.5 35.7 30.71a.37.36-26.1 0 0 .6.2m-62.07 94.43q1.02-.53 2.05-1.88c15.03-19.7 30.37-41.63 30.49-67.66.06-10.76-.72-19.66-6.05-28.8q-.21-.36-.47-.47a.42.42 0 0 0-.59.44q3.26 22.13-2.91 43.95c-2.7 9.54-6.09 19.56-9.9 28.11q-5.12 11.5-12.89 26.03a.2.2 0 0 0 .27.28m20.99 17.62a.56.56 0 0 0 .71.15q20-10.98 40.86-18.11c16.54-5.66 35.89-9.37 52.84-6.44a.56.56 0 0 0 .36-1.04c-21.88-11.44-46.99-5.54-67.9 6.5-4.57 2.63-11.08 6.63-16.04 10.38q-6.26 4.74-10.73 7.86a.48.47-36.4 0 0-.11.68zm-563.6-57.33q-.01-.01-2.89-2.37c-8.66-7.09-9.09-19.72-4.31-29.37 6.1-12.31 14.91-21.73 27.23-27.78 12.07-5.93 24.71-5.11 32.38 7.22a.37.37 0 0 0 .68-.16c1.55-14.82 11.81-27.08 26.44-30.68q14.9-3.66 24.31 8.31.93 1.18.62 3.06a1.42 1.38 75.4 0 1-.46.81q-3.94 3.38-4.4 4.01c-3.26 4.44-4.02 12.14-4.09 17.19q-.38 27.28 8.96 53.31c6.45 17.98 15.49 34.99 26.07 52.55q9.11 15.11 20.58 29.97 24.34 31.51 53.69 58.45c16.14 14.8 33.66 28.05 51.33 41.65a2.27 2.17-82 0 1 .72 1q1.26 3.51-1.81 5.96-5.73 4.58-10.85 11.43c-3.18 4.26-7.46.99-9.53-2.22q-10.6-16.41-21.39-28.95c-15.01-17.44-34.39-36.63-52.25-52.74q-15.91-14.35-29.64-24.46-32.57-23.95-70.06-40.51-20.68-9.12-43.08-11.43c-10.75-1.11-20.77-.54-30.67 2.22q-3.95 1.1-5.65 4.64a2.41 2.41 0 0 1-2.76 1.3q-2.97-.74-4.69-2.91c-10.61-13.41-6.45-28.29 4.72-39.4q6.89-6.85 16.7-8.84 3.32-.68 3.74-.66a.4.4 0 0 0 .36-.6m110.61 40.38q-.05-.11-7.46-14.75-4.07-8.02-9.23-22.31c-6.77-18.72-10.45-40.34-6.48-60.21a.45.45 0 0 0-.81-.34c-13.47 20.15-6.83 51.22 4.55 70.79q6.38 10.97 17.13 24.96 1.57 2.05 1.91 2.24a.29.28-89 0 0 .39-.38m-21.77 17.38a.45.44-47.1 0 0-.02-.65q-12.89-11.17-27.28-19.18c-18.07-10.07-46.13-16.29-65.51-5.02a.79.79 0 0 0-.05 1.34q.29.19 1.06.02 4.96-1.07 8.73-1.1 15.35-.11 30.2 3.33 28.38 6.57 52.42 21.48a.23.21 35.8 0 0 .26-.03z"/><path fill="#fffffa" d="M991.33 549.26a.2.2 0 0 1-.27-.28q7.77-14.53 12.89-26.03c3.81-8.55 7.2-18.57 9.9-28.11q6.17-21.82 2.91-43.95a.42.42 0 0 1 .59-.44q.26.11.47.47c5.33 9.14 6.11 18.04 6.05 28.8-.12 26.03-15.46 47.96-30.49 67.66q-1.03 1.35-2.05 1.88m-432.39 1.05q-.34-.19-1.91-2.24-10.75-13.99-17.13-24.96c-11.38-19.57-18.02-50.64-4.55-70.79a.45.45 0 0 1 .81.34c-3.97 19.87-.29 41.49 6.48 60.21q5.16 14.29 9.23 22.31 7.41 14.64 7.46 14.75a.29.28-89 0 1-.39.38m275.18 104.1a.1.1 0 0 1-.1-.17q26.6-19.16 43.5-47.21 4.43-7.36 11.41-22.34 4.1-8.79 6.35-19.86c4.64-22.74 2.88-45.26-13.59-63.03-.73-.8-2.19-1.73-2.99-2.89a.25.25 0 0 1 .27-.39q11.64 2.77 18.15 11.94c14.12 19.88 8.99 50.9.42 71.58-5.44 13.13-13.12 26.09-22.91 37.61q-13.94 16.43-30.32 28.65-4.81 3.59-10.19 6.11m-121.38-.36q-9.44-4.57-20.59-14.95-12.06-11.22-17.6-17.63-11.45-13.23-19.47-29.3c-8.74-17.5-13.56-38.91-11.15-58.66 1.85-15.07 10.36-28.96 25.15-34.35a.42.41-10.8 0 1 .56.37q.01.8-.48 1.37c-10.65 12.27-18.19 25.55-18.37 41.86-.13 12.32 1.24 21.95 4.95 34.51 9.24 31.23 31.15 57.43 57.21 76.5a.16.15-57.4 0 1 .04.21.19.19 0 0 1-.25.07"/><path fill="#fffffa" d="M681.41 526.92a.45.44-53.4 0 1 .08.61q-7.47 10.82-8.3 24.17-.45 7.08-.68 9.7a.34.34 0 0 1-.67.02q-1.54-10.3.8-20.2 1.71-7.21 8.15-14.26a.44.43 39.9 0 1 .6-.05zm185.95.15c9.6 7.53 10.91 21.25 8.42 32.65a.51.51 0 0 1-.55.39h-.03a.61.6 3.6 0 1-.54-.61q.22-9.76.07-11.56-.92-11.11-7.74-20.51a.26.26 0 0 1 .37-.36m144.96 39.81-.01-.02a.48.47-36.4 0 1 .11-.68q4.47-3.12 10.73-7.86c4.96-3.75 11.47-7.75 16.04-10.38 20.91-12.04 46.02-17.94 67.9-6.5a.56.56 0 0 1-.36 1.04c-16.95-2.93-36.3.78-52.84 6.44q-20.86 7.13-40.86 18.11a.56.56 0 0 1-.71-.15m-474.76.43-.19.19a.23.21 35.8 0 1-.26.03q-24.04-14.91-52.42-21.48-14.85-3.44-30.2-3.33-3.77.03-8.73 1.1-.77.17-1.06-.02a.79.79 0 0 1 .05-1.34c19.38-11.27 47.44-5.05 65.51 5.02q14.39 8.01 27.28 19.18a.45.44-47.1 0 1 .02.65"/><path d="M955.37 649.17q22.08-14.62 29.56-18.25c22.67-10.99 45.51-19.54 69.59-23.38 29.46-4.69 62.6 2.82 84.01 24.67 9.57 9.76 15.82 21 15.55 34.78-.22 11.51-8.73 24.54-21.67 23.12q-4.72-.51-4.23-4.81c1.45-12.88.71-22.9-9.18-32.57q-7.97-7.79-17.87-11.87c-10.81-4.46-22.23-6.99-33.93-6.84q-1.51.02-8.89 1.06-6.1.86-11.62.32a.47.47 0 0 0-.3.87q11.61 7.29 20.32 16.98 7.95 8.84 6.31 21.31-2.66 20.37-18.55 34.49-5.63 4.99-12.09 6.58c-6.45 1.59-10.05-3.13-15.2-8.06-2.68-2.58-5.97-4.12-10.08-6.06q-9.13-4.32-19.08-4.96-28.51-1.84-51.17 12.4c-12.23 7.68-23.66 17.82-32.53 30.62q-.81 1.16-.96 2.18a.4.4 0 0 0 .69.34q8.84-9.23 20.13-16.1c20.28-12.34 51.27-16.66 70.28.73q5.1 4.67 7.39 12.55c1.77 6.1-.1 12.27-4.51 16.84-6.18 6.39-11.15-.21-16.74-2.69q-9.76-4.31-21.07-5.41-25.79-2.5-46.88 12.43-7.63 5.4-11.99 14.21c-2.93 5.91-2.91 10.32-.99 16.76q4.83 16.16 21.54 24.89c21.03 11.01 46.67 9.27 65.68-5.38 3.82-2.95 7.16-2.12 10.57 1.12 7.39 7.05 7.26 16.88 1.8 25.12-9.16 13.8-26.64 19.81-42.54 18.86-9.62-.57-21.14-4.03-30.26-9.14-9.82-5.51-17.26-11.81-24.65-19.66a.25.25 0 0 0-.39.03l-.39.59a.01.01 0 0 0 0 .02q8.43 12.45 18.61 21.74 20.2 18.44 47.08 23.45c18.9 3.53 45.15-1.53 55.97-19.21a3.75 3.73-69.2 0 1 3.82-1.73c17.87 3.05 30.4 18.44 35.2 35.18 2.43 8.48 2.78 15.95-1.1 23.59-5.38 10.58-14.11 17.61-24.68 22.42a.33.33 0 0 0 .09.62q7.57 1.02 15.14 1.33c15.78.66 31.93-3.62 45.57-11.49q9.36-5.4 15.06-13.96c4.58-6.87 5.65-14 5.9-22.37q.1-3.7.98-5c1.98-2.93 8-2 10.74-.61 17.86 9.06 14.44 28.08 6.08 42.65q-2.62 4.57-7.78 9.92c-13.14 13.62-29.45 21.6-47.78 26.31q-14.12 3.63-29.68 2.85-37.49-1.9-71.9-19.75-13.11-6.8-20-11.74-14.48-10.37-19.46-14.17a.16.15 38 0 0-.21.02l-.01.01a.14.14 0 0 0 .02.19q9.48 8.98 25.58 20.88 10.62 7.85 18.83 12.15c16.71 8.74 34.17 15.84 52.37 18.73q27.41 4.34 54.09-2.08c14.17-3.41 27.09-11.62 38.51-21.69q8.9-7.85 13.74-15.67c7.38-11.91 14.93-32.06 5.91-45.25q-2.03-2.97-7.04-6.82c-7.05-5.43-16.06-7.09-24.17-2.62-2.92 1.62-7.97 7.99-11.75 3.17q-9.63-12.29-1.94-25.1c2.73-4.53 8.34-7.95 13.89-9.17 16.95-3.74 32.84 3.43 41.53 18.33q.68 1.16 1.61 1.99a.33.33 0 0 0 .53-.34c-6.9-22.83-28.98-37.18-52.44-25.92-9.14 4.39-12.56 11.5-16.39 20.57-1.23 2.91-3.81 3.93-6.99 3.61-5.87-.59-11.84-7.12-13.95-12.31q-1.86-4.58-1.95-10.23c-.45-27.77 27.59-42.41 52.1-40.92 21.53 1.31 39.91 11.58 54.36 27.24 15.05 16.32 23.17 38.51 21.33 60.82-2.65 32.15-21.41 62.33-46.47 81.45q-25.76 19.64-58.66 24.66-8.44 1.28-22.33 1.4-13.76.11-30.26-3.75-19.52-4.56-35.68-11.77-20.81-9.28-38.53-21.24c-5.58-3.76-14.18-10.22-20.55-15.65q-20.95-17.83-34.42-32.54c-11.02-12.04-21.9-26.79-29.39-42.09q-15.76-32.24-18.19-67.68-.6-8.79-.08-27.77c.79-28.45 11.29-56.68 26.94-80.43 14.22-21.58 31.06-40.94 50.56-57.51 18.38-15.62 37.42-29.11 56.5-39.19q17.3-9.14 38.11-15.38 20.05-6.01 39.25-6.77c44.06-1.75 85.93 19.65 110.38 56.2 14.47 21.65 20.72 50.51 12.65 75.92-6.22 19.57-16.56 37.72-31.86 49.61q-8.85 6.88-21.95 11.5c-24.97 8.81-60.26 2.66-71.71-24.61q-4.63-11.04 1.56-21.78c3.55-6.14 10.76-13.38 18.66-10.71 2.46.83 4.27 6.1 6.28 10.37 3.59 7.63 14.04 12.61 22.29 14.27 18.69 3.77 31.01-5.58 40.79-20.41q2.97-4.52 3.62-9.96a.2.2 0 0 0-.37-.12q-4.57 8.75-13.05 14.79-13.7 9.77-30.14 6.92c-6.64-1.15-12.5-4.39-15.97-9.59-4.66-7.01-4.39-17 1.72-23.19 4.11-4.16 8.03-1.19 11.86 1.37 4.57 3.05 13.04 2.76 17.13 1.3 13.55-4.81 20.18-16.72 19.05-30.86-1.31-16.42-11.66-30.96-23.51-42.44-15.79-15.28-38.22-22.98-59.8-24.14q-17.79-.95-40.91 5.33c-30.61 8.3-58.96 23.7-83.22 44.26q-1 .86-1.63 1.65a.19.19 0 0 0 .25.27m-48.52 74.01a.22.21 34.4 0 0 .3-.05q10.36-13.54 22.41-23.8 17.53-14.91 38.89-25.58 27.46-13.71 57.8-11.2c14.43 1.2 24.92 7.9 34.15 18.36a.28.28 0 0 0 .49-.25q-1.3-5.56-3.97-10.57c-4.85-9.08-16.66-14.19-26.39-15.77q-10.11-1.65-24.24.3-15.04 2.08-30.63 8.85-29.97 13.03-51.54 36.92c-6.04 6.69-12.52 14.22-17.37 22.4a.3.29 33.1 0 0 .09.39zm125.41-31.43c-7.65-9.33-21.24-10.32-32.45-7.61a.5.5 0 0 0-.38.56v.03a.6.6 0 0 0 .62.52q9.64-.44 11.42-.33 11 .67 20.44 7.2a.26.26 0 0 0 .35-.37M905.62 847.57q4.11 7.57 7.95 12.25 10.32 12.58 22.38 23.45c11.52 10.39 23.59 18.01 37.24 23.29 20.55 7.95 39.84 12.32 60.01 8.36 13.14-2.58 24.86-12.18 26.91-26.05a.44.44 0 0 0-.66-.44l-.75.45a.55.37-74.3 0 0-.13.11c-11.61 14.52-26.92 20.5-45.42 19.82-16.12-.58-31.04-4.37-45.17-10.94-19.51-9.05-37.49-21.34-52.12-38.14q-5.03-5.78-10.16-12.21a.05.05 0 0 0-.08.05m127.14 30.42a.45.45 0 0 0-.61-.09q-10.97 7.51-24.46 8.29-7.16.42-9.81.64a.34.34 0 0 0-.02.68q10.4 1.6 20.41-.72 7.3-1.7 14.45-8.18a.44.43 50.4 0 0 .05-.6zM593.33 644.28c-5.21-6.11-11.59-10.04-19.56-15.66-12.36-8.71-26.03-15.71-39.67-20.71q-5.93-2.17-15.14-5.05c-14.75-4.61-30.1-5.93-45.46-5.39-28.21.99-53.67 14.76-71.61 36.17-11.95 14.26-22.57 41.99-4.23 55.97 7.63 5.82 18.02 9.06 26.4 3.89q3.75-2.31 8.22-4.96a1.58 1.58 0 0 1 1.87.2c3.97 3.68 5.44 8.91 6.21 14.28.63 4.48-.89 9.16-3.99 12.66q-13.4 15.1-34.13 7.54c-9.5-3.47-15.68-9.96-22.03-17.67a.48.48 0 0 0-.82.48c4.84 12.7 15.22 24.54 28.47 27.56q12.5 2.84 24.07-2.5c8.51-3.93 13.07-10.07 15.58-18.61q.97-3.3 2.48-4.24 3.7-2.29 6.84-.73c11.35 5.62 15.16 15.91 13.5 28.13-2.16 15.92-13.92 26.61-29.15 31.02-33.3 9.63-64.86-6.19-83.72-33.85-11.67-17.1-15.78-38.39-12.47-58.83q2.2-13.59 10.64-31.21c9.6-20.02 23.87-36.73 42.75-48.89q43.2-27.83 94.19-17.72c27.42 5.43 50.99 15.45 75.31 30.72q25.88 16.24 48.41 37.32 34.27 32.05 52.35 75.38 3.48 8.34 5.45 15.79c10.53 39.8 8.04 83.57-9.76 121.24-15.79 33.4-42.48 60.75-70.97 84q-6.36 5.19-21.79 15.69c-37.32 25.42-84.3 44.17-130.36 35.98q-25.19-4.49-46.49-17.23c-10.76-6.43-19.7-15.43-27.69-24.31q-3.64-4.05-8.21-10.85c-15.76-23.45-22.12-55.01-12.61-82.18 5.13-14.64 13.42-29.14 24.75-39.32 24.49-22 66.51-29.63 90.91-2.72 5.15 5.68 8.93 15.01 8.74 22.78-.25 10.53-9.36 24.37-21.66 20.6q-1.72-.53-2.36-2.88-1.71-6.26-5.3-10.32-14.16-16-33.01-11.37c-14.42 3.54-27.18 15.5-31.24 29.85a.39.39 0 0 0 .69.34c6.02-8.11 11.79-14.97 20.56-18.93 10.91-4.93 22.18-4.64 32.31 1.33q6.09 3.58 8.54 9.45c3.14 7.53.8 17.89-7.34 21.29-1.83.76-3.5.2-5.28-1.05q-4.95-3.48-6.14-3.91c-11.97-4.37-22.35 1.32-28.4 11.71-5.39 9.25-5.77 21.4-2.46 31.46 4.79 14.59 18.63 28.7 31.37 36.89 13.19 8.49 28.56 14.78 44.21 16.52q7.05.79 16.31.14 32.51-2.29 63.52-16.86 21.55-10.12 36.9-21.43c4.41-3.24 8.35-6.8 11.6-9.52a.18.17 48.1 0 0 .01-.26l-.19-.19a.12.12 0 0 0-.14-.02c-6.47 3.77-12.9 8.61-18.46 11.84-26.69 15.54-57.46 25.94-89.13 28.09q-29.62 2-55.18-12.11c-10.45-5.78-21.25-16.24-26.84-25.96-8.22-14.28-9.18-40.29 12.5-43.95 4.01-.68 7.42.67 7.34 5.16q-.14 7.78-.1 10.37c.19 11.01 5.61 19.7 14.92 25.89q10.31 6.85 19.86 9.64c15.28 4.47 31.63 4.76 47.56 3.11a.37.37 0 0 0 .15-.68q-9.68-5.72-18.04-13.59c-5.24-4.94-10.03-12.49-9.74-20.13q.84-21.51 15.38-36.54c4.98-5.16 11.23-8.91 18.15-9.28 2.4-.12 4.07-.03 5.79 1.79 4.21 4.45 7.78 8.9 13.49 11.67q8.47 4.11 15.18 5.18 23.69 3.79 45.91-5.74 14.95-6.41 25.34-15.38 6.74-5.81 14.54-13.94 4.07-4.25 6.73-9.54a.37.37 0 0 0-.55-.47q-.68.5-7.47 6.66c-12.71 11.53-30.3 20.37-47.45 20.74-17.11.37-40.64-6.25-44.65-25.91-1.27-6.24.68-11.21 4.8-15.57 3.42-3.62 6.24-3.6 10.3-.9 4.33 2.86 9.28 5.74 14.47 7.09 12.79 3.32 25.69 3.9 38.92 0q10.65-3.14 18.83-8.83 5.85-4.07 8.68-8.04c4.07-5.7 8.27-13.52 7.38-20.44-1.02-7.85-5.42-16.03-11.83-21.43q-18.64-15.69-42.19-14.2-17.24 1.09-30.82 10.15-4.76 3.17-6.76 3.32-5.45.4-8.58-3.71c-6.95-9.12-5.39-19.41 2.12-27.59 14.3-15.56 38.65-17.75 57.72-10.93 14.21 5.08 25.26 13.75 36.13 24.38a.21.2 9.9 0 0 .33-.23q-2.04-4.3-4.68-7.44c-24.61-29.28-63.67-49.04-101.53-32.01-3.64 1.64-7.14 5.65-9.95 8.87q-3.29 3.79-4.08 4.43c-8.33 6.75-21.6-5.2-26.91-11.34q-8.92-10.3-13.11-22.1c-3.82-10.75.18-22.99 7.32-31.5q7.69-9.17 18.74-14.03a.55.55 0 0 0-.21-1.06q-11.07-.28-15.92-.58c-18.62-1.18-42.52 4.77-54.69 19.29q-10.28 12.28-9.11 30.4c.41 6.42-7.76 5.27-11.43 3.67-13.42-5.88-16.26-17.99-12.32-31.56q2.82-9.71 7.83-15.82 12.58-15.33 29.31-23.93c24.08-12.38 53.57-13.93 80.16-7.83 27.63 6.34 53.15 19.61 75.83 35.81a.18.18 0 0 0 .24-.27m54.13 79.94a.17.16-33.2 0 0 .05-.22q-4.5-7.51-10.13-14.14-22.38-26.36-52.22-43.03c-19.06-10.64-39.44-14.88-61.14-12.73q-8.47.83-14.92 3.55-13.57 5.69-18.78 19.8a.49.48 86.2 0 0 .68.6l.97-.52a2.7 2.65-79.2 0 0 .36-.25q15.05-12.54 33.12-15.35c13.34-2.07 28.6.26 41.63 4.49q27.5 8.94 50.12 27.36 12.91 10.51 30.05 30.42a.16.16 0 0 0 .21.03zm-114.54-41.27q-8.53 2.02-15.82 7.63a.32.32 0 0 0 .33.55c6.86-2.93 10.29-4.84 15.97-6.19 5.68-1.34 9.6-1.16 17.04-1.62a.32.32 0 0 0 .05-.64q-9.03-1.75-17.57.27m111.88 161q-10.49 14.43-12.17 16.24-13.44 14.5-29.64 24.81c-20.32 12.94-41.17 20.79-65.7 21.02-17.93.18-34.15-3.86-45.33-18.18a.49.48-68.8 0 0-.86.38c2.15 12.82 12.13 21.3 24.72 24.2q13.86 3.2 26.17 1.79 9.12-1.04 18.52-3.42 7.65-1.95 17.64-6.53 38.4-17.61 62.81-52.53 2-2.86 4.16-7.59a.19.19 0 0 0-.32-.19M519.61 877.5c6.61 9.33 19.39 11.18 30.17 9.38a.48.47 83.2 0 0 .39-.5v-.03a.57.56 89.2 0 0-.54-.53q-9.15-.25-10.82-.47-10.36-1.37-18.84-8.18a.24.24 0 0 0-.36.33"/><path fill="#fffffa" d="M906.75 722.79c4.85-8.18 11.33-15.71 17.37-22.4q21.57-23.89 51.54-36.92 15.59-6.77 30.63-8.85 14.13-1.95 24.24-.3c9.73 1.58 21.54 6.69 26.39 15.77q2.67 5.01 3.97 10.57a.28.28 0 0 1-.49.25c-9.23-10.46-19.72-17.16-34.15-18.36q-30.34-2.51-57.8 11.2-21.36 10.67-38.89 25.58-12.05 10.26-22.41 23.8a.22.21 34.4 0 1-.3.05h-.01a.3.29 33.1 0 1-.09-.39m-259.5 1.41q-17.14-19.91-30.05-30.42-22.62-18.42-50.12-27.36c-13.03-4.23-28.29-6.56-41.63-4.49q-18.07 2.81-33.12 15.35a2.7 2.65-79.2 0 1-.36.25l-.97.52a.49.48 86.2 0 1-.68-.6q5.21-14.11 18.78-19.8 6.45-2.72 14.92-3.55c21.7-2.15 42.08 2.09 61.14 12.73q29.84 16.67 52.22 43.03 5.63 6.63 10.13 14.14a.17.16-33.2 0 1-.05.22v.01a.16.16 0 0 1-.21-.03"/><path fill="#fffffa" d="M533.4 684.94c-5.68 1.35-9.11 3.26-15.97 6.19a.32.32 0 0 1-.33-.55q7.29-5.61 15.82-7.63 8.54-2.02 17.57-.27a.32.32 0 0 1-.05.64c-7.44.46-11.36.28-17.04 1.62m498.86 6.81a.26.26 0 0 1-.35.37q-9.44-6.53-20.44-7.2-1.78-.11-11.42.33a.6.6 0 0 1-.62-.52v-.03a.5.5 0 0 1 .38-.56c11.21-2.71 24.8-1.72 32.45 7.61"/><path d="M830.45 730.09c14.44 14.65 21.09 35.31 19.96 55.75-1.05 19.12-8.79 36.77-22.57 50.35-13.79 13.59-31.56 21.07-50.68 21.84-20.46.82-41.02-6.13-55.46-20.79-14.44-14.65-21.09-35.31-19.96-55.75 1.05-19.12 8.79-36.77 22.58-50.35 13.78-13.59 31.55-21.07 50.68-21.84 20.45-.82 41.01 6.13 55.45 20.79"/><path fill="#fffffa" d="M645.12 844.14q-2.16 4.73-4.16 7.59-24.41 34.92-62.81 52.53-9.99 4.58-17.64 6.53-9.4 2.38-18.52 3.42-12.31 1.41-26.17-1.79c-12.59-2.9-22.57-11.38-24.72-24.2a.49.48-68.8 0 1 .86-.38c11.18 14.32 27.4 18.36 45.33 18.18 24.53-.23 45.38-8.08 65.7-21.02q16.2-10.31 29.64-24.81 1.68-1.81 12.17-16.24a.19.19 0 0 1 .32.19m260.58 3.38q5.13 6.43 10.16 12.21c14.63 16.8 32.61 29.09 52.12 38.14 14.13 6.57 29.05 10.36 45.17 10.94 18.5.68 33.81-5.3 45.42-19.82a.55.37-74.3 0 1 .13-.11l.75-.45a.44.44 0 0 1 .66.44c-2.05 13.87-13.77 23.47-26.91 26.05-20.17 3.96-39.46-.41-60.01-8.36-13.65-5.28-25.72-12.9-37.24-23.29q-12.06-10.87-22.38-23.45-3.84-4.68-7.95-12.25a.05.05 0 0 1 .08-.05"/><path d="M1049.86 1111.22q-3.05 20.56-22.17 28.72c-9.03 3.85-18.99 3.09-26.71-3.26q-1.91-1.57-3.23-4.39a2.22 2.21-31.4 0 1 .66-2.7l2.37-1.81a5.59 5.55-5.4 0 0 1.61-1.93q2.61-5.13 3.34-11.4c4.35-37.71-13.36-72.82-32.45-104.99q-11.89-20.04-21.52-32.72-10.79-14.22-25.45-30.05-21.5-23.2-41.42-41.81-15.54-14.52-36.23-28.1-4.46-2.93-4.86-4.04c-1.06-2.92 1.13-5.21 3.61-7.12q5.7-4.4 11.1-10.76a3.01 2.99-59.3 0 1 3.36-.87c2.74 1.05 6.19 5.93 8.01 8.58q8.97 13.06 19.69 25.69 18.97 22.35 42.98 44.94 36.64 34.46 79.24 57.49c29.5 15.94 61.45 27.99 94.83 23.93q7.8-.95 12.12-5.29c2.75-2.77 5.15-4 7.95-1.02 9.86 10.51 9.27 24.96.83 35.9q-9.3 12.07-24.34 13.77a.36.36 0 0 0-.16.66c8.49 5.84 10.92 14.06 9.9 24.33-.89 9.04-6.41 16.87-12.63 23.32-10.59 11-29.09 20.64-43.49 10.71q-2.45-1.69-6.41-5.94a.31.31 0 0 0-.53.16m-40.48-110.78a.32.32 0 0 0 .03.48q11.02 8.64 20.56 14.84c14.96 9.72 29.57 15.16 47.67 16.73 5.06.43 9.91-.39 15.34-1.52q8.95-1.85 14.27-6.22.38-.31.39-.58a.53.53 0 0 0-.71-.52q-2.91 1.01-6.68 1.52-14.86 2.01-30.73-1.46-32.4-7.08-59.75-23.5a.16.16 0 0 0-.19.02zm-15.55 22.99q.04 1.06.75 2.25 12.81 21.63 18.85 46.38c3.43 14.05 5.04 29.91 1.73 43.87a.41.4 79.7 0 0 .62.43q.77-.51 1.32-1.51c9.03-16.41 7.41-33.58 1.6-50.99-5.2-15.63-14.24-28.4-24.35-40.62a.29.29 0 0 0-.52.19m-495.39 89.58a.41.41 0 0 0-.77-.12c-3.42 7.01-11.46 10.17-18.96 9.58q-7.86-.63-14.75-4.43c-13.48-7.43-26.19-22.47-25.82-38.31q.24-10.52 8.99-18.4a.21.21 0 0 0-.12-.37c-15.18-1.5-28.88-12.7-30.7-27.98q-1.33-11.07 4.57-20.23c1.79-2.78 4.05-5.13 7.45-4.26a2.33 2.17 68.9 0 1 .76.37q3.59 2.75 4.95 3.13 13.08 3.65 27.18 2.46 26.35-2.21 49.56-12.15 14.34-6.14 30.9-15.64 35.33-20.24 66.11-47.39 13.91-12.27 31.24-29.24 24.54-24.01 43.31-51.82 2.15-3.19 3.42-3.7c2.68-1.08 4.2.31 5.8 2.6q4.99 7.13 12.29 11.47.7.41 1.34 2.16c.62 1.74-1.71 4.22-2.71 5q-23.3 18.37-26.78 21.23c-4.17 3.43-12.02 9.87-17.85 15.48q-21.77 20.97-31.13 31.27-22.05 24.29-35.61 43.9-15.73 22.76-27.49 46.96c-11.13 22.9-18.76 47.19-18.92 72.91-.03 5.58.75 16.41 4.74 21.71 2.14 2.84 2.57 4.98.49 7.77-6.14 8.28-16.86 10-26.29 6.89-13.18-4.34-23.26-16.74-25.2-30.85m-58.09-88.33q.92.85 2.06 1.42c29.17 14.61 65.52.1 88.84-18.59q7.87-6.32 10.23-7.91a.42.42 0 0 0 .13-.57l-.01-.02a.45.45 0 0 0-.58-.17q-6.48 3.25-13.41 6.99c-22.99 12.43-47.13 19.57-73.12 19.78q-3.88.03-6.95-.43-1.27-.19-6.93-1.03a.31.31 0 0 0-.26.53m120.31-6.74a.49.49 0 0 0-.74.05q-11.46 15.03-13.92 19.02c-11.88 19.28-19.73 39.67-17.74 61.76q.81 8.99 4.78 17.69.66 1.46 1.6 2.22a.31.31 0 0 0 .5-.28c-3.85-35.53 7.81-68.69 25.74-100.06a.18.17-51.9 0 0-.02-.2z"/><path fill="#fffffa" d="M519.61 877.5a.24.24 0 0 1 .36-.33q8.48 6.81 18.84 8.18 1.67.22 10.82.47a.57.56 89.2 0 1 .54.53v.03a.48.47 83.2 0 1-.39.5c-10.78 1.8-23.56-.05-30.17-9.38m513.15.49.01.02a.44.43 50.4 0 1-.05.6q-7.15 6.48-14.45 8.18-10.01 2.32-20.41.72a.34.34 0 0 1 .02-.68q2.65-.22 9.81-.64 13.49-.78 24.46-8.29a.45.45 0 0 1 .61.09"/><path d="M913.12 962.1q3.21 5.24 10.66 17.09 14.36 22.84 22.4 47.63c8.14 25.11 10 52.59 3.16 78.9-5.19 19.94-15.52 35.54-31.23 47.69q-12.27 9.49-27.43 8.26-7.62-.61-12.98-5.81c-3.75-3.62-7.71-11.15-5.72-16.45a2.8 2.78-78.1 0 1 2.76-1.81q6.2.34 9.94-.1c9.69-1.15 21.21-7.79 26.83-16.01 13.26-19.41 16.31-42.82 12.66-65.82a.49.49 0 0 0-.95-.1q-5.88 15.21-20.12 23.54c-16.52 9.66-35.01-.95-47.96-11.27q-7-5.58-10.52-14.72c-1.29-3.35-2.57-9.04.95-11.55q4.44-3.15 5.78-4.75 10.22-12.23 11.82-29.32 2.52-26.99-10.8-50.36-10.4-18.25-27.28-31.26c-1.01-.78-2.21-2.21-3.84-2.59a.43.43 0 0 0-.42.7q5.27 5.99 9.52 11.66c9.62 12.87 17.43 31.37 16.2 47.78-.82 10.9-4.72 22.94-12.15 30.69-7.32 7.65-20.22 12.31-29.46 4.73-2.63-2.16-5.96-6.3-4.7-10.06q.43-1.27 1.85-3.34 15.75-23.04 10.03-49.99c-2.16-10.17-6.73-19.13-13.03-26.24q-5.39-6.09-14.88-10.16-6.97-3-14.03-.35c-6.74 2.53-14.2 6.89-18.46 12.58q-2.5 3.33-6.13 10.11c-8.8 16.44-9.58 37.61-3.08 54.89q2.03 5.38 6.28 11.46c2.12 3.05.41 7.02-2.42 9.39-8.44 7.06-18.26 5.05-26.39-1.57-9.63-7.83-13.35-21.19-13.25-33.33q.03-4.19.38-10.06c.57-9.62 4.2-19.11 8.94-27.39q6.94-12.14 16.93-22.51a.53.53 0 0 0-.33-.89q-.39-.04-1.05.45-11.02 8.19-17.36 15.39c-19.62 22.3-31.09 49.3-25.85 79.11 1.09 6.19 4.5 14.73 9.56 19.75q4.89 4.85 5.68 5.58c4.67 4.33 3.9 9.72 1.02 14.83-4.7 8.31-11.37 13.99-19.83 18.85q-8.13 4.69-12.95 6.17c-12.74 3.91-24.28-2.04-32.93-11.44q-6.81-7.39-11.33-15.65a.38.38 0 0 0-.71.18q-.04 8.84-1.24 20.87c-1.17 11.82 3.1 26.62 8.66 37.17 5.58 10.59 13.16 18.47 24.14 22.85 4.86 1.94 10.97 1.83 16.27 1.85q2.5.01 4.41 1.2a1.51 1.5-80.6 0 1 .67.94q.57 2.56.26 4.53c-2.02 12.54-11.38 18.68-23.56 17.82-11.36-.81-20.88-5.59-29.16-13.19-17.07-15.67-26.37-36.83-28.34-59.62q-1.56-17.93 2.13-37.67 6.24-33.43 22.8-63.59 3.37-6.15 15.32-23.18a.3.29-53.2 0 0-.05-.4l-.01-.01a.31.31 0 0 0-.42.04q-9.05 10.55-12.48 15.58-4.24 6.22-10.32 16.41c-12.57 21.04-20.2 44.68-24.38 68.9q-4.81 27.95 4.45 53.63c6.27 17.37 17.38 31.25 31.77 42.63 14.53 11.47 36.57 16.89 52.01 3.97 7.03-5.87 10.77-16.46 7.04-25.29q-1.78-4.2-5.36-8.17c-2.25-2.49.17-6.37 2.41-7.93 16.02-11.11 32.23.63 33.56 18.08 1.2 15.87-8.73 31.31-21.96 39.54a.31.31 0 0 0 .22.57q3.18-.62 6.24-2.17c11.39-5.79 19.54-14.06 22.85-26q3.5-12.6-2.54-25.28c-2.55-5.37-8.08-11.35-14.1-13.56q-1.22-.45-5.35-2.39-2.42-1.14-2.82-4.51-.69-5.7 2.67-9.79 10.91-13.29 27.59-8.21c19.84 6.03 30.71 27.02 30.34 47.02-.4 22.01-10.27 43.75-26.39 58.41-14.06 12.8-33.31 20.15-52.74 22.28-12.41 1.36-26.14-1.47-37.7-5.3q-23.56-7.79-40.91-25.72-8.3-8.58-10.78-11.78-1.4-1.82-7.07-10.67c-22.33-34.85-24.85-77.55-12.28-116.67q6.71-20.89 16.98-39.58c14.51-26.43 33.12-49.52 55.3-72.38q12.87-13.27 31.26-25.38c14.72-9.69 27.76-17.12 42.79-22.11q10.38-3.45 22.15-6.14c13.58-3.11 25.54-2.95 41.03-2.71q19.27.31 35.87 4.77c37.49 10.06 69.38 29.89 95.9 57.69q8.53 8.95 19.26 22.47 23.09 29.09 37.73 61.99 6.8 15.28 11.1 35.15 7.87 36.36-2.23 68.79-8.73 28.01-28.18 48.71-19.17 20.38-47.07 30.75-39.61 14.71-75.28-6.09-11.29-6.58-22.06-19.76c-15.75-19.25-22.18-46.9-12.55-70.47 4.36-10.67 13.78-21.37 25.45-23.88 11.1-2.39 21.6-.48 29.35 8.41 3.09 3.54 3.73 6.82 1.99 10.98a3.9 3.88 1.3 0 1-2.29 2.17c-6.8 2.39-13.57 4.63-17.53 10.75-11.62 17.92-7.16 38.59 9.29 51.29q5.73 4.43 13.62 7.88a.34.34 0 0 0 .44-.48c-.8-1.44-4.42-4.4-8.69-8.23q-11.96-10.72-12.7-26.34c-.46-9.6 4.29-20.37 13.21-24.85 6.15-3.09 18.33-2.3 23.16 3.4a2.59 2.58 29.3 0 1 .59 2.09c-.32 2.08-1.45 3.92-2.85 5.93q-8.46 12.14-1.06 24.95c8.06 13.94 23.04 17.33 38.25 12.12 18.85-6.44 35.4-22.83 44.69-40.4 12.89-24.38 15.47-52.15 9.15-78.86-4.21-17.78-11.29-36.26-20.43-52.78-2.72-4.92-6.67-10.52-9.44-14.85-5.09-7.94-10.13-14.1-15.53-21.03a.15.14-35.5 0 0-.19-.03l-.04.03a.25.24 57.4 0 0-.07.33m-201.76-45.86c-13.7 7.86-25.46 18.94-35.24 31.39q-.42.53-6.38 8.6c-8.28 11.19-15 24.38-18.9 36.37-6.72 20.65-10.48 50.98 6.13 68.44q5.63 5.92 15.06 7.28a.59.53 31.5 0 0 .33-.06q.18-.1.24-.22a.32.32 0 0 0-.1-.44c-18.07-11.72-21.1-36.3-17.91-55.53q3.48-20.96 12.24-39.71c4.89-10.49 12.56-21.93 19.93-32.12q2.06-2.85 10.81-11.67 8.38-8.45 14-11.96a.21.2-31.9 0 0 .07-.29v-.01a.21.21 0 0 0-.28-.07m127.8.31a.19.19 0 0 0 .04.26q23.28 17.84 39.27 43 9.73 15.32 15.85 34.94 6.41 20.56 3.84 39.69c-.9 6.68-3.24 15.65-7.32 21.65q-4.4 6.46-10.31 12.34a.41.41 0 0 0 .39.68c6.47-1.66 13.77-5.29 17.56-11.16q5.75-8.93 7.12-20.03 1.17-9.48 1.15-11.42-.25-23.78-10.35-45.2-13.1-27.78-35.9-49.06-10.17-9.48-21.05-15.76a.22.22 0 0 0-.29.06zm29.45 125.73.02.01a.42.41 39.1 0 0 .57-.05q6.17-6.92 7.74-13.95 2.15-9.63.52-19.6a.33.33 0 0 0-.65.02q-.19 2.55-.53 9.43-.64 12.96-7.76 23.55a.44.43-54.2 0 0 .09.59m-194.71-15.83q1.86 6.89 7.06 12.82a.44.44 0 0 0 .71-.5c-2.17-3.86-4.53-8.5-5.71-12.87-1.18-4.38-1.48-9.57-1.55-14a.44.44 0 0 0-.86-.08q-1.51 7.74.35 14.63"/><path fill="#fffffa" d="M711.36 916.24a.21.21 0 0 1 .28.07v.01a.21.2-31.9 0 1-.07.29q-5.62 3.51-14 11.96-8.75 8.82-10.81 11.67c-7.37 10.19-15.04 21.63-19.93 32.12q-8.76 18.75-12.24 39.71c-3.19 19.23-.16 43.81 17.91 55.53a.32.32 0 0 1 .1.44q-.06.12-.24.22a.59.53 31.5 0 1-.33.06q-9.43-1.36-15.06-7.28c-16.61-17.46-12.85-47.79-6.13-68.44 3.9-11.99 10.62-25.18 18.9-36.37q5.96-8.07 6.38-8.6c9.78-12.45 21.54-23.53 35.24-31.39m127.8.31v-.01a.22.22 0 0 1 .29-.06q10.88 6.28 21.05 15.76 22.8 21.28 35.9 49.06 10.1 21.42 10.35 45.2.02 1.94-1.15 11.42-1.37 11.1-7.12 20.03c-3.79 5.87-11.09 9.5-17.56 11.16a.41.41 0 0 1-.39-.68q5.91-5.88 10.31-12.34c4.08-6 6.42-14.97 7.32-21.65q2.57-19.13-3.84-39.69-6.12-19.62-15.85-34.94-15.99-25.16-39.27-43a.19.19 0 0 1-.04-.26m-398.81 108.13a.31.31 0 0 1 .26-.53q5.66.84 6.93 1.03 3.07.46 6.95.43c25.99-.21 50.13-7.35 73.12-19.78q6.93-3.74 13.41-6.99a.45.45 0 0 1 .58.17l.01.02a.42.42 0 0 1-.13.57q-2.36 1.59-10.23 7.91c-23.32 18.69-59.67 33.2-88.84 18.59q-1.14-.57-2.06-1.42m569.03-24.24.2-.21a.16.16 0 0 1 .19-.02q27.35 16.42 59.75 23.5 15.87 3.47 30.73 1.46 3.77-.51 6.68-1.52a.53.53 0 0 1 .71.52q-.01.27-.39.58-5.32 4.37-14.27 6.22c-5.43 1.13-10.28 1.95-15.34 1.52-18.1-1.57-32.71-7.01-47.67-16.73q-9.54-6.2-20.56-14.84a.32.32 0 0 1-.03-.48"/><path fill="#fffffa" d="M868.61 1042.28a.44.43-54.2 0 1-.09-.59q7.12-10.59 7.76-23.55.34-6.88.53-9.43a.33.33 0 0 1 .65-.02q1.63 9.97-.52 19.6-1.57 7.03-7.74 13.95a.42.41 39.1 0 1-.57.05zm-192.65-16.38c1.18 4.37 3.54 9.01 5.71 12.87a.44.44 0 0 1-.71.5q-5.2-5.93-7.06-12.82t-.35-14.63a.44.44 0 0 1 .86.08c.07 4.43.37 9.62 1.55 14m-115.3-7.96.2.2a.18.17-51.9 0 1 .02.2c-17.93 31.37-29.59 64.53-25.74 100.06a.31.31 0 0 1-.5.28q-.94-.76-1.6-2.22-3.97-8.7-4.78-17.69c-1.99-22.09 5.86-42.48 17.74-61.76q2.46-3.99 13.92-19.02a.49.49 0 0 1 .74-.05m433.17 5.49a.29.29 0 0 1 .52-.19c10.11 12.22 19.15 24.99 24.35 40.62 5.81 17.41 7.43 34.58-1.6 50.99q-.55 1-1.32 1.51a.41.4 79.7 0 1-.62-.43c3.31-13.96 1.7-29.82-1.73-43.87q-6.04-24.75-18.85-46.38-.71-1.19-.75-2.25"/></svg>