<svg xmlns="http://www.w3.org/2000/svg" viewBox="0 0 500 500"><g fill="none" stroke="#da9c92" stroke-width="2"><path d="M204.09 194.05c-14.8-15.88-23.86-43.88-5.62-61.23 4.05-3.85 11.45-7 16.66-4.38q4.24 2.13 4.28 7.74c.01 1.56-1.27 3.61-1.71 4.67a1.97 1.97 0 0 0 .86 2.5q2.67 1.45 5.68.67c4.49-1.16 5.81-7.46 4.58-11.26q-1.56-4.83-5.66-7.75a.12.11 74 0 1 .11-.2q3.59 1.56 6.04 4.65c3.86 4.88 3.32 13.06-2.72 15.82q-2.4 1.1-2.66 1.24a2 2 0 0 0-.87 2.55c3.41 7.82 13.19 5.55 16.96 0 5.43-8.01 3.7-19.2-2.65-26.44-10.66-12.17-25.13-12.25-38.31-4.11-14.88 9.2-21.14 26.87-17.59 43.57 3.3 15.53 11.84 27.97 23.31 39.87q16.56 17.17 38.32 18.1c9.11.39 16.57.22 25.16-3.28q9.8-4 17.2-10.58c21.94-19.53 43.06-53.96 20.64-81.53-9.55-11.74-25.36-16.51-39.23-9.3q-7.04 3.67-10.73 9.81c-5.17 8.63-5.72 21.27 3.49 27.05q7.17 4.5 12.09-2.3.95-1.31.38-2.78a1.69 1.68-87 0 0-.78-.87c-4.91-2.64-7.96-6.04-7.09-12.13q1.02-7.18 8.44-10.2a.18.18 0 0 1 .16.31q-3.37 2.17-5.02 5.25c-2.48 4.62-1.99 10.96 2.86 13.54q3.09 1.63 6.65-.78a2.11 2.1-36.5 0 0 .46-3.05q-2.31-2.92-1.29-6.21c2.3-7.43 11.5-7.24 16.88-3.88 13.97 8.72 16.77 23.31 11.94 39q-3.8 12.33-11.85 23.04a.19.18-53.1 0 1-.25.04l-.01-.01a.11.1-59.6 0 1-.03-.14q8.42-12.69 11.22-27.96c1.57-8.6.15-16.65-3.95-23.79-2.75-4.78-8.11-9.62-13.9-9.34-3.95.19-7.93 2.28-8.62 6.34a1.57 1.57 0 0 0 1.69 1.83q9.57-.92 13.87 7.9c2.69 5.53 2.73 11.6 2.3 18.1a.23.23 0 0 1-.43.1c-2.97-5.14-6.79-9.86-12.49-8.88q-6.84 1.17-11.6 7.4c-1.93 2.52-1.46 4.13.47 6.65 9.64 12.52 2.14 28.69-9.27 37.21a.2.2 0 0 1-.27-.03.19.18 47.4 0 1 .01-.25q5.43-5.54 7.28-12.59c1.47-5.63.8-13.54-4.15-17.29q-4.18-3.16-7.99-.17-1.81 1.42-.82 3.27 6.14 11.38.14 22.16-2.14 3.82-5.1 5.32c-6.62 3.33-12-1.67-14.37-7.78q-3.67-9.45 2.18-18.61.9-1.42.58-3.21a1.74 1.67 18.7 0 0-.48-.92q-2.94-2.93-6.92-1.17c-9 3.99-8.55 16.48-4.65 23.87q2.02 3.82 4.94 7.06a.07.07 0 0 1-.09.11q-6.32-4.61-10-11.35c-3.66-6.7-4.62-16.02-.33-22.67 1.59-2.47 5.38-4.25 3.64-7.47q-4.03-7.52-13.69-9.77a3.7 3.7 0 0 0-1.77.04q-6.3 1.77-8.63 6.05-.91 1.67-1.31 2.15a.27.27 0 0 1-.47-.15c-1.07-10.37 2.19-25.63 15.84-24.46a1.01 1-83.8 0 0 1.09-.88c.67-5.39-3.88-8.69-8.9-7.4-9.54 2.45-15.41 12.3-17.02 21.41-2.57 14.58 4.09 30.51 12.92 42.14a.02.02 0 0 1-.03.02" vector-effect="non-scaling-stroke"/><path d="M354.07 161.86q3.37-3.98 2.11-8.28-2.62-8.97-11.91-11.29-3.01-.75-6.76 2.36a.46.45-30 0 1-.72-.19c-2.14-5.83-5.55-9.63-12.01-8.8q-2.74.35-4.44 3.02a1.72 1.71 49.9 0 0-.13 1.55c3.66 8.75 1.24 18.05-2.62 26.61q-6.31 14-16.52 26.21-12.99 15.53-29.48 28.22a1.87 1.87 0 0 0-.19 2.81l3.48 3.48a1.86 1.86 0 0 0 2.79-.19q6.15-8.07 16.22-18.47 13.95-14.4 30.4-23.58c10.29-5.75 20.05-9.52 31.67-7.95a.83.78 62.5 0 1 .32.11l2.64 1.52a2.24 2.24 0 0 0 2.78-.42c5.93-6.44-.29-14.82-7.38-16.04a.42.42 0 0 1-.25-.68m-211.44 1.34q-6.52 1.64-8.49 7.01c-1.22 3.33-.86 7.36 2.12 9.55a.97.96-48.9 0 0 1.25-.09c4.51-4.42 16.35-2.17 21.06-.41q19.78 7.36 36.34 22.3c9.08 8.19 17.16 16.44 24.13 26.89a1.51 1.51 0 0 0 2.32.23l4.17-4.17a1.46 1.46 0 0 0-.19-2.23q-17.85-12.67-31.89-29.98-10.49-12.92-16.17-27.85c-2.26-5.95-5.29-18.51-.8-23.83a1.77 1.77 0 0 0-.29-2.55c-6.31-4.69-14.49.03-15.53 7.27a.4.4 0 0 1-.7.2q-3.69-4.31-9.24-2.09c-6.73 2.69-14.8 12.38-7.89 19.02a.43.43 0 0 1-.2.73" vector-effect="non-scaling-stroke"/><path d="M202.99 236.06c-6.15-4.86-11.06-8.7-19.24-7.9-4.15.41-10.14 2.95-11.6 7.34-.91 2.74-.24 7 3.18 7.52q1.09.17 3.13-1.12c6.89-4.37 15.31-4.2 21.8.45 8 5.72 5.26 14.19-2.82 18.16q-10.43 5.13-21.18-1.34a1.69 1.69 0 0 0-1.99.18c-3.44 3.04-2.74 7.05.37 10.01 6.04 5.75 15.98 4.68 22.61.65q3.29-2 6.37-5.06a.23.23 0 0 1 .31-.01v.01a.2.2 0 0 1 .03.27q-7.1 9.25-17.27 12.7-5.65 1.92-12.96.55c-3.24-.6-5.29-2.16-7.5-4.39-2.33-2.36-5.3-1-7.37.79q-4.7 4.06-5.84 9.91c-1.36 7.04 3.29 9.75 8.08 13.39a.23.23 0 0 1-.11.41c-9.72 1.17-27.02-1.73-25.35-14.97a2.28 2.28 0 0 0-3.04-2.43l-.81.29a6.54 6.52-5.3 0 0-4.24 5.09c-1.87 11.43 10.52 19.25 20.28 20.66 13.38 1.93 28.62-3.55 39.69-10.83a.14.14 0 0 1 .2.04l.01.01a.14.13 56.4 0 1-.03.18c-10.59 8.04-24.88 14.33-38.16 13.31-9.56-.73-20.57-6.96-24.31-16.08-3.3-8.01 1.85-19.03 11.69-13.2a2.07 2.07 0 0 0 2.7-.52c4.41-5.8-1.47-10.79-7.28-10.7q-6.91.12-10.8 6.1a.22.22 0 0 1-.28.07l-.01-.01a.27.26-62.9 0 1-.11-.35c4.65-9.52 16.83-12.39 21.88-1.17a2.06 2.05 66.6 0 0 2.66 1.06q5.01-2.06 4.94-7.09c-.11-8.81-9.53-13.45-17.43-12.64-20.25 2.05-29.41 25.07-20.39 42.11 5.24 9.91 14.23 16.67 25.57 19.45 14.1 3.45 28.97-1.04 40.83-8.53 15.55-9.82 30.23-23.44 35.65-39.75 6.76-20.3 1.62-41.87-12.71-57.52-18.18-19.85-50.17-38.72-76.26-20.23-7.16 5.07-12.41 12.91-14.73 20.97q-4.43 15.4 6.65 26.81c6.63 6.83 15.93 9.46 24.95 6.18q3.68-1.34 5.6-3.94c3.44-4.65 3.55-11.57-2.05-14.77a2.01 2.01 0 0 0-2.88 1.04q-2.9 7.73-10.19 7.57c-5.28-.11-9.87-3.6-11.35-8.18a.22.22 0 0 1 .38-.21q5.05 6.36 11.49 5.84c5.92-.48 9.83-6.69 5.43-11.83a.94.94 0 0 0-1.32-.11c-2.48 2.05-5.17 3.05-8.44 1.47q-7.15-3.47-4.52-11.86c3.02-9.63 12.79-16.3 22.32-18.14 13.9-2.68 29.76 3.77 40.76 12.73a.18.18 0 0 1 .03.25v.01a.2.2 0 0 1-.27.05c-16.52-11.48-41.59-18.06-56.8-.68-4.56 5.21-6.01 14.21 2.54 16.52a1.68 1.68 0 0 0 2.11-1.53c.34-6.4 1.85-10.93 8.22-13.7q7.47-3.24 16.56-2.12a.24.24 0 0 1 .08.46c-4.62 2.3-9.54 7.85-8.03 13.34 1.22 4.46 6.27 12.88 12.06 12.26a1.61 1.58 19.9 0 0 .9-.41c2.55-2.33 4.36-4.69 8.65-5.62 11.66-2.54 22.04 3.45 29.1 12.6a.1.09 1.2 0 1-.14.13m103.62-29.33a.13.12-39.9 0 1 .02-.17c16.77-13.76 48.81-25.38 63.38-.87 4.22 7.11 2.47 16.48-6.66 16.97a2.91 2.89 58.1 0 1-1.61-.38l-2.22-1.29a2.18 2.17 34.3 0 0-2.77.52q-1.64 2.03-1.43 4.54c.38 4.3 4.38 6.28 8.5 6.23q7.33-.08 11.3-6.49a.19.19 0 0 1 .25-.07v.01a.19.18 25.1 0 1 .09.24c-2.19 4.86-6.46 9.13-12.27 8.93q-7.23-.26-10.1-7.15a1.42 1.41 89.4 0 0-.78-.77q-2.03-.84-3.53.43c-9.83 8.32 1.37 18.3 10.12 18.95 10.91.82 19.13-4.34 24.31-13.93 8.07-14.92 2.83-30.32-9.94-40.51-9.11-7.27-20.9-9.97-32.63-8-19.93 3.33-38.04 17.3-50.2 33.03-7.05 9.12-11.46 19.63-11.66 31.58-.23 14.23 2.74 26.88 11.24 37.67 11.23 14.24 28.28 27.75 46.26 31.21 19.12 3.67 37.47-3.71 46.24-21.24q7.67-15.35-.67-28.33c-3.4-5.29-9.39-10.06-15.39-11.47-8.33-1.96-18.98.25-21.25 9.53q-1.43 5.86 2.99 9.36 1.65 1.31 3.05.81a1.74 1.74 0 0 0 .8-.6q.54-.72 1.46-2.69c1.62-3.45 5.7-5.75 9.03-5.65q7.76.25 11.4 8.52.03.07.14.2t.09.31a.13.13 0 0 1-.24.05q-4.94-8.15-14.15-5.94c-5.2 1.24-6.78 8.17-2.67 11.51a1.04 1.03 44.1 0 0 1.34-.02c2.73-2.41 5.43-3.03 8.63-1.25q6.22 3.44 3.66 11.77c-2.22 7.21-9.31 13.75-16.21 16.22-16.89 6.04-35.75-1.11-48.64-12.72a.09.09 0 0 1 .01-.14q.03-.02.05.04.91 2.45 17.17 9.2 10.83 4.5 21.17 3.3c10.06-1.17 23.04-7.45 24.33-18.53.52-4.42-2.22-8.66-7.05-7.82a.82.8 89.7 0 0-.65.68c-.73 5.16-1.19 8.72-4.66 11.28q-4.37 3.21-9.62 4.53c-3.65.91-7.69.63-11.69.62a.19.19 0 0 1-.09-.36q11.46-5.68 7.59-16.25c-1.62-4.43-5.21-8.22-9.76-9.78a2.16 2.15 30.3 0 0-2.3.6q-6.74 7.56-17.08 6.07-12.84-1.86-21.21-13.56-.01-.02.1-.13a.04.04 0 0 1 .06 0q8.19 8.02 17.95 8.43c4.78.19 11.65-2.5 13.52-7.6q1.07-2.9-.28-5.47c-1.46-2.81-3.48-2.2-5.93-.69q-9.16 5.61-19.4.93c-3.96-1.8-7.87-6.34-7.25-10.9q.51-3.85 3.11-5.87 11.88-9.27 25.35-1.82a2.29 2.29 0 0 0 2.78-.44c5.66-5.99-1.79-11.86-7.53-13.03-8.2-1.66-15.65 2.08-21.84 7.46a.14.13 89.5 0 1-.19-.19c7.54-9.42 17.55-15.3 29.88-12.79q3.91.8 8.53 5.02a2.03 1.98-19.1 0 0 1.06.5q1.58.23 2.8-.47c7.24-4.15 12.64-15.32 4.63-21.71q-3.38-2.7-3.82-3.08a.29.28 62 0 1 .15-.5c8.74-.89 17.65.17 23.55 7.32q1.98 2.38 1.41 7.8a2.47 2.47 0 0 0 3.58 2.46l1.26-.65a6.74 6.71-11.8 0 0 3.67-5.59q.36-6.1-3.17-10.52c-14.9-18.64-43.84-8.08-59.38 2.62a.06.05-35.2 0 1-.08-.01l-.01-.01m-41.332 26.48a24.41 23.7-45.8 0 0-34.009.977 24.41 23.7-45.8 0 0-.027 34.023 24.41 23.7-45.8 0 0 34.009-.977 24.41 23.7-45.8 0 0 .027-34.023" vector-effect="non-scaling-stroke"/><path d="M159.68 357.1c1.31 6.68 8.48 11.71 15.05 8.09a2.87 2.87 0 0 0 1.26-3.64c-2.68-6.32-1.38-15.72.81-21.75 4.59-12.7 11.78-24.31 21.12-34.79q12.4-13.93 26.97-24.85a1.46 1.46 0 0 0 .15-2.2l-4.48-4.48a1.13 1.12-50.2 0 0-1.72.16c-7.38 10.69-15.02 18.24-26.28 28.16q-7.62 6.71-15.79 11.54c-10.12 5.99-18.62 10.42-29.71 11.04q-5.85.32-10.29-1.77a1.29 1.27 32.2 0 0-1.54.34q-3.2 3.9-1.9 8.64 1.64 6.03 8.62 7.78a.48.48 0 0 1 .28.73c-1.57 2.32-2.81 4.37-1.9 7.63q2.19 7.92 10.41 10.99 4.22 1.58 8.27-1.85a.41.41 0 0 1 .67.23m176.15-.73a.43.43 0 0 1 .73-.2c6.65 6.91 16.34-1.18 19.03-7.92q2.22-5.55-2.1-9.24a.4.4 0 0 1 .2-.7c7.24-1.05 11.96-9.24 7.26-15.55a1.77 1.77 0 0 0-2.55-.29c-5.32 4.5-17.9 1.48-23.85-.78q-14.95-5.67-27.89-16.16-17.34-14.03-30.04-31.88a1.46 1.46 0 0 0-2.23-.19l-4.17 4.18a1.51 1.51 0 0 0 .23 2.32c10.47 6.96 18.73 15.04 26.94 24.12q14.97 16.56 22.35 36.35c1.77 4.71 4.03 16.56-.39 21.08a.97.96-41.1 0 0-.09 1.25c2.2 2.98 6.23 3.34 9.56 2.11q5.37-1.97 7.01-8.5" vector-effect="non-scaling-stroke"/><path d="M233.75 295.48c-5.41 5.89-8.44 12.63-7.7 20.75.55 5.99 6.17 14.01 12.85 9.25a2.34 2.34 0 0 0 .66-3.08q-6.87-11.69.36-23.47c1.71-2.78 6.08-5.8 9.77-5.09 4.77.92 8.24 5.7 9.54 10.21q1.7 5.88-.01 11.94c-.67 2.38-2.19 4.35-3.1 6.44a2.53 2.53 0 0 0 .42 2.69c3.28 3.74 8.83 2.16 11.39-1.69 6.08-9.09 2.26-19.47-4.7-27.15a.15.15 0 0 1 0-.2.16.16 0 0 1 .22-.03q12.99 9.6 12.63 25.36c-.11 5.1-2.35 8.39-5.73 11.92a1.93 1.93 0 0 0-.51 1.11c-.57 5.32 5.82 9.46 10.16 11.18 6.85 2.71 12.57-1.39 15.35-7.53a.22.22 0 0 1 .42.07c.95 10.26-1.58 24.62-13.75 25.58q-1.89.15-1.99.17a1.71 1.71 0 0 0-1.37 2.13q1.69 6.3 8.08 5.76c5.47-.46 9.51-4.43 12.81-8.76 5.22-6.88 6.44-17.77 5.16-26.03q-1.43-9.17-5.43-17.31-1.36-2.76-6.22-10.66a.18.17 57.8 0 1 .05-.23h.01a.17.17 0 0 1 .24.05q6.46 9.54 7.71 12.04c8.58 17.17 10.36 36.41-5.38 49.77q-1.22 1.03-3.35 2.07c-6.26 3.06-12.01 3.25-15.54-3.63q-1.39-2.7 1.03-6.83a2.88 2.88 0 0 0-2.49-4.34h-1.75a6.58 6.57 11.6 0 0-6.04 3.97c-1.93 4.48-.9 9.27 2.7 12.6q.21.2 2.61 2.37a.22.22 0 0 1-.2.38c-5.2-1.43-8.44-6.98-8.39-12q.08-7.3 6.78-9.45a2.84 2.81-8.4 0 0 1.96-2.61q.03-.84-1.15-2.09-3.81-4.01-9.27-2.73c-9.14 2.15-11.33 13.57-9.05 21.42 3.19 10.96 13.18 18.81 24.55 19.28q6.91.28 14.53-3.24 14.92-6.91 20.66-23.31c8.49-24.26-9.4-51.68-26.75-66.77-17.06-14.85-41.01-19.04-61.7-9.63-5.54 2.52-12.61 7.38-16.92 11.52-12.58 12.09-24.44 28.78-26.74 45.87q-2.66 19.7 9.69 34.17c7.99 9.38 20.35 14.23 32.31 11.14 11.03-2.85 19.03-11.63 20.12-23.06.62-6.54-1.67-13.22-7.33-16.21q-7.54-3.99-11.91 2.89a2.57 2.56-60.3 0 0 1 3.66c1.87.96 3.1 1.44 4.24 2.66 5.95 6.36 1.86 15.99-5.63 18.9a.1.1 0 0 1-.1-.18c5.31-3.97 8.7-12.05 3.78-17.56a5.95 5.95 0 0 0-6.04-1.76l-1.36.38a2.76 2.76 0 0 0-1.5 4.25c3.71 5.23.26 10.91-5.65 11.85q-6.37 1.02-11.87-3.29c-19.87-15.54-11.7-43.44 1.51-60.56a.11.11 0 0 1 .16-.02h.01a.11.11 0 0 1 .02.15q-9.53 14.08-11.14 30.79c-1.09 11.23 3.62 24.42 14.34 29.17 4.6 2.04 12.64.94 11.81-6.08a1.23 1.22 85.2 0 0-1.27-1.08q-8.93.4-13.28-7.86c-3.11-5.92-3.1-11.47-2.4-18a.22.22 0 0 1 .42-.08c3.02 6.04 8.84 10.8 15.94 7.48q5.77-2.7 8.74-7.82a3.48 3.48 0 0 0-.47-4.15c-2.47-2.62-3.98-3.95-4.72-7.32q-1.75-7.98 1.34-15.51 3.64-8.86 11.46-15.29a.03.02-31.7 0 1 .03 0l.33.28a.01.01 0 0 1 0 .02m35.67-87.73c10.03-6.92 17.76-17.85 19.86-30.18 1.09-6.45-.02-14.97-6.91-17.62a.26.26 0 0 0-.28.42q5.59 5.93 5.11 14.39c-.71 12.82-8.18 24.62-17.87 32.87a.08.07-82.2 0 0 .09.12m-43.65-.33q-12.46-9.76-16.77-24.87-3.6-12.65 4.68-22a.32.32 0 0 0-.38-.5c-8.09 3.95-8.46 15.02-6.24 22.39q4.79 15.87 18.64 25.16a.03.02 27.1 0 0 .04-.01q0-.01.01-.02a.16.05-65.4 0 0 .02-.15" vector-effect="non-scaling-stroke"/><path d="M278.096 169.114a2.68.26-114.1 0 0 .857 2.552 2.68.26-114.1 0 0 1.331 2.34 2.68.26-114.1 0 0-.857-2.552 2.68.26-114.1 0 0-1.331-2.34M215.65 172.1q-.55 1.71-.31 3.1a.05.05 0 0 0 .11 0q.29-1.58.73-2.93.43-1.34 1.12-2.8a.05.05 0 0 0-.09-.06q-1.01.99-1.56 2.69m102.18 2.81c6.14-7.38 10.69-16.33 9.34-26.07q-.32-2.26-1.35-3.98a.16.16 0 0 0-.3.09c.71 11.43-3 19.79-7.83 29.87a.08.08 0 0 0 .14.09m7.41 5.51a.08.08 0 0 0 .09.13c9.38-4.51 17.17-7.97 27.81-7.32a.15.15 0 0 0 .09-.28q-1.6-.96-3.71-1.25c-9.07-1.25-17.41 2.99-24.28 8.72m-147.06-5.26a.08.08 0 0 0 .14-.09c-4.62-9.84-8.16-17.99-7.38-29.1a.16.16 0 0 0-.29-.09q-1.01 1.66-1.34 3.86c-1.39 9.46 2.96 18.19 8.87 25.42m-7.82 4.86c-6.83-5.39-15.04-9.3-23.83-7.85q-2.04.34-3.58 1.31a.15.15 0 0 0 .09.27c10.34-.91 18 2.26 27.24 6.4a.08.08 0 0 0 .08-.13m34.11 48.35c-7-9.76-17.91-17.18-30.09-19.03-6.38-.96-14.76.29-17.24 7.13a.26.25-12.3 0 0 .42.27q5.74-5.62 14.08-5.3c12.65.47 24.41 7.62 32.72 17.02a.07.07 0 0 0 .11-.09" vector-effect="non-scaling-stroke"/><path d="M169.88 218.79q-1.67.37-3.16 1.35a.13.13 0 0 0 .11.23q2.55-.99 3.16-1.12.6-.14 3.33-.34a.13.13 0 0 0 .01-.26q-1.77-.24-3.45.14m34.21 54.96a.07.07 0 0 0-.11-.09c-8.27 9.18-19.91 16.11-32.37 16.45q-8.21.24-13.82-5.34a.25.25 0 0 0-.41.26c2.39 6.75 10.62 8.06 16.9 7.18 12.02-1.71 22.83-8.92 29.81-18.46" vector-effect="non-scaling-stroke"/><path d="M170.8 283.43q1.95.55 4.07.38a.16.16 0 0 0 .01-.31q-3.22-.41-3.93-.61-.72-.2-3.67-1.54a.16.16 0 0 0-.16.27q1.71 1.26 3.68 1.81m17.908 12.116a.49.17-41.4 0 0-.48.197.49.17-41.4 0 0-.256.451.49.17-41.4 0 0 .48-.197.49.17-41.4 0 0 .256-.451M291.42 229.36a.08.07-7.6 0 0 .12.09c8.26-9.65 20.06-17.08 32.86-17.76q8.45-.46 14.36 5.13a.26.26 0 0 0 .42-.27c-2.63-6.89-11.14-8.02-17.58-6.95-12.32 2.07-23.25 9.76-30.18 19.76" vector-effect="non-scaling-stroke"/><path d="M326.6 219.01q-1.64-.56-2.98-.35a.05.05 0 0 0 0 .1q1.51.31 2.8.76 1.29.44 2.68 1.13a.05.05 0 0 0 .06-.09q-.93-.99-2.56-1.55m-35.16 54.71c7.97 11.85 22.78 20.3 37.28 19.07q7.68-.66 10.26-7.61a.37.37 0 0 0-.63-.37q-6.57 7.62-17.53 5.81-17.34-2.87-29.17-17.06a.13.13 0 0 0-.21.16" vector-effect="non-scaling-stroke"/><path d="M325.86 283.47q1.87-.43 3.54-1.52a.15.15 0 0 0-.14-.26q-2.84 1.11-3.52 1.26-.67.16-3.72.38a.15.15 0 0 0-.01.29q1.98.27 3.85-.15m-154.07 37.3a.08.08 0 0 0-.09-.14c-10 4.65-18.28 8.21-29.55 7.39a.16.16 0 0 0-.09.29q1.68 1.04 3.91 1.38c9.59 1.44 18.47-2.95 25.82-8.92m6.56 6.14c-6.02 7.4-10.45 16.35-9 26.01q.34 2.24 1.38 3.94a.16.16 0 0 0 .3-.09c-.83-11.35 2.77-19.7 7.46-29.77a.08.08 0 0 0-.14-.09m145.41-6.13c7.23 5.95 15.97 10.34 25.46 8.98q2.2-.33 3.87-1.34a.16.16 0 0 0-.09-.29c-11.14.75-19.3-2.83-29.15-7.48a.08.08 0 0 0-.09.13m-4.89 7.38a.08.08 0 0 0-.14.08c4.2 9.4 7.4 17.18 6.46 27.68a.15.15 0 0 0 .28.09q.99-1.55 1.34-3.63c1.48-8.92-2.48-17.27-7.94-24.22m-94.05-33.15c-9.42 7.1-16.46 17.97-17.99 29.98-.8 6.27.61 14.47 7.38 16.75a.25.25 0 0 0 .26-.41q-5.65-5.51-5.52-13.71c.17-12.42 6.92-24.13 15.96-32.49a.07.07 0 0 0-.09-.12m46.51.2a.07.07 0 0 0-.09.11c9.14 8.23 16.05 19.82 16.39 32.22q.24 8.19-5.31 13.77a.25.25 0 0 0 .26.41c6.72-2.38 8.02-10.58 7.14-16.83-1.71-11.97-8.88-22.73-18.39-29.68" vector-effect="non-scaling-stroke"/><path d="M215.66 328.24q.5 1.79 1.64 3.36a.14.14 0 0 0 .25-.14q-1.22-2.71-1.4-3.36t-.54-3.59a.14.14 0 0 0-.28 0q-.17 1.93.33 3.73m65.155-2.622a3.5.24-75.7 0 0-1.098 3.333 3.5.24-75.7 0 0-.631 3.45 3.5.24-75.7 0 0 1.097-3.332 3.5.24-75.7 0 0 .632-3.45" vector-effect="non-scaling-stroke"/></g><path fill="#fffffb" d="M500 0v500H0V0zM204.09 194.05c-14.8-15.88-23.86-43.88-5.62-61.23 4.05-3.85 11.45-7 16.66-4.38q4.24 2.13 4.28 7.74c.01 1.56-1.27 3.61-1.71 4.67a1.97 1.97 0 0 0 .86 2.5q2.67 1.45 5.68.67c4.49-1.16 5.81-7.46 4.58-11.26q-1.56-4.83-5.66-7.75a.12.11 74 0 1 .11-.2q3.59 1.56 6.04 4.65c3.86 4.88 3.32 13.06-2.72 15.82q-2.4 1.1-2.66 1.24a2 2 0 0 0-.87 2.55c3.41 7.82 13.19 5.55 16.96 0 5.43-8.01 3.7-19.2-2.65-26.44-10.66-12.17-25.13-12.25-38.31-4.11-14.88 9.2-21.14 26.87-17.59 43.57 3.3 15.53 11.84 27.97 23.31 39.87q16.56 17.17 38.32 18.1c9.11.39 16.57.22 25.16-3.28q9.8-4 17.2-10.58c21.94-19.53 43.06-53.96 20.64-81.53-9.55-11.74-25.36-16.51-39.23-9.3q-7.04 3.67-10.73 9.81c-5.17 8.63-5.72 21.27 3.49 27.05q7.17 4.5 12.09-2.3.95-1.31.38-2.78a1.69 1.68-87 0 0-.78-.87c-4.91-2.64-7.96-6.04-7.09-12.13q1.02-7.18 8.44-10.2a.18.18 0 0 1 .16.31q-3.37 2.17-5.02 5.25c-2.48 4.62-1.99 10.96 2.86 13.54q3.09 1.63 6.65-.78a2.11 2.1-36.5 0 0 .46-3.05q-2.31-2.92-1.29-6.21c2.3-7.43 11.5-7.24 16.88-3.88 13.97 8.72 16.77 23.31 11.94 39q-3.8 12.33-11.85 23.04a.19.18-53.1 0 1-.25.04l-.01-.01a.11.1-59.6 0 1-.03-.14q8.42-12.69 11.22-27.96c1.57-8.6.15-16.65-3.95-23.79-2.75-4.78-8.11-9.62-13.9-9.34-3.95.19-7.93 2.28-8.62 6.34a1.57 1.57 0 0 0 1.69 1.83q9.57-.92 13.87 7.9c2.69 5.53 2.73 11.6 2.3 18.1a.23.23 0 0 1-.43.1c-2.97-5.14-6.79-9.86-12.49-8.88q-6.84 1.17-11.6 7.4c-1.93 2.52-1.46 4.13.47 6.65 9.64 12.52 2.14 28.69-9.27 37.21a.2.2 0 0 1-.27-.03.19.18 47.4 0 1 .01-.25q5.43-5.54 7.28-12.59c1.47-5.63.8-13.54-4.15-17.29q-4.18-3.16-7.99-.17-1.81 1.42-.82 3.27 6.14 11.38.14 22.16-2.14 3.82-5.1 5.32c-6.62 3.33-12-1.67-14.37-7.78q-3.67-9.45 2.18-18.61.9-1.42.58-3.21a1.74 1.67 18.7 0 0-.48-.92q-2.94-2.93-6.92-1.17c-9 3.99-8.55 16.48-4.65 23.87q2.02 3.82 4.94 7.06a.07.07 0 0 1-.09.11q-6.32-4.61-10-11.35c-3.66-6.7-4.62-16.02-.33-22.67 1.59-2.47 5.38-4.25 3.64-7.47q-4.03-7.52-13.69-9.77a3.7 3.7 0 0 0-1.77.04q-6.3 1.77-8.63 6.05-.91 1.67-1.31 2.15a.27.27 0 0 1-.47-.15c-1.07-10.37 2.19-25.63 15.84-24.46a1.01 1-83.8 0 0 1.09-.88c.67-5.39-3.88-8.69-8.9-7.4-9.54 2.45-15.41 12.3-17.02 21.41-2.57 14.58 4.09 30.51 12.92 42.14a.02.02 0 0 1-.03.02m149.98-32.19q3.37-3.98 2.11-8.28-2.62-8.97-11.91-11.29-3.01-.75-6.76 2.36a.46.45-30 0 1-.72-.19c-2.14-5.83-5.55-9.63-12.01-8.8q-2.74.35-4.44 3.02a1.72 1.71 49.9 0 0-.13 1.55c3.66 8.75 1.24 18.05-2.62 26.61q-6.31 14-16.52 26.21-12.99 15.53-29.48 28.22a1.87 1.87 0 0 0-.19 2.81l3.48 3.48a1.86 1.86 0 0 0 2.79-.19q6.15-8.07 16.22-18.47 13.95-14.4 30.4-23.58c10.29-5.75 20.05-9.52 31.67-7.95a.83.78 62.5 0 1 .32.11l2.64 1.52a2.24 2.24 0 0 0 2.78-.42c5.93-6.44-.29-14.82-7.38-16.04a.42.42 0 0 1-.25-.68m-211.44 1.34q-6.52 1.64-8.49 7.01c-1.22 3.33-.86 7.36 2.12 9.55a.97.96-48.9 0 0 1.25-.09c4.51-4.42 16.35-2.17 21.06-.41q19.78 7.36 36.34 22.3c9.08 8.19 17.16 16.44 24.13 26.89a1.51 1.51 0 0 0 2.32.23l4.17-4.17a1.46 1.46 0 0 0-.19-2.23q-17.85-12.67-31.89-29.98-10.49-12.92-16.17-27.85c-2.26-5.95-5.29-18.51-.8-23.83a1.77 1.77 0 0 0-.29-2.55c-6.31-4.69-14.49.03-15.53 7.27a.4.4 0 0 1-.7.2q-3.69-4.31-9.24-2.09c-6.73 2.69-14.8 12.38-7.89 19.02a.43.43 0 0 1-.2.73m60.36 72.86c-6.15-4.86-11.06-8.7-19.24-7.9-4.15.41-10.14 2.95-11.6 7.34-.91 2.74-.24 7 3.18 7.52q1.09.17 3.13-1.12c6.89-4.37 15.31-4.2 21.8.45 8 5.72 5.26 14.19-2.82 18.16q-10.43 5.13-21.18-1.34a1.69 1.69 0 0 0-1.99.18c-3.44 3.04-2.74 7.05.37 10.01 6.04 5.75 15.98 4.68 22.61.65q3.29-2 6.37-5.06a.23.23 0 0 1 .31-.01v.01a.2.2 0 0 1 .03.27q-7.1 9.25-17.27 12.7-5.65 1.92-12.96.55c-3.24-.6-5.29-2.16-7.5-4.39-2.33-2.36-5.3-1-7.37.79q-4.7 4.06-5.84 9.91c-1.36 7.04 3.29 9.75 8.08 13.39a.23.23 0 0 1-.11.41c-9.72 1.17-27.02-1.73-25.35-14.97a2.28 2.28 0 0 0-3.04-2.43l-.81.29a6.54 6.52-5.3 0 0-4.24 5.09c-1.87 11.43 10.52 19.25 20.28 20.66 13.38 1.93 28.62-3.55 39.69-10.83a.14.14 0 0 1 .2.04l.01.01a.14.13 56.4 0 1-.03.18c-10.59 8.04-24.88 14.33-38.16 13.31-9.56-.73-20.57-6.96-24.31-16.08-3.3-8.01 1.85-19.03 11.69-13.2a2.07 2.07 0 0 0 2.7-.52c4.41-5.8-1.47-10.79-7.28-10.7q-6.91.12-10.8 6.1a.22.22 0 0 1-.28.07l-.01-.01a.27.26-62.9 0 1-.11-.35c4.65-9.52 16.83-12.39 21.88-1.17a2.06 2.05 66.6 0 0 2.66 1.06q5.01-2.06 4.94-7.09c-.11-8.81-9.53-13.45-17.43-12.64-20.25 2.05-29.41 25.07-20.39 42.11 5.24 9.91 14.23 16.67 25.57 19.45 14.1 3.45 28.97-1.04 40.83-8.53 15.55-9.82 30.23-23.44 35.65-39.75 6.76-20.3 1.62-41.87-12.71-57.52-18.18-19.85-50.17-38.72-76.26-20.23-7.16 5.07-12.41 12.91-14.73 20.97q-4.43 15.4 6.65 26.81c6.63 6.83 15.93 9.46 24.95 6.18q3.68-1.34 5.6-3.94c3.44-4.65 3.55-11.57-2.05-14.77a2.01 2.01 0 0 0-2.88 1.04q-2.9 7.73-10.19 7.57c-5.28-.11-9.87-3.6-11.35-8.18a.22.22 0 0 1 .38-.21q5.05 6.36 11.49 5.84c5.92-.48 9.83-6.69 5.43-11.83a.94.94 0 0 0-1.32-.11c-2.48 2.05-5.17 3.05-8.44 1.47q-7.15-3.47-4.52-11.86c3.02-9.63 12.79-16.3 22.32-18.14 13.9-2.68 29.76 3.77 40.76 12.73a.18.18 0 0 1 .03.25v.01a.2.2 0 0 1-.27.05c-16.52-11.48-41.59-18.06-56.8-.68-4.56 5.21-6.01 14.21 2.54 16.52a1.68 1.68 0 0 0 2.11-1.53c.34-6.4 1.85-10.93 8.22-13.7q7.47-3.24 16.56-2.12a.24.24 0 0 1 .08.46c-4.62 2.3-9.54 7.85-8.03 13.34 1.22 4.46 6.27 12.88 12.06 12.26a1.61 1.58 19.9 0 0 .9-.41c2.55-2.33 4.36-4.69 8.65-5.62 11.66-2.54 22.04 3.45 29.1 12.6a.1.09 1.2 0 1-.14.13m103.62-29.33a.13.12-39.9 0 1 .02-.17c16.77-13.76 48.81-25.38 63.38-.87 4.22 7.11 2.47 16.48-6.66 16.97a2.91 2.89 58.1 0 1-1.61-.38l-2.22-1.29a2.18 2.17 34.3 0 0-2.77.52q-1.64 2.03-1.43 4.54c.38 4.3 4.38 6.28 8.5 6.23q7.33-.08 11.3-6.49a.19.19 0 0 1 .25-.07v.01a.19.18 25.1 0 1 .09.24c-2.19 4.86-6.46 9.13-12.27 8.93q-7.23-.26-10.1-7.15a1.42 1.41 89.4 0 0-.78-.77q-2.03-.84-3.53.43c-9.83 8.32 1.37 18.3 10.12 18.95 10.91.82 19.13-4.34 24.31-13.93 8.07-14.92 2.83-30.32-9.94-40.51-9.11-7.27-20.9-9.97-32.63-8-19.93 3.33-38.04 17.3-50.2 33.03-7.05 9.12-11.46 19.63-11.66 31.58-.23 14.23 2.74 26.88 11.24 37.67 11.23 14.24 28.28 27.75 46.26 31.21 19.12 3.67 37.47-3.71 46.24-21.24q7.67-15.35-.67-28.33c-3.4-5.29-9.39-10.06-15.39-11.47-8.33-1.96-18.98.25-21.25 9.53q-1.43 5.86 2.99 9.36 1.65 1.31 3.05.81a1.74 1.74 0 0 0 .8-.6q.54-.72 1.46-2.69c1.62-3.45 5.7-5.75 9.03-5.65q7.76.25 11.4 8.52.03.07.14.2t.09.31a.13.13 0 0 1-.24.05q-4.94-8.15-14.15-5.94c-5.2 1.24-6.78 8.17-2.67 11.51a1.04 1.03 44.1 0 0 1.34-.02c2.73-2.41 5.43-3.03 8.63-1.25q6.22 3.44 3.66 11.77c-2.22 7.21-9.31 13.75-16.21 16.22-16.89 6.04-35.75-1.11-48.64-12.72a.09.09 0 0 1 .01-.14q.03-.02.05.04.91 2.45 17.17 9.2 10.83 4.5 21.17 3.3c10.06-1.17 23.04-7.45 24.33-18.53.52-4.42-2.22-8.66-7.05-7.82a.82.8 89.7 0 0-.65.68c-.73 5.16-1.19 8.72-4.66 11.28q-4.37 3.21-9.62 4.53c-3.65.91-7.69.63-11.69.62a.19.19 0 0 1-.09-.36q11.46-5.68 7.59-16.25c-1.62-4.43-5.21-8.22-9.76-9.78a2.16 2.15 30.3 0 0-2.3.6q-6.74 7.56-17.08 6.07-12.84-1.86-21.21-13.56-.01-.02.1-.13a.04.04 0 0 1 .06 0q8.19 8.02 17.95 8.43c4.78.19 11.65-2.5 13.52-7.6q1.07-2.9-.28-5.47c-1.46-2.81-3.48-2.2-5.93-.69q-9.16 5.61-19.4.93c-3.96-1.8-7.87-6.34-7.25-10.9q.51-3.85 3.11-5.87 11.88-9.27 25.35-1.82a2.29 2.29 0 0 0 2.78-.44c5.66-5.99-1.79-11.86-7.53-13.03-8.2-1.66-15.65 2.08-21.84 7.46a.14.13 89.5 0 1-.19-.19c7.54-9.42 17.55-15.3 29.88-12.79q3.91.8 8.53 5.02a2.03 1.98-19.1 0 0 1.06.5q1.58.23 2.8-.47c7.24-4.15 12.64-15.32 4.63-21.71q-3.38-2.7-3.82-3.08a.29.28 62 0 1 .15-.5c8.74-.89 17.65.17 23.55 7.32q1.98 2.38 1.41 7.8a2.47 2.47 0 0 0 3.58 2.46l1.26-.65a6.74 6.71-11.8 0 0 3.67-5.59q.36-6.1-3.17-10.52c-14.9-18.64-43.84-8.08-59.38 2.62a.06.05-35.2 0 1-.08-.01zm-41.332 26.48a24.41 23.7-45.8 0 0-34.009.977 24.41 23.7-45.8 0 0-.027 34.023 24.41 23.7-45.8 0 0 34.009-.977 24.41 23.7-45.8 0 0 .027-34.023M159.68 357.1c1.31 6.68 8.48 11.71 15.05 8.09a2.87 2.87 0 0 0 1.26-3.64c-2.68-6.32-1.38-15.72.81-21.75 4.59-12.7 11.78-24.31 21.12-34.79q12.4-13.93 26.97-24.85a1.46 1.46 0 0 0 .15-2.2l-4.48-4.48a1.13 1.12-50.2 0 0-1.72.16c-7.38 10.69-15.02 18.24-26.28 28.16q-7.62 6.71-15.79 11.54c-10.12 5.99-18.62 10.42-29.71 11.04q-5.85.32-10.29-1.77a1.29 1.27 32.2 0 0-1.54.34q-3.2 3.9-1.9 8.64 1.64 6.03 8.62 7.78a.48.48 0 0 1 .28.73c-1.57 2.32-2.81 4.37-1.9 7.63q2.19 7.92 10.41 10.99 4.22 1.58 8.27-1.85a.41.41 0 0 1 .67.23m176.15-.73a.43.43 0 0 1 .73-.2c6.65 6.91 16.34-1.18 19.03-7.92q2.22-5.55-2.1-9.24a.4.4 0 0 1 .2-.7c7.24-1.05 11.96-9.24 7.26-15.55a1.77 1.77 0 0 0-2.55-.29c-5.32 4.5-17.9 1.48-23.85-.78q-14.95-5.67-27.89-16.16-17.34-14.03-30.04-31.88a1.46 1.46 0 0 0-2.23-.19l-4.17 4.18a1.51 1.51 0 0 0 .23 2.32c10.47 6.96 18.73 15.04 26.94 24.12q14.97 16.56 22.35 36.35c1.77 4.71 4.03 16.56-.39 21.08a.97.96-41.1 0 0-.09 1.25c2.2 2.98 6.23 3.34 9.56 2.11q5.37-1.97 7.01-8.5m-102.08-60.89c-5.41 5.89-8.44 12.63-7.7 20.75.55 5.99 6.17 14.01 12.85 9.25a2.34 2.34 0 0 0 .66-3.08q-6.87-11.69.36-23.47c1.71-2.78 6.08-5.8 9.77-5.09 4.77.92 8.24 5.7 9.54 10.21q1.7 5.88-.01 11.94c-.67 2.38-2.19 4.35-3.1 6.44a2.53 2.53 0 0 0 .42 2.69c3.28 3.74 8.83 2.16 11.39-1.69 6.08-9.09 2.26-19.47-4.7-27.15a.15.15 0 0 1 0-.2.16.16 0 0 1 .22-.03q12.99 9.6 12.63 25.36c-.11 5.1-2.35 8.39-5.73 11.92a1.93 1.93 0 0 0-.51 1.11c-.57 5.32 5.82 9.46 10.16 11.18 6.85 2.71 12.57-1.39 15.35-7.53a.22.22 0 0 1 .42.07c.95 10.26-1.58 24.62-13.75 25.58q-1.89.15-1.99.17a1.71 1.71 0 0 0-1.37 2.13q1.69 6.3 8.08 5.76c5.47-.46 9.51-4.43 12.81-8.76 5.22-6.88 6.44-17.77 5.16-26.03q-1.43-9.17-5.43-17.31-1.36-2.76-6.22-10.66a.18.17 57.8 0 1 .05-.23h.01a.17.17 0 0 1 .24.05q6.46 9.54 7.71 12.04c8.58 17.17 10.36 36.41-5.38 49.77q-1.22 1.03-3.35 2.07c-6.26 3.06-12.01 3.25-15.54-3.63q-1.39-2.7 1.03-6.83a2.88 2.88 0 0 0-2.49-4.34h-1.75a6.58 6.57 11.6 0 0-6.04 3.97c-1.93 4.48-.9 9.27 2.7 12.6q.21.2 2.61 2.37a.22.22 0 0 1-.2.38c-5.2-1.43-8.44-6.98-8.39-12q.08-7.3 6.78-9.45a2.84 2.81-8.4 0 0 1.96-2.61q.03-.84-1.15-2.09-3.81-4.01-9.27-2.73c-9.14 2.15-11.33 13.57-9.05 21.42 3.19 10.96 13.18 18.81 24.55 19.28q6.91.28 14.53-3.24 14.92-6.91 20.66-23.31c8.49-24.26-9.4-51.68-26.75-66.77-17.06-14.85-41.01-19.04-61.7-9.63-5.54 2.52-12.61 7.38-16.92 11.52-12.58 12.09-24.44 28.78-26.74 45.87q-2.66 19.7 9.69 34.17c7.99 9.38 20.35 14.23 32.31 11.14 11.03-2.85 19.03-11.63 20.12-23.06.62-6.54-1.67-13.22-7.33-16.21q-7.54-3.99-11.91 2.89a2.57 2.56-60.3 0 0 1 3.66c1.87.96 3.1 1.44 4.24 2.66 5.95 6.36 1.86 15.99-5.63 18.9a.1.1 0 0 1-.1-.18c5.31-3.97 8.7-12.05 3.78-17.56a5.95 5.95 0 0 0-6.04-1.76l-1.36.38a2.76 2.76 0 0 0-1.5 4.25c3.71 5.23.26 10.91-5.65 11.85q-6.37 1.02-11.87-3.29c-19.87-15.54-11.7-43.44 1.51-60.56a.11.11 0 0 1 .16-.02h.01a.11.11 0 0 1 .02.15q-9.53 14.08-11.14 30.79c-1.09 11.23 3.62 24.42 14.34 29.17 4.6 2.04 12.64.94 11.81-6.08a1.23 1.22 85.2 0 0-1.27-1.08q-8.93.4-13.28-7.86c-3.11-5.92-3.1-11.47-2.4-18a.22.22 0 0 1 .42-.08c3.02 6.04 8.84 10.8 15.94 7.48q5.77-2.7 8.74-7.82a3.48 3.48 0 0 0-.47-4.15c-2.47-2.62-3.98-3.95-4.72-7.32q-1.75-7.98 1.34-15.51 3.64-8.86 11.46-15.29a.03.02-31.7 0 1 .03 0l.33.28a.01.01 0 0 1 0 .02"/><path fill="#b53828" d="M204.12 194.03c-8.83-11.63-15.49-27.56-12.92-42.14 1.61-9.11 7.48-18.96 17.02-21.41 5.02-1.29 9.57 2.01 8.9 7.4a1.01 1-83.8 0 1-1.09.88c-13.65-1.17-16.91 14.09-15.84 24.46a.27.27 0 0 0 .47.15q.4-.48 1.31-2.15 2.33-4.28 8.63-6.05a3.7 3.7 0 0 1 1.77-.04q9.66 2.25 13.69 9.77c1.74 3.22-2.05 5-3.64 7.47-4.29 6.65-3.33 15.97.33 22.67q3.68 6.74 10 11.35a.07.07 0 0 0 .09-.11q-2.92-3.24-4.94-7.06c-3.9-7.39-4.35-19.88 4.65-23.87q3.98-1.76 6.92 1.17a1.74 1.67 18.7 0 1 .48.92q.32 1.79-.58 3.21-5.85 9.16-2.18 18.61c2.37 6.11 7.75 11.11 14.37 7.78q2.96-1.5 5.1-5.32 6-10.78-.14-22.16-.99-1.85.82-3.27 3.81-2.99 7.99.17c4.95 3.75 5.62 11.66 4.15 17.29q-1.85 7.05-7.28 12.59a.19.18 47.4 0 0-.01.25.2.2 0 0 0 .27.03c11.41-8.52 18.91-24.69 9.27-37.21-1.93-2.52-2.4-4.13-.47-6.65q4.76-6.23 11.6-7.4c5.7-.98 9.52 3.74 12.49 8.88a.23.23 0 0 0 .43-.1c.43-6.5.39-12.57-2.3-18.1q-4.3-8.82-13.87-7.9a1.57 1.57 0 0 1-1.69-1.83c.69-4.06 4.67-6.15 8.62-6.34 5.79-.28 11.15 4.56 13.9 9.34 4.1 7.14 5.52 15.19 3.95 23.79q-2.8 15.27-11.22 27.96a.11.1-59.6 0 0 .03.14l.01.01a.19.18-53.1 0 0 .25-.04q8.05-10.71 11.85-23.04c4.83-15.69 2.03-30.28-11.94-39-5.38-3.36-14.58-3.55-16.88 3.88q-1.02 3.29 1.29 6.21a2.11 2.1-36.5 0 1-.46 3.05q-3.56 2.41-6.65.78c-4.85-2.58-5.34-8.92-2.86-13.54q1.65-3.08 5.02-5.25a.18.18 0 0 0-.16-.31q-7.42 3.02-8.44 10.2c-.87 6.09 2.18 9.49 7.09 12.13a1.69 1.68-87 0 1 .78.87q.57 1.47-.38 2.78-4.92 6.8-12.09 2.3c-9.21-5.78-8.66-18.42-3.49-27.05q3.69-6.14 10.73-9.81c13.87-7.21 29.68-2.44 39.23 9.3 22.42 27.57 1.3 62-20.64 81.53q-7.4 6.58-17.2 10.58c-8.59 3.5-16.05 3.67-25.16 3.28q-21.76-.93-38.32-18.1c-11.47-11.9-20.01-24.34-23.31-39.87-3.55-16.7 2.71-34.37 17.59-43.57 13.18-8.14 27.65-8.06 38.31 4.11 6.35 7.24 8.08 18.43 2.65 26.44-3.77 5.55-13.55 7.82-16.96 0a2 2 0 0 1 .87-2.55q.26-.14 2.66-1.24c6.04-2.76 6.58-10.94 2.72-15.82q-2.45-3.09-6.04-4.65a.12.11 74 0 0-.11.2q4.1 2.92 5.66 7.75c1.23 3.8-.09 10.1-4.58 11.26q-3.01.78-5.68-.67a1.97 1.97 0 0 1-.86-2.5c.44-1.06 1.72-3.11 1.71-4.67q-.04-5.61-4.28-7.74c-5.21-2.62-12.61.53-16.66 4.38-18.24 17.35-9.18 45.35 5.62 61.23a.02.02 0 0 0 .03-.02m65.3 13.72c10.03-6.92 17.76-17.85 19.86-30.18 1.09-6.45-.02-14.97-6.91-17.62a.26.26 0 0 0-.28.42q5.59 5.93 5.11 14.39c-.71 12.82-8.18 24.62-17.87 32.87a.08.07-82.2 0 0 .09.12m-43.65-.33q-12.46-9.76-16.77-24.87-3.6-12.65 4.68-22a.32.32 0 0 0-.38-.5c-8.09 3.95-8.46 15.02-6.24 22.39q4.79 15.87 18.64 25.16a.03.02 27.1 0 0 .04-.01q0-.01.01-.02a.16.05-65.4 0 0 .02-.15m52.326-38.306a2.68.26-114.1 0 0 .857 2.552 2.68.26-114.1 0 0 1.331 2.34 2.68.26-114.1 0 0-.857-2.552 2.68.26-114.1 0 0-1.331-2.34M215.65 172.1q-.55 1.71-.31 3.1a.05.05 0 0 0 .11 0q.29-1.58.73-2.93.43-1.34 1.12-2.8a.05.05 0 0 0-.09-.06q-1.01.99-1.56 2.69"/><path fill="#b53828" d="M354.32 162.54c7.09 1.22 13.31 9.6 7.38 16.04a2.24 2.24 0 0 1-2.78.42l-2.64-1.52a.83.78 62.5 0 0-.32-.11c-11.62-1.57-21.38 2.2-31.67 7.95q-16.45 9.18-30.4 23.58-10.07 10.4-16.22 18.47a1.86 1.86 0 0 1-2.79.19l-3.48-3.48a1.87 1.87 0 0 1 .19-2.81q16.49-12.69 29.48-28.22 10.21-12.21 16.52-26.21c3.86-8.56 6.28-17.86 2.62-26.61a1.72 1.71 49.9 0 1 .13-1.55q1.7-2.67 4.44-3.02c6.46-.83 9.87 2.97 12.01 8.8a.46.45-30 0 0 .72.19q3.75-3.11 6.76-2.36 9.29 2.32 11.91 11.29 1.26 4.3-2.11 8.28a.42.42 0 0 0 .25.68m-36.49 12.37c6.14-7.38 10.69-16.33 9.34-26.07q-.32-2.26-1.35-3.98a.16.16 0 0 0-.3.09c.71 11.43-3 19.79-7.83 29.87a.08.08 0 0 0 .14.09m7.41 5.51a.08.08 0 0 0 .09.13c9.38-4.51 17.17-7.97 27.81-7.32a.15.15 0 0 0 .09-.28q-1.6-.96-3.71-1.25c-9.07-1.25-17.41 2.99-24.28 8.72M142.63 163.2a.43.43 0 0 0 .2-.73c-6.91-6.64 1.16-16.33 7.89-19.02q5.55-2.22 9.24 2.09a.4.4 0 0 0 .7-.2c1.04-7.24 9.22-11.96 15.53-7.27a1.77 1.77 0 0 1 .29 2.55c-4.49 5.32-1.46 17.88.8 23.83q5.68 14.93 16.17 27.85 14.04 17.31 31.89 29.98a1.46 1.46 0 0 1 .19 2.23l-4.17 4.17a1.51 1.51 0 0 1-2.32-.23c-6.97-10.45-15.05-18.7-24.13-26.89q-16.56-14.94-36.34-22.3c-4.71-1.76-16.55-4.01-21.06.41a.97.96-48.9 0 1-1.25.09c-2.98-2.19-3.34-6.22-2.12-9.55q1.97-5.37 8.49-7.01m35.55 11.96a.08.08 0 0 0 .14-.09c-4.62-9.84-8.16-17.99-7.38-29.1a.16.16 0 0 0-.29-.09q-1.01 1.66-1.34 3.86c-1.39 9.46 2.96 18.19 8.87 25.42m-7.82 4.86c-6.83-5.39-15.04-9.3-23.83-7.85q-2.04.34-3.58 1.31a.15.15 0 0 0 .09.27c10.34-.91 18 2.26 27.24 6.4a.08.08 0 0 0 .08-.13"/><path fill="#fffffb" d="M317.69 174.82c4.83-10.08 8.54-18.44 7.83-29.87a.16.16 0 0 1 .3-.09q1.03 1.72 1.35 3.98c1.35 9.74-3.2 18.69-9.34 26.07a.08.08 0 0 1-.14-.09m-139.51.34c-5.91-7.23-10.26-15.96-8.87-25.42q.33-2.2 1.34-3.86a.16.16 0 0 1 .29.09c-.78 11.11 2.76 19.26 7.38 29.1a.08.08 0 0 1-.14.09m91.15 32.47c9.69-8.25 17.16-20.05 17.87-32.87q.48-8.46-5.11-14.39a.26.26 0 0 1 .28-.42c6.89 2.65 8 11.17 6.91 17.62-2.1 12.33-9.83 23.26-19.86 30.18a.08.07-82.2 0 1-.09-.12m-43.58-.06q-.01.01-.01.02a.03.02 27.1 0 1-.04.01q-13.85-9.29-18.64-25.16c-2.22-7.37-1.85-18.44 6.24-22.39a.32.32 0 0 1 .38.5q-8.28 9.35-4.68 22 4.31 15.11 16.77 24.87a.16.05-65.4 0 1-.02.15"/><ellipse fill="#fffffb" rx="2.68" ry=".26" transform="rotate(245.9 195.195 -4.701)"/><path fill="#fffffb" d="M216.18 172.27q-.44 1.35-.73 2.93a.05.05 0 0 1-.11 0q-.24-1.39.31-3.1.55-1.7 1.56-2.69a.05.05 0 0 1 .09.06q-.69 1.46-1.12 2.8m109.06 8.15c6.87-5.73 15.21-9.97 24.28-8.72q2.11.29 3.71 1.25a.15.15 0 0 1-.09.28c-10.64-.65-18.43 2.81-27.81 7.32a.08.08 0 0 1-.09-.13m-154.88-.4a.08.08 0 0 1-.08.13c-9.24-4.14-16.9-7.31-27.24-6.4a.15.15 0 0 1-.09-.27q1.54-.97 3.58-1.31c8.79-1.45 17 2.46 23.83 7.85"/><path fill="#b53828" d="M203.13 235.93c-7.06-9.15-17.44-15.14-29.1-12.6-4.29.93-6.1 3.29-8.65 5.62a1.61 1.58 19.9 0 1-.9.41c-5.79.62-10.84-7.8-12.06-12.26-1.51-5.49 3.41-11.04 8.03-13.34a.24.24 0 0 0-.08-.46q-9.09-1.12-16.56 2.12c-6.37 2.77-7.88 7.3-8.22 13.7a1.68 1.68 0 0 1-2.11 1.53c-8.55-2.31-7.1-11.31-2.54-16.52 15.21-17.38 40.28-10.8 56.8.68a.2.2 0 0 0 .27-.05v-.01a.18.18 0 0 0-.03-.25c-11-8.96-26.86-15.41-40.76-12.73-9.53 1.84-19.3 8.51-22.32 18.14q-2.63 8.39 4.52 11.86c3.27 1.58 5.96.58 8.44-1.47a.94.94 0 0 1 1.32.11c4.4 5.14.49 11.35-5.43 11.83q-6.44.52-11.49-5.84a.22.22 0 0 0-.38.21c1.48 4.58 6.07 8.07 11.35 8.18q7.29.16 10.19-7.57a2.01 2.01 0 0 1 2.88-1.04c5.6 3.2 5.49 10.12 2.05 14.77q-1.92 2.6-5.6 3.94c-9.02 3.28-18.32.65-24.95-6.18q-11.08-11.41-6.65-26.81c2.32-8.06 7.57-15.9 14.73-20.97 26.09-18.49 58.08.38 76.26 20.23 14.33 15.65 19.47 37.22 12.71 57.52-5.42 16.31-20.1 29.93-35.65 39.75-11.86 7.49-26.73 11.98-40.83 8.53-11.34-2.78-20.33-9.54-25.57-19.45-9.02-17.04.14-40.06 20.39-42.11 7.9-.81 17.32 3.83 17.43 12.64q.07 5.03-4.94 7.09a2.06 2.05 66.6 0 1-2.66-1.06c-5.05-11.22-17.23-8.35-21.88 1.17a.27.26-62.9 0 0 .11.35l.01.01a.22.22 0 0 0 .28-.07q3.89-5.98 10.8-6.1c5.81-.09 11.69 4.9 7.28 10.7a2.07 2.07 0 0 1-2.7.52c-9.84-5.83-14.99 5.19-11.69 13.2 3.74 9.12 14.75 15.35 24.31 16.08 13.28 1.02 27.57-5.27 38.16-13.31a.14.13 56.4 0 0 .03-.18l-.01-.01a.14.14 0 0 0-.2-.04c-11.07 7.28-26.31 12.76-39.69 10.83-9.76-1.41-22.15-9.23-20.28-20.66a6.54 6.52-5.3 0 1 4.24-5.09l.81-.29a2.28 2.28 0 0 1 3.04 2.43c-1.67 13.24 15.63 16.14 25.35 14.97a.23.23 0 0 0 .11-.41c-4.79-3.64-9.44-6.35-8.08-13.39q1.14-5.85 5.84-9.91c2.07-1.79 5.04-3.15 7.37-.79 2.21 2.23 4.26 3.79 7.5 4.39q7.31 1.37 12.96-.55 10.17-3.45 17.27-12.7a.2.2 0 0 0-.03-.27v-.01a.23.23 0 0 0-.31.01q-3.08 3.06-6.37 5.06c-6.63 4.03-16.57 5.1-22.61-.65-3.11-2.96-3.81-6.97-.37-10.01a1.69 1.69 0 0 1 1.99-.18q10.75 6.47 21.18 1.34c8.08-3.97 10.82-12.44 2.82-18.16-6.49-4.65-14.91-4.82-21.8-.45q-2.04 1.29-3.13 1.12c-3.42-.52-4.09-4.78-3.18-7.52 1.46-4.39 7.45-6.93 11.6-7.34 8.18-.8 13.09 3.04 19.24 7.9a.1.09 1.2 0 0 .14-.13m1.34-7.56c-7-9.76-17.91-17.18-30.09-19.03-6.38-.96-14.76.29-17.24 7.13a.26.25-12.3 0 0 .42.27q5.74-5.62 14.08-5.3c12.65.47 24.41 7.62 32.72 17.02a.07.07 0 0 0 .11-.09m-34.59-9.58q-1.67.37-3.16 1.35a.13.13 0 0 0 .11.23q2.55-.99 3.16-1.12.6-.14 3.33-.34a.13.13 0 0 0 .01-.26q-1.77-.24-3.45.14m34.21 54.96a.07.07 0 0 0-.11-.09c-8.27 9.18-19.91 16.11-32.37 16.45q-8.21.24-13.82-5.34a.25.25 0 0 0-.41.26c2.39 6.75 10.62 8.06 16.9 7.18 12.02-1.71 22.83-8.92 29.81-18.46m-33.29 9.68q1.95.55 4.07.38a.16.16 0 0 0 .01-.31q-3.22-.41-3.93-.61-.72-.2-3.67-1.54a.16.16 0 0 0-.16.27q1.71 1.26 3.68 1.81m17.908 12.116a.49.17-41.4 0 0-.48.197.49.17-41.4 0 0-.256.451.49.17-41.4 0 0 .48-.197.49.17-41.4 0 0 .256-.451M306.7 206.75c15.54-10.7 44.48-21.26 59.38-2.62q3.53 4.42 3.17 10.52a6.74 6.71-11.8 0 1-3.67 5.59l-1.26.65a2.47 2.47 0 0 1-3.58-2.46q.57-5.42-1.41-7.8c-5.9-7.15-14.81-8.21-23.55-7.32a.29.28 62 0 0-.15.5q.44.38 3.82 3.08c8.01 6.39 2.61 17.56-4.63 21.71q-1.22.7-2.8.47a2.03 1.98-19.1 0 1-1.06-.5q-4.62-4.22-8.53-5.02c-12.33-2.51-22.34 3.37-29.88 12.79a.14.13 89.5 0 0 .19.19c6.19-5.38 13.64-9.12 21.84-7.46 5.74 1.17 13.19 7.04 7.53 13.03a2.29 2.29 0 0 1-2.78.44q-13.47-7.45-25.35 1.82-2.6 2.02-3.11 5.87c-.62 4.56 3.29 9.1 7.25 10.9q10.24 4.68 19.4-.93c2.45-1.51 4.47-2.12 5.93.69q1.35 2.57.28 5.47c-1.87 5.1-8.74 7.79-13.52 7.6q-9.76-.41-17.95-8.43a.04.04 0 0 0-.06 0q-.11.11-.1.13 8.37 11.7 21.21 13.56 10.34 1.49 17.08-6.07a2.16 2.15 30.3 0 1 2.3-.6c4.55 1.56 8.14 5.35 9.76 9.78q3.87 10.57-7.59 16.25a.19.19 0 0 0 .09.36c4 .01 8.04.29 11.69-.62q5.25-1.32 9.62-4.53c3.47-2.56 3.93-6.12 4.66-11.28a.82.8 89.7 0 1 .65-.68c4.83-.84 7.57 3.4 7.05 7.82-1.29 11.08-14.27 17.36-24.33 18.53q-10.34 1.2-21.17-3.3-16.26-6.75-17.17-9.2-.02-.06-.05-.04a.09.09 0 0 0-.01.14c12.89 11.61 31.75 18.76 48.64 12.72 6.9-2.47 13.99-9.01 16.21-16.22q2.56-8.33-3.66-11.77c-3.2-1.78-5.9-1.16-8.63 1.25a1.04 1.03 44.1 0 1-1.34.02c-4.11-3.34-2.53-10.27 2.67-11.51q9.21-2.21 14.15 5.94a.13.13 0 0 0 .24-.05q.02-.18-.09-.31t-.14-.2q-3.64-8.27-11.4-8.52c-3.33-.1-7.41 2.2-9.03 5.65q-.92 1.97-1.46 2.69a1.74 1.74 0 0 1-.8.6q-1.4.5-3.05-.81-4.42-3.5-2.99-9.36c2.27-9.28 12.92-11.49 21.25-9.53 6 1.41 11.99 6.18 15.39 11.47q8.34 12.98.67 28.33c-8.77 17.53-27.12 24.91-46.24 21.24-17.98-3.46-35.03-16.97-46.26-31.21-8.5-10.79-11.47-23.44-11.24-37.67.2-11.95 4.61-22.46 11.66-31.58 12.16-15.73 30.27-29.7 50.2-33.03 11.73-1.97 23.52.73 32.63 8 12.77 10.19 18.01 25.59 9.94 40.51-5.18 9.59-13.4 14.75-24.31 13.93-8.75-.65-19.95-10.63-10.12-18.95q1.5-1.27 3.53-.43a1.42 1.41 89.4 0 1 .78.77q2.87 6.89 10.1 7.15c5.81.2 10.08-4.07 12.27-8.93a.19.18 25.1 0 0-.09-.24v-.01a.19.19 0 0 0-.25.07q-3.97 6.41-11.3 6.49c-4.12.05-8.12-1.93-8.5-6.23q-.21-2.51 1.43-4.54a2.18 2.17 34.3 0 1 2.77-.52l2.22 1.29a2.91 2.89 58.1 0 0 1.61.38c9.13-.49 10.88-9.86 6.66-16.97-14.57-24.51-46.61-12.89-63.38.87a.13.12-39.9 0 0-.02.17l.01.01a.06.05-35.2 0 0 .08.01m-15.28 22.61a.08.07-7.6 0 0 .12.09c8.26-9.65 20.06-17.08 32.86-17.76q8.45-.46 14.36 5.13a.26.26 0 0 0 .42-.27c-2.63-6.89-11.14-8.02-17.58-6.95-12.32 2.07-23.25 9.76-30.18 19.76m35.18-10.35q-1.64-.56-2.98-.35a.05.05 0 0 0 0 .1q1.51.31 2.8.76 1.29.44 2.68 1.13a.05.05 0 0 0 .06-.09q-.93-.99-2.56-1.55m-35.16 54.71c7.97 11.85 22.78 20.3 37.28 19.07q7.68-.66 10.26-7.61a.37.37 0 0 0-.63-.37q-6.57 7.62-17.53 5.81-17.34-2.87-29.17-17.06a.13.13 0 0 0-.21.16m34.42 9.75q1.87-.43 3.54-1.52a.15.15 0 0 0-.14-.26q-2.84 1.11-3.52 1.26-.67.16-3.72.38a.15.15 0 0 0-.01.29q1.98.27 3.85-.15"/><path fill="#fffffb" d="M204.47 228.37a.07.07 0 0 1-.11.09c-8.31-9.4-20.07-16.55-32.72-17.02q-8.34-.32-14.08 5.3a.26.25-12.3 0 1-.42-.27c2.48-6.84 10.86-8.09 17.24-7.13 12.18 1.85 23.09 9.27 30.09 19.03m86.95.99c6.93-10 17.86-17.69 30.18-19.76 6.44-1.07 14.95.06 17.58 6.95a.26.26 0 0 1-.42.27q-5.91-5.59-14.36-5.13c-12.8.68-24.6 8.11-32.86 17.76a.08.07-7.6 0 1-.12-.09"/><path fill="#fffffb" d="M169.88 218.79q1.68-.38 3.45-.14a.13.13 0 0 1-.01.26q-2.73.2-3.33.34-.61.13-3.16 1.12a.13.13 0 0 1-.11-.23q1.49-.98 3.16-1.35m156.72.22q1.63.56 2.56 1.55a.05.05 0 0 1-.06.09q-1.39-.69-2.68-1.13-1.29-.45-2.8-.76a.05.05 0 0 1 0-.1q1.34-.21 2.98.35"/><ellipse fill="#b53828" rx="24.41" ry="23.7" transform="rotate(-45.8 420.887 -168.502)"/><path fill="#fffffb" d="M291.65 273.56q11.83 14.19 29.17 17.06 10.96 1.81 17.53-5.81a.37.37 0 0 1 .63.37q-2.58 6.95-10.26 7.61c-14.5 1.23-29.31-7.22-37.28-19.07a.13.13 0 0 1 .21-.16m-87.56.19c-6.98 9.54-17.79 16.75-29.81 18.46-6.28.88-14.51-.43-16.9-7.18a.25.25 0 0 1 .41-.26q5.61 5.58 13.82 5.34c12.46-.34 24.1-7.27 32.37-16.45a.07.07 0 0 1 .11.09"/><path fill="#b53828" d="M159.01 356.87q-4.05 3.43-8.27 1.85-8.22-3.07-10.41-10.99c-.91-3.26.33-5.31 1.9-7.63a.48.48 0 0 0-.28-.73q-6.98-1.75-8.62-7.78-1.3-4.74 1.9-8.64a1.29 1.27 32.2 0 1 1.54-.34q4.44 2.09 10.29 1.77c11.09-.62 19.59-5.05 29.71-11.04q8.17-4.83 15.79-11.54c11.26-9.92 18.9-17.47 26.28-28.16a1.13 1.12-50.2 0 1 1.72-.16l4.48 4.48a1.46 1.46 0 0 1-.15 2.2q-14.57 10.92-26.97 24.85c-9.34 10.48-16.53 22.09-21.12 34.79-2.19 6.03-3.49 15.43-.81 21.75a2.87 2.87 0 0 1-1.26 3.64c-6.57 3.62-13.74-1.41-15.05-8.09a.41.41 0 0 0-.67-.23m12.78-36.1a.08.08 0 0 0-.09-.14c-10 4.65-18.28 8.21-29.55 7.39a.16.16 0 0 0-.09.29q1.68 1.04 3.91 1.38c9.59 1.44 18.47-2.95 25.82-8.92m6.56 6.14c-6.02 7.4-10.45 16.35-9 26.01q.34 2.24 1.38 3.94a.16.16 0 0 0 .3-.09c-.83-11.35 2.77-19.7 7.46-29.77a.08.08 0 0 0-.14-.09m157.48 29.46q-1.64 6.53-7.01 8.5c-3.33 1.23-7.36.87-9.56-2.11a.97.96-41.1 0 1 .09-1.25c4.42-4.52 2.16-16.37.39-21.08q-7.38-19.79-22.35-36.35c-8.21-9.08-16.47-17.16-26.94-24.12a1.51 1.51 0 0 1-.23-2.32l4.17-4.18a1.46 1.46 0 0 1 2.23.19q12.7 17.85 30.04 31.88 12.94 10.49 27.89 16.16c5.95 2.26 18.53 5.28 23.85.78a1.77 1.77 0 0 1 2.55.29c4.7 6.31-.02 14.5-7.26 15.55a.4.4 0 0 0-.2.7q4.32 3.69 2.1 9.24c-2.69 6.74-12.38 14.83-19.03 7.92a.43.43 0 0 0-.73.2m-12.07-35.59c7.23 5.95 15.97 10.34 25.46 8.98q2.2-.33 3.87-1.34a.16.16 0 0 0-.09-.29c-11.14.75-19.3-2.83-29.15-7.48a.08.08 0 0 0-.09.13m-4.89 7.38a.08.08 0 0 0-.14.08c4.2 9.4 7.4 17.18 6.46 27.68a.15.15 0 0 0 .28.09q.99-1.55 1.34-3.63c1.48-8.92-2.48-17.27-7.94-24.22"/><path fill="#fffffb" d="M170.95 282.89q.71.2 3.93.61a.16.16 0 0 1-.01.31q-2.12.17-4.07-.38-1.97-.55-3.68-1.81a.16.16 0 0 1 .16-.27q2.95 1.34 3.67 1.54"/><path fill="#b53828" d="M233.75 295.48a.01.01 0 0 0 0-.02l-.33-.28a.03.02-31.7 0 0-.03 0q-7.82 6.43-11.46 15.29-3.09 7.53-1.34 15.51c.74 3.37 2.25 4.7 4.72 7.32a3.48 3.48 0 0 1 .47 4.15q-2.97 5.12-8.74 7.82c-7.1 3.32-12.92-1.44-15.94-7.48a.22.22 0 0 0-.42.08c-.7 6.53-.71 12.08 2.4 18q4.35 8.26 13.28 7.86a1.23 1.22 85.2 0 1 1.27 1.08c.83 7.02-7.21 8.12-11.81 6.08-10.72-4.75-15.43-17.94-14.34-29.17q1.61-16.71 11.14-30.79a.11.11 0 0 0-.02-.15h-.01a.11.11 0 0 0-.16.02c-13.21 17.12-21.38 45.02-1.51 60.56q5.5 4.31 11.87 3.29c5.91-.94 9.36-6.62 5.65-11.85a2.76 2.76 0 0 1 1.5-4.25l1.36-.38a5.95 5.95 0 0 1 6.04 1.76c4.92 5.51 1.53 13.59-3.78 17.56a.1.1 0 0 0 .1.18c7.49-2.91 11.58-12.54 5.63-18.9-1.14-1.22-2.37-1.7-4.24-2.66a2.57 2.56-60.3 0 1-1-3.66q4.37-6.88 11.91-2.89c5.66 2.99 7.95 9.67 7.33 16.21-1.09 11.43-9.09 20.21-20.12 23.06-11.96 3.09-24.32-1.76-32.31-11.14q-12.35-14.47-9.69-34.17c2.3-17.09 14.16-33.78 26.74-45.87 4.31-4.14 11.38-9 16.92-11.52 20.69-9.41 44.64-5.22 61.7 9.63 17.35 15.09 35.24 42.51 26.75 66.77q-5.74 16.4-20.66 23.31-7.62 3.52-14.53 3.24c-11.37-.47-21.36-8.32-24.55-19.28-2.28-7.85-.09-19.27 9.05-21.42q5.46-1.28 9.27 2.73 1.18 1.25 1.15 2.09a2.84 2.81-8.4 0 1-1.96 2.61q-6.7 2.15-6.78 9.45c-.05 5.02 3.19 10.57 8.39 12a.22.22 0 0 0 .2-.38q-2.4-2.17-2.61-2.37c-3.6-3.33-4.63-8.12-2.7-12.6a6.58 6.57 11.6 0 1 6.04-3.97h1.75a2.88 2.88 0 0 1 2.49 4.34q-2.42 4.13-1.03 6.83c3.53 6.88 9.28 6.69 15.54 3.63q2.13-1.04 3.35-2.07c15.74-13.36 13.96-32.6 5.38-49.77q-1.25-2.5-7.71-12.04a.17.17 0 0 0-.24-.05h-.01a.18.17 57.8 0 0-.05.23q4.86 7.9 6.22 10.66 4 8.14 5.43 17.31c1.28 8.26.06 19.15-5.16 26.03-3.3 4.33-7.34 8.3-12.81 8.76q-6.39.54-8.08-5.76a1.71 1.71 0 0 1 1.37-2.13q.1-.02 1.99-.17c12.17-.96 14.7-15.32 13.75-25.58a.22.22 0 0 0-.42-.07c-2.78 6.14-8.5 10.24-15.35 7.53-4.34-1.72-10.73-5.86-10.16-11.18a1.93 1.93 0 0 1 .51-1.11c3.38-3.53 5.62-6.82 5.73-11.92q.36-15.76-12.63-25.36a.16.16 0 0 0-.22.03.15.15 0 0 0 0 .2c6.96 7.68 10.78 18.06 4.7 27.15-2.56 3.85-8.11 5.43-11.39 1.69a2.53 2.53 0 0 1-.42-2.69c.91-2.09 2.43-4.06 3.1-6.44q1.71-6.06.01-11.94c-1.3-4.51-4.77-9.29-9.54-10.21-3.69-.71-8.06 2.31-9.77 5.09q-7.23 11.78-.36 23.47a2.34 2.34 0 0 1-.66 3.08c-6.68 4.76-12.3-3.26-12.85-9.25-.74-8.12 2.29-14.86 7.7-20.75m-8.93-.47c-9.42 7.1-16.46 17.97-17.99 29.98-.8 6.27.61 14.47 7.38 16.75a.25.25 0 0 0 .26-.41q-5.65-5.51-5.52-13.71c.17-12.42 6.92-24.13 15.96-32.49a.07.07 0 0 0-.09-.12m46.51.2a.07.07 0 0 0-.09.11c9.14 8.23 16.05 19.82 16.39 32.22q.24 8.19-5.31 13.77a.25.25 0 0 0 .26.41c6.72-2.38 8.02-10.58 7.14-16.83-1.71-11.97-8.88-22.73-18.39-29.68m-55.67 33.03q.5 1.79 1.64 3.36a.14.14 0 0 0 .25-.14q-1.22-2.71-1.4-3.36t-.54-3.59a.14.14 0 0 0-.28 0q-.17 1.93.33 3.73m65.155-2.622a3.5.24-75.7 0 0-1.098 3.333 3.5.24-75.7 0 0-.631 3.45 3.5.24-75.7 0 0 1.097-3.332 3.5.24-75.7 0 0 .632-3.45"/><path fill="#fffffb" d="M325.86 283.47q-1.87.42-3.85.15a.15.15 0 0 1 .01-.29q3.05-.22 3.72-.38.68-.15 3.52-1.26a.15.15 0 0 1 .14.26q-1.67 1.09-3.54 1.52m-101.04 11.54a.07.07 0 0 1 .09.12c-9.04 8.36-15.79 20.07-15.96 32.49q-.13 8.2 5.52 13.71a.25.25 0 0 1-.26.41c-6.77-2.28-8.18-10.48-7.38-16.75 1.53-12.01 8.57-22.88 17.99-29.98m46.51.2c9.51 6.95 16.68 17.71 18.39 29.68.88 6.25-.42 14.45-7.14 16.83a.25.25 0 0 1-.26-.41q5.55-5.58 5.31-13.77c-.34-12.4-7.25-23.99-16.39-32.22a.07.07 0 0 1 .09-.11"/><ellipse fill="#fffffb" rx=".49" ry=".17" transform="rotate(-41.4 485.669 -101.279)"/><path fill="#fffffb" d="M171.79 320.77c-7.35 5.97-16.23 10.36-25.82 8.92q-2.23-.34-3.91-1.38a.16.16 0 0 1 .09-.29c11.27.82 19.55-2.74 29.55-7.39a.08.08 0 0 1 .09.14m151.97.01a.08.08 0 0 1 .09-.13c9.85 4.65 18.01 8.23 29.15 7.48a.16.16 0 0 1 .09.29q-1.67 1.01-3.87 1.34c-9.49 1.36-18.23-3.03-25.46-8.98m-108.1 7.46q-.5-1.8-.33-3.73a.14.14 0 0 1 .28 0q.36 2.94.54 3.59t1.4 3.36a.14.14 0 0 1-.25.14q-1.14-1.57-1.64-3.36"/><ellipse fill="#fffffb" rx="3.5" ry=".24" transform="rotate(-75.7 351.672 -15.625)"/><path fill="#fffffb" d="M178.35 326.91a.08.08 0 0 1 .14.09c-4.69 10.07-8.29 18.42-7.46 29.77a.16.16 0 0 1-.3.09q-1.04-1.7-1.38-3.94c-1.45-9.66 2.98-18.61 9-26.01m140.52 1.25c5.46 6.95 9.42 15.3 7.94 24.22q-.35 2.08-1.34 3.63a.15.15 0 0 1-.28-.09c.94-10.5-2.26-18.28-6.46-27.68a.08.08 0 0 1 .14-.08"/></svg>